<svg xmlns="http://www.w3.org/2000/svg" viewBox="0 0 1080 1080"><defs><style>.cls-1{fill:#fff}.cls-2{fill:#fbfbfb}.cls-3{fill:#7e7208}.cls-4{fill:#ef5d29}.cls-5{fill:#050100}.cls-6{fill:#c2981d}</style></defs><title>gulls</title><g id="face"><path class="cls-1" d="M157 1051.28C229 911.59 270.38 763.89 285 625c34.82-332.1-15.94-613.42 320.7-614 384.08-.66 333.83 286.5 254.47 711-29.58 158.25-38.12 291.35-6.79 358-2.47-5.26-696.38-28.72-696.38-28.72z"/><path class="cls-2" d="M157.14 1048c-1.7.37-.78 1.38 3.89 1.35l3.37-1.54zm31.27 4.09c5.51-.61 11.88-1.8 8.38-3.45-5.48 1.4-6.78.69-12.69 2.39-4.67 0-8.12-.81-7.32-1.39-1.66.37-7.24-.61-9.78.34 6 1.49 13.72 1.8 21.78 1 1.72.45.03.82-.37 1.11zm455.69 19.32l-2.93-.31a28.15 28.15 0 0 0 2.93.31zM839.25 1009c.28 2.11.55 3 .71 3.07-.33-1.9-.62-3.51-.71-3.07zm-.59-47.81l-.09 2.82a10.1 10.1 0 0 0 .09-2.82zM644.1 1071.41l7.52.82c.55-.51-3.85-.55-7.52-.82zm-392.7-21.13a35.24 35.24 0 0 0-4.11.29h3.86a1.3 1.3 0 0 1 .25-.29zm268.17 17.63l-2.29-.08a15.09 15.09 0 0 0-1.93.6zm-95.57-3.29c2.16.14 3-1.24 3.81-1.82a13 13 0 0 1-4.75.79c-.06.26.26.59.94 1.03zm-151.38-7.9l-2.7.1zm315.32 14.11a1.8 1.8 0 0 0 .85.53c0-.17-.33-.36-.85-.53zM209.27 953c-.06-.11-.16 0-.23-.09-.09.6-.04.8.23.09zm-52.56 98.12l.62-1.41a1.67 1.67 0 0 0-.55-.66zm688.16-177.4l-.07.39c-.06 2.31.04 1 .07-.39zm5.35-792.62c2.85 3.82-.13 1.34-2.67-.66a8.36 8.36 0 0 0-2.81-1.77c-.33.08.38.95 2.56 3.74-.26-.66 2.35 1.23 4.11 2.2s2.59.99-1.19-3.51zm-596.35 969.45c1.29 0 2.6.06 3.92.12-1.79-.1-2.98-.14-3.92-.12zM847.29 82.41l.92 1.13zm28.08 590.81a8.22 8.22 0 0 0-1 1.93c.17-.05.43-.48 1-1.93zM848 822.06l.7-3.68c-.33 1.45-.54 2.62-.7 3.68zm39.41-226.69a32.41 32.41 0 0 0 1.06-5.42 6.91 6.91 0 0 0-.32.8 16.21 16.21 0 0 1-.74 4.62zm13.35-80.9c-.17.41-.34 1-.5 1.45l-.32 2.58zM278.25 713a16 16 0 0 1-1.94 3.51c1.22-1.11-.65 10.85 1.94-3.51z"/><path class="cls-2" d="M251.42 1051.07a4.48 4.48 0 0 1 2.45-.52h-2.73c-.24.18-.3.38.28.52zm625.64-460.88l2.41-12.77c-.75 3.58-1.6 8.2-2.41 12.77zM361.63 136c-.41.89-.86 1.75-1.23 2.65a16.43 16.43 0 0 0 1.23-2.65zm523.99 403.35a53.9 53.9 0 0 0 2.13-7.07 8.63 8.63 0 0 0-.12-1.55zM276.29 716.5s.01-.03 0 0z"/><path class="cls-2" d="M260.85 801.31c3.16-12.08-.29-6.12-.65-8.94a71.07 71.07 0 0 1 1.86-7.19c.44-1.36.77-1.84 1.08-2 .62-.36 1.14.52 2.18-1.83 1.64-9.17 1.62-16.48 3.25-23.21.4-.44.79-1.73.84-.11.57-9.92 6-28.52 6.16-40.14a4.54 4.54 0 0 1 .73-1.38c-1.25 1.65-2.23 1.76-2.81 1.26 1-5.48.75-10.36 2.32-12.21a13.21 13.21 0 0 0-.16 5.35l.56-5.83c2.66-4.87-.86 7.94.39 8.17.38-2.83.74-5.78 1.08-8.75l.83-8.89a141.1 141.1 0 0 1 2.17-15.55c2-1.55-2.72 20.24.64 9l-2.82 13.24c4.31-9.75-1.51 8.08 2.85-.81 3.32-17.52 2.5-19.79 5.38-37.33-.38-4.09-1.57 1.12-1.95-3a117.2 117.2 0 0 1 1.76-13.92 47.35 47.35 0 0 1 2.18-7.47c1.45-4 2.81-7.17 2.69-16.52-.66-4.89-2.55-6.94-.18-20l1.49 4.66c1.81-17.11-1.8-10 1.06-27.84.47 3.25-.55 13.51-.1 10.94 2.52-11.49-.34-8.31.4-17.24l1.85-1.71c1.25-18.27 1.5-38.45 2.56-58.67.43 1.15.73 4.65 1.56 0 .88-25.54 3.7-54.38 6.29-78.86l-.85-9.47c.16-2.18.93-4 1.06-1.62 1.19-9.53-.9-.56-1.17-5.19.26-5.45 1.33-7.13 1.53-3.65-.13-16.95.76-48.24 4-65.81l.13 3.49c1.86-13.73-1.55-15.85 1.14-28.49v2.48c1.9-14.91 3.64-30.61 5.83-45.35s4.79-28.51 8.19-39.45c-.32-1.17-.05-3.56.55-6.5s1.39-6.48 2.3-9.91 1.71-6.8 2.22-9.46.67-4.61.08-5.27c.72-2 1.33-3.71 1.88-5.16l1.53-3.73 2.35-5.56c.76-1.81 1.63-3.8 2.78-6.76s2.7-6.84 4.88-12.38a37.6 37.6 0 0 0 2-7.91c.22-1.29.42-2.64.77-4.11a45.89 45.89 0 0 1 1.53-4.93l1.5.42c.45-1.74.84-3.51 1.34-5.23l1.48-5.19c1.35-1.47 2.66-2.94 4.08-4.34l2.93-6.74c-1.39 2.57-3.4 5.26-3.6 4.66a90.71 90.71 0 0 1 9-16c1.64-2.28 3.13-4.24 4.27-5.6s2-2.09 2.18-2.05l3.44-5.81c1.18-1.92 2.44-3.77 3.67-5.67l1.85-2.83 2-2.74c1.32-1.82 2.61-3.68 4-5.48.06.84-2.55 4.53-4.46 7.55 3.85-6.1 4.58-6.38 5.22-6.49s1.21-.08 5-5.5c-1.42 1.09-.06-1.33-.09-1.77 1.27-1.07 2.93-2.48 4.74-4.2l2.8-2.78 3.2-2.9 3.3-3.1c1.13-1 2.31-2 3.45-3l3.38-3c1.09-1 2.25-1.86 3.29-2.76l-1 2.12a244.42 244.42 0 0 1 25.7-17.62c2.35-1.33 4.66-2.77 7.09-4l7.35-3.79c2.49-1.22 5-2.32 7.59-3.48s5.15-2.19 7.77-3.2c-7.7 2.46-6.71.1-.55-2.48l3.06.56c3.65-2.5-6.69 1.95 1.1-2.41 8.1-2.62 6-.1 1.59 1.94l9.51-3.88c.72.27-1.48 1.29-1.87 2.08a15.71 15.71 0 0 1 4.33-1.62c1.89-.47 4.12-.94 6.39-1.44 1.14-.25 2.28-.51 3.41-.79s2.25-.48 3.31-.76a22 22 0 0 0 5.36-2l.67.33c2.72-.73 5.31-1.19 7.73-1.74l6.85-1.5 12.05-2.28 11.36-1.78c1.93-.33 3.93-.53 6-.77l6.56-.73c.12-.7 2-1.24 4.5-1.64a82 82 0 0 0 8.44-1.62c13.71-.41 28.88.17 45.4.38 5.81-.29 6.67-.59 6.72-.89s-.69-.67 1.94-1c.83 1.31 17.31 1.77 8.73 2.39 2.47.07 4.73.09 6.82.19l5.86.29 10.49.48 11.46.68 3.39.18 3.69.3 8.52.68c-2.63-.84-5.64-1.44-4-1.68a43.49 43.49 0 0 1 6.72 1.08c1.89.5 3.11 1.05 2.74 1.3h-1.2c14 1 29.88 4.9 44.56 9.56l5.46 1.76 2.69.86 2.63.95c3.48 1.27 6.91 2.41 10.19 3.55s6.39 2.33 9.4 3.29c1.52.45 2.95 1 4.37 1.45s2.79.88 4.14 1.24l-1.2-.34 5.44 1.83 5.34 2.08 5.36 2.03 5.25 2.33c9.25 5.07-6-2.07.49 2.24 1.42.6 2.81 1.17 4.15 1.78l3.81 1.94 3.61 1.92c1.17.63 2.33 1.25 3.39 2 2.16 1.37 4.22 2.71 6.22 4l1.48 1 1.41 1.06 2.76 2.1c7.36 5.49 13.65 11.34 21.43 17.83 4.28 6.8 13.56 16.89 21.94 28.74l1.61 2.2 1.5 2.29 3 4.58c1 1.5 1.91 3.08 2.79 4.63l2.6 4.6a98.34 98.34 0 0 1 7.4 17.14l.32-1.47a15.3 15.3 0 0 1 2.39 5.35 32.42 32.42 0 0 0 1 4.74c.44-.78-1.42-5.83.27-2.84a216.27 216.27 0 0 1 11.23 33.59c1.55 5.79 2.69 11.72 3.89 17.64l1.51 9 .37 2.24.3 2.26.6 4.52.6 4.53c.2 1.51.32 3 .48 4.55.3 3 .63 6.06.9 9.1.43 6.09.94 12.17 1.16 18.27s.45 12.18.61 18.25c.09 3 .05 6.07.09 9.1s.08 6 0 9.06c0 8.82 1.13 11.33 2 14.42a24 24 0 0 1 .94 5.95c.06 1.35.06 3 0 4.92s-.35 4.29-.7 7.07l-1.47-6.38c.63 17.88-.39 36.18-1.84 54.34s-3.36 36.21-4.52 53.76c-.13-2.12-.61-2.24-.24-5.65a105.29 105.29 0 0 0-2.27 16.36c-.45 5.94-.6 11-.11 11.13-.81 5.42-1 1.15-2 4.43-1.65 7.29-1 18.74-2.71 22.49-.29.64-.08-2.13 0-3.49-.09 4.89-3.36 22.37-1.32 18-1.3 6.48-2.09 12.75-2.85 18.69s-1.56 11.53-2.78 16.67c.43 7-4.36 22.21-2.58 24.72-1-.65-2.44 5-3.63 11.84a177.49 177.49 0 0 0-2.35 19.08c-.19-2.87-2 7-2.32 3.65-1.61 9.4-2.72 18.08-1.29 16.65-5.74 16.83-4.11 35.17-9.31 44.29-3.9 28.12-8 54-12.07 79.27-2.07-1.33 4.92-27.81 2.4-27.15-3.54 24-4.23 38.1-8.7 61.72-1.31 6.1-.4-3.65-.41-5.79-3.13 24.06-7.57 46.3-9.13 67.88-.2-.09-.13-2.43 0-4.63-.47 4.23-1.6 9.78-.52 9.43l.26-4.15c1.18-3.27 1.4 1 1.43 6.22s-.06 11.34.28 11.76c-2.13-7.51-3.1 21.09-5.52 9.29-.12 2.81 0 6.35.74 5.79-.61 4.11-1.14 5.39-1.5 1.11-1 15.24.66 9.95-.6 23.7-.49-.09-.43-2.88-.89-4.36.15 3.53.37 7.06.37 11.17s-.2 8.77-.78 14.59c-.25-.72-.73.61-.5-2.87-.6 10-.34 18.6-.15 27.4.08 4.4.25 8.86.22 13.59v7.33l-.2 7.91c-2.2-6.49-.67 7.5-2.47 8.71.32 4 .53 7.92.94 11.87.23-1.6.45-3.2.72-4.8.37 10.41 2.22 19.48 2.51 28.43-.48-2.54-1-5.09-1.44-7.64.29 3.24.69 6.47 1 9.71s.85 6.46 1.27 9.69l-.29-5.53c-.11-1.84-.19-3.68-.22-5.52a15 15 0 0 0 1.21 4.37c.33.57.57.51.78.55.43.09.68.6 1.25 7.47-.58-2.74 1.38 10.25 1.34 15.77.72 2.48 1.61 5 2.35 7.79.36 1.42.78 2.9 1.18 4.51s.76 3.34 1.1 5.23c0 1-.62.79-1.23.44s-1.18-.8-1.22-.11a23 23 0 0 1 1.68 3.71c.3.8.6 1.67.91 2.6l.47 1.44.54 1.49 1.11 3.12.56 1.6c.19.53.39 1.14.52 1.43.6 1.46 1.22 2.93 1.87 4.35a50.54 50.54 0 0 0 3.13 5.39.24.24 0 0 0-.13 0h.13l-.08-.06c-1.21-1.68-2.28-2.33-2.41-2.21l.73.93a4.09 4.09 0 0 1-.81.65c-4-.85-4.32-1-4.35-1.82-2.1-.24-2.89-.18-3.29 0s-.28.19-.18.32a1.29 1.29 0 0 0 .22.2l.2.2c.27.27.54.51-.12.56a60.47 60.47 0 0 1-7.08-.69 32.44 32.44 0 0 1 3.52-.24c-17.12-1.71-33.16-1.17-48.87-2.59-4.55-2.11 13.78.24 8.54-1.62-22.73-.82-47.12 0-69.06-1.42l4.08.39c-3.16 2.51-16.3-2-27.46-1.25 2.73-.08 3.63-1.32 2.88-1.05-15-1.07-30.79-.65-53.62-.74l2.85-.57c-8.84-1-23.33-1.29-32.9-2-2.87.57-8.34.24-5.05 1.36-29.38-5-56.41-.12-82.49-4.35 3.13.11 7.49-.31 5-.41l-22.34-.22c1.72 1.22 2.9.81 7.55 1.89a78.46 78.46 0 0 1-14.7.66c10.07-.39 0-1.86-4.33-2.66.71.38-.79.72-.43 1.09-11.58-2.49-2 2.25-17.91.27l.87-.57c-6 .09-11.49.68-17.91.27-2.61-1.43 6.36-.39 6.81-1.47-9-.26-17.9 1.87-26 .24 3.85-.23 9.36 0 13.2-.26-8.84-1.9-9.88-1.54-16.48-2l.65.06-15.25-1.27 3.88.57c-11.42 3.07-23-.21-38.31 1.52 14.86-1.62 2.49-1.16 3.68-2.63-3.87-.56-9.76-1.25-8.06-1.61-7.23 1-12-1.4-22.18 0-.44-.5-7.69-.32-6-1.49-9.36 0 2.18.93 1.37 1.51-14.47 1.15-33.8-3.23-54.6-1.68-17.91.31-21.27 1.83-37.88 2.07-5.57-1 4.65-1.61 4.65-1.61a154.94 154.94 0 0 0-24.33-.88c1.74-.36 0-.79-2.6-1.42-6.83-.11-4.63 1.61-13.61.58a33.9 33.9 0 0 1 6.89-1.72c-8.06.17-16 .8-24.39 1-2.18-.93 5.07-1.11 8-1.57-9.38.06-24.29-.07-27.23 1.17l6 .69c-3.41-.05-1.72-1.22.81-1.37 8.06-.78 11.56.87 12 1.37l-5.94.11c6 3.07 23.85.37 35.78 1l-5.05 1.9 12.31-1.3c2.59.63 4.33 1.86-1.58 2 8.53 1.33 7.61-.47 14.92.93.8.21.43.29-.32.35l8.39-.32c-1.66.38 1.34 1.52-3.79 1 15 1.73 24.27-.71 29.87 1.07l-1.26.08c20.86 0 2.07-1.46 17.76-2.69L334 1060l2.1-1.45c2.15.13 6.4.4 5.59 1 8-.76-1.34-.71 3.34-1.53 10.29 1.76 28.55.37 30.79 2.89 3.75-1-9.86-1.25 1.21-1.66 3.06 2.73 12.78 0 22.19 1.55-3 1.24-11.88.21-2.46 1.75 5.78-2.07 18.38 1.17 26.37 1 .44-1.8 17.36-.12 30.76-.24-.87.58 25.13 1.93 37.55 3.05l-.38.29c2.48-1.74 15.3-.92 24.66-.95-.41 1.08-2.11 1.45-7.19 1.76l8.79.32c2.09-.51 4.85-.72 10.55-.71l-2.26 1.29c11.7.37 23.61-.72 38.62.77.9-1.25-11.83-4 4.11-4.26.56.71 1.11 1.92-3.07 2a43.61 43.61 0 0 1 7.62 0l-6.4.92c6.83.78 3.62-.83 9.09-.51-.15 1 4 .86 3.21 1.61-1.4 0-4.76-.59-6.87-.29 6.17.42 13.61 1.29 16.05 2.13-.52-.58.05-1.33 4.58-1.28 11.69.39 4 1.34 10.76 2.12 2.86-.57 10.29.43 10.54-1a11.77 11.77 0 0 1 5.33 1.31c6.08-.41 28.27.94 21.51-.9l-1.55-.17h1c19.89-.67 41.16 2.51 60.87 2.71l-.05.49c11.77-.07 26.15.79 34.59.1 3.47.16 8.16 1.27 6.65 1.79 9 0 10-.48 23 .94-9.06.44 3.08.91-9.28.2 11.64 1 14.24 1.88 26.83 1.14-4.32 1.05 8.7 2 14.25 1.93l-8.12-1.32c6.24.13 11.68.52 17.21.92l-3.08 1.5a186.94 186.94 0 0 0 26.58 1.4h10.75l2.23.09c1.48.07 2.92.14 4.37.26h.54c0-.25 0-.62-.07-.92l-.08-.94c0-.28-.12-.75.06-.65l1.38-.26c.89-.15 1.71-.26 2.5-.34a9.56 9.56 0 0 1 2.13-.05.09.09 0 0 1 .07 0 25.73 25.73 0 0 1 1.12-2.48c.21-.4.44-.8.7-1.18q.19-.29.4-.57l.22-.28.11-.14s.16-.13.24-.19c-.5-1.66-1-3.34-1.42-5.09-1.27-2.35-1.41-2.17-1.08-.93s1.15 3.59 1.91 5.83a1.25 1.25 0 0 0-.33.46l-.21.4-.39.76-.57 1.19c-.29.57-.3.65-.36-.45.06-.46.14-.92.22-1.37l.14-.67.08-.33v-.16a1.3 1.3 0 0 1 .13-.2c-1-3-2-6.05-2.92-9.11-.46-2.23-.85-4.35-1.19-6.26-.61-3.85-.92-6.9-1.34-8.32a65.57 65.57 0 0 0-2-8.34 53.12 53.12 0 0 0-1.95-5.45 41.42 41.42 0 0 1-1.92-5.63 51.52 51.52 0 0 1-1.57-8.94c-.15 1-.55 2.07-1.19 1.42a6.77 6.77 0 0 1-1.14-2.47 43.34 43.34 0 0 1-1.41-6.32 50.6 50.6 0 0 1-.27-6.63 10.75 10.75 0 0 1 .59-3.43c.55-1.19 1.33-.15 1.88 3.25.34 2.59.31 3.86.09 3.77.62 3.47 1.4 8 1.55 3.66l-.75-1.33c-.16-5.41-1.39-20.32-.13-16.89-1.11-8.15-1.24-3.44-1.07 2.67-.11-7-.44-12.43-.69-17.94-.17-2.75-.25-5.52-.32-8.5s-.1-6.17 0-9.78c-.31 2.29-1 4.42-1 2.13.24-10.58.07-12.91-.35-14.4a17.35 17.35 0 0 1-.62-2.51 42.79 42.79 0 0 1-.31-6.79c.55-4.07 1.07-3.33 1.4-3.37s.42-.88.34-8.12c1-8.8 1.65-1.8 2 1.71-.72-13.19 2-24.5 2.67-32v6.94c0-4.15.2-7.53.49-11l-1.48 3.86c.51-4 .79-7.48 1.27-7.36-.45-4.25-2.22 3.05-2.63-5.35 1.07-5.36.83-16.56 2.62-18.28-1.13 8.48-.63 8.05-.09 7.3s1.25-1.82.74 5.39a79.27 79.27 0 0 1 1-10.22c.24-.59.27.61.25 1.72 3-16.11-1.05-7.65.84-24.5.63 2.24 2.14-3.71 2.28-6.47-.83 6.78-1.86 3.07-1.79-3.24 2-10.71 1-11.8 1.79-17.44l-1.16 6.41c-.6-2.3.21-7.69 1-15.25.77-.55-.48 6.9.2 4.25-.19-4.28.84-9 2.07-14a98.13 98.13 0 0 0 2.95-16.39c1.43-5.29 1.73-.26 2.86-4.92 1-13.18 3.46-13.87 4.85-27.67-1.83 3.73-1.69 4.47-1.16-5.34-1 7.53-2 15-3 22.58.2-4.9.46-9.79.7-14.7-1.19 6.77-1.67 14.43-2.52 18.46.16-7 .33-6.28-1.17-3.19 1.63-4.5 2.15-9.14 2.63-14a78.58 78.58 0 0 1 2.49-15.11l2.85.84c4.14-15.83 3.75-28.83 8.36-49.61l-1.75 6.62c-.63-3 2.24-12.94 3-19.79.85.81 2-3.36 3.13-6.14-.78.22 2.9-15.3 1.3-17.55l3-9.11c3.59-16.8.75-19.78 4-36 .18 5.08 2.19-2.18 1 8.84 1-5.43 2-10.27 1.37-10.48 1.19-3.06 1.34-15.29 3.14-20.12 0-2.36-.92-3.29.21-9.37.31-.63.48.11.48.11-.48-.11 1-9.66-1-4.52 5.94-16.22 7.58-46.84 12.42-61.05l2.39-19 2.31-17.89c.2.73.48.1.1 2.14 2.92-14.82-1.5-9.56 1.69-26.43 2.7-8.49-.3 9.15 1 3.8 3.55-2 2.17-20.6 5.28-31.88l-.11 2.8c2.07-8.67 1.12-21.57 2.58-35.93 0 0 .23.72.48.13-.7-10 0-28.65.27-42.53 1.09 4.38.33 6.33 1.79 3.77.11-6.23-2.15 1.71-2-10.7.93-4 1.74-12.94 3.16-14.1-.1 3.91-.14 7.83-.3 11.74 1.05-3 1.09-6.78 1-10.6l-.19-5.66c-.06-1.83-.11-3.56 0-5.11l.77.8c0-4.51-.14-7.9-.33-10.76s-.52-5.19-.79-7.55-.5-4.77-.75-7.79-.45-6.66-.55-11.49l-.53 2c-1.12-5.24-1-7.45-.79-9.68A29 29 0 0 0 917 272a28.63 28.63 0 0 0-.77-6l1.74-3.32c-.83-7-4-24.22-6.33-36.49a55.27 55.27 0 0 1 1.92 6.32c.6 2.45 1.21 5.18 1.8 8s1.08 5.67 1.58 8.4l1.38 7.57c-.32-3.46-.91-9.33-1.67-14.77s-1.73-10.42-2.5-12.14a51.23 51.23 0 0 1 1.53 9q-1-3.1-1.87-6.7c-.6-2.4-1.29-5-1.89-7.68-1.16-5.46-2.55-11.54-3.84-18.31 1.07.4 1.18-1.6.74-5-.22-1.71-.57-3.76-1-6s-1.11-4.75-1.74-7.32l-1-3.92-1.08-4c-.74-2.61-1.44-5.2-2.07-7.63a61.76 61.76 0 0 1-2.63-11.67c-5-11.36-9.9-22.6-15.87-34a178.24 178.24 0 0 0-22.62-33.84c1.15 2.41 1.29 3.26 1 3.16a14.79 14.79 0 0 1-2.24-2.28c-2.11-2.37-4.93-5.52-5.48-3.82-1.11-1.24-2.15-2.21-3-3S849.55 85 849 84.44a12.07 12.07 0 0 1-1.71-2l-1.61-2-1.68-1.86-3.43-3.77c-2.24-2.58-4.74-4.88-7.16-7.3-3.19-3.77 5.39 3.56 5.36 2.65-11.35-9.6-3.91-5.07-11.35-11.64.49 1-.79.59-3-.8-.56-.35-1.17-.75-1.83-1.2s-1.41-.88-2.18-1.39c-1.53-1-3.21-2.17-4.93-3.42l4.6 3.87c.76.65 1.54 1.27 2.27 1.94l2.19 2-3.06-1.93c-1-.57-1.86-1.11-2.68-1.62-1.64-1-3-2-4.22-2.84-2.37-1.79-4.17-3.14-5.94-4.56a64.41 64.41 0 0 0-6.09-4.46 88.9 88.9 0 0 0-10.75-5.23c2.11.68 4.2 1.45 6.31 2.17-1.22-.56-2.69-1.26-4.34-2.07s-3.54-1.59-5.53-2.5l-6.32-2.8c-2.21-.91-4.52-1.77-6.82-2.65l-3.44-1.29c-1.14-.43-2.28-.84-3.42-1.18-2.27-.71-4.48-1.37-6.57-1.95a51.43 51.43 0 0 0-10.53-2c-1.68-.89-3.82-2.42.72-1.25l-4.6-1.45-2.35-.71-2.4-.61c-3.22-.81-6.5-1.6-9.8-2.37s-6.68-1.3-10-1.93l-5-.91-5-.74-9.73-1.46c-3.19-.39-6.29-.79-9.28-1.22l-4.39-.66-4.21-.58c-2.74-.39-5.32-.82-7.73-1.3l2-.51c-2.35-.17-4.42-.09-6.62-.08a30.77 30.77 0 0 1-7.43-.71c.33-.28 2-.57-.21-.81-1.25 0-4.39.06-8 0a85.28 85.28 0 0 1-10.72-.48l5.35-.51a154.16 154.16 0 0 0-16.53-1c-5 0-9.59.06-14 .37l-13.27 1c-4.49.3-9.15.73-14.27.91 0-.55-1.2-1-3.16-1.34a70.57 70.57 0 0 0-7.7-.62c-3-.1-6.35-.22-9.53-.14l-8.62.27.31-.33c-1.79.12-3.55.21-5.27.38l-5.08.55c-3.33.4-6.56.73-9.69 1.23-6.27 1.05-12.23 2-18.06 3.42-11.69 2.53-22.95 5.82-35.61 9.87-2.06.29-4.46.75-7.12 1.33s-5.54 1.51-8.64 2.44-6.34 2.14-9.74 3.38c-1.68.65-3.44 1.22-5.15 2l-5.24 2.26c-3.56 1.46-7.06 3.26-10.6 5L442 38.54c-.88.44-1.73.94-2.6 1.41l-5.16 2.82c-1.73.9-3.38 1.91-5 2.9l-4.85 2.89c-1.62.91-3.1 2-4.61 2.92l-4.4 2.8c3.64-2 .37 1.68-3.19 4.84a47.09 47.09 0 0 0-4.19 3.27c-1.43 1.26-2.79 2.67-4 3.84-2.48 2.37-4.4 4-4.69 2.93.56-.5 1.15-1 1.72-1.44a11.36 11.36 0 0 0-2 .93c-.72.44-1.5 1-2.32 1.6-1.65 1.24-3.47 2.79-5.38 4.51s-3.72 3.77-5.6 5.74l-1.5 1.5c-.46.5-.89 1-1.33 1.52l-2.58 3 .9 3q-.95.81-1.91 1.68c-.62.59-1.22 1.22-1.84 1.85q-1.85 1.9-3.72 4c-1.28 1.37-2.44 2.87-3.63 4.4s-2.38 3.1-3.56 4.69-2.24 3.3-3.35 5-2.25 3.36-3.24 5.12l-3 5.24c-.49.87-1 1.73-1.47 2.61l-1.36 2.63c-7.33 13.94-12.42 27.12-16.7 33.11-.9 3-1.94 6.43-3.06 9.78s-2 6.75-2.76 9.79l-1.23-.77c-3 8.23-5 14.47-7 21.25s-3.82 14.13-6.11 24.64v-4.5a40.47 40.47 0 0 0-1 13.72c.2 3.83.62 7.56-.44 13-.91 1-1.82 1.93-2.7 2.9-3.78 20.73-8.67 41.63-9.12 62.51-.26-.37-.82-1.06-.49-4.45-.61 4.92-2.06 14.39-2.83 22.24s-1 14.05.63 12.4c-1.94.07-2.16 21.56-2.2 32.91l-1.25-1.87c1 9.67 1.47 10 1 23.35-.41 3.14-1.31 2.68-.65-1.48-1.49 10.46.73 8.28-.88 21l-.56-4.81c-.85 10.8-.29 10 .34 16 .11 6.83-1.67 20.48-3 22 .67 1.5 1.32 7.49.56 13.83-.53.83-.68-1.51-.75-2.68-2.08 18-.08 27-2.26 39.3-.48.23-.76 1-1 2 1-14.34 1.78-25.89 1.81-24.8-1.28-.08-2.25 11.49-3.43 2.16.38 9.37 1.44 25.4.07 36.65a7.4 7.4 0 0 1-.54 1.46l-.06-1.18a48.85 48.85 0 0 0-.29 7.15c-.46 3.59-.78 5.86-1 9.32-1.16 1.26-1.53 13.23-2 19 1.44-.37.63 7.16 2.33.18-.17.91-.08-1.1.15-4.94 0-.87.08-1.89 0-2.47 0 .11.06.25.09.4l1-14.35a52.64 52.64 0 0 1-.61 15.74c.69 3 1.35 6.36 1.64 8.23-2.54 7.75-4.88 22.87-6.26 24.88-.71 17.66-3.26 41.45-2 52.74-.24 5-1.42 5.64-2 7.46.07-2.91.51-6.32.32-7.91-.24 5-1 12.39-1.58 18.85s-1.09 11.95-.34 13.26c-2.58 12.41-.7-7.27-2.8 10l-.23-2.4c-.48 2.09-.9 4.13-1.31 6.13s-.83 4-1.18 5.89c-.71 3.86-1.28 7.6-1.75 11.26s-.81 7.27-1.25 10.84L268.2 716c-.8 7.15-1.56 14.43-3.12 22.15-.74 3.87-1.6 7.85-2.64 12q-.78 3.12-1.69 6.36c-.65 2.16-1.37 4.36-2.14 6.61.82-2.5 1.23-3.76 1.65-4.21q-2.15 7.82-4.12 15.79l-1.95 8-2.06 8-4 16.1c-.64 2.7-1.36 5.38-2.09 8.05l-2.16 8c-1.46 5.35-2.85 10.72-4.41 16s-3.21 10.56-4.87 15.79l-2.52 7.81c-.84 2.59-1.81 5.14-2.73 7.68q-2.81 7.63-5.79 15.06a88.74 88.74 0 0 0-3.77 11.58c-.61 2.72-.86 4.94-1.69 8.57l-2.31 2c-.9 4.15-1.71 8.35-2.68 12.49-2.63 8.6-6.29 15.52-10 23s-7.9 15.46-11.11 26.42l2-2.25-6.2 14.54c-2.1 4.83-3.83 8.53-4.09 7.67a11.66 11.66 0 0 1-1.88 5.58l-.82-.1c-1.11 3.16-2.38 6.25-3.58 9.37l-3.65 9.36c-3.56 6.91-4 6-4.79 6s-1.78.76-6.95 10.82c-3.48 7.65-8.66 22.47-6.78 19.88 1.56-3 4.32-7.55 5.14-7.42l-3.08 7.09c1.45 2.3.89 8.75 10.86-7.54l4.65-12.49c1-1.11 2-2.21 2.9-3.34-1.59 3.37-3.27 6.69-4.9 10 3.78-5.2 4.77-9.2 6.06-13.56a14.75 14.75 0 0 0 3.49-4.5l3.52-12.73c1.5-1-.84 6 3.33-1.66 1.64-6-4.31 4.45-.7-5 3.52-5.36 3.56-3.32 5.74-10.5 1-.72.68.88-.27 3.69 2-6.37 6.84-16.17 7-19.81 3.73-5.6 8.22-20.8 10-19.37.14-1.07.9-3.91 1.78-7.24s2-7.1 3-10c-.77 5.67 1.31.37 3.79-5.89 1.24-3.13 2.57-6.49 3.7-8.84s2-3.72 2.38-2.78c.28-4.29 2.54-11.38 5.2-19.17l2-5.95 1.9-6.05c1.23-4 2.37-7.94 3.2-11.5a12.69 12.69 0 0 1-.74 3.65c2.76-7.73 4.27-9.75 6.26-14.66-1.56-1.6 1.77-14 2.64-20.87 4.77-9.07.41 6.5 3.07 4-.83 0 .07-4.28.9-8.22s1.42-7.55.31-6.09c3.22-7.08 2.35-6.22 5-9.6-2-2 1.59-7 1.79-13.56 3.95-10.47 2.94-2.19 5.27-14.23 2.28-5.43.4 5.33.4 5.33zM298 513.37l-.32 6zm1.58-24.3c-.25 3-.5 6.64-.74 10.54-.54.82-1-.13-.79-2.58.25 1.35.95-4.36 1.55-7.96zm-13.22 50.69c.08-3.85.45-5.12.78-5.62-.11 1.81-.22 3.93-.33 6.72 0 .12.09.35.14.47a4.05 4.05 0 0 1-.57-1.58z"/><path class="cls-2" d="M287.71 546.79v1.59c.19-.77.34-1.51.49-2.27l-.34-1.39zM640.66 1071l.51.05a6.19 6.19 0 0 1-1.07-.24 4.77 4.77 0 0 1 .56.19zM350.9 160.31l-.34-.11-.51 2.04.85-1.93zM506.89 1061a6 6 0 0 0-1.75-.43 7.73 7.73 0 0 0 1.75.43zm-57.89-2.43l-8.17-.8c3.57.41 6.17.64 8.17.8zm-44.43-2.33a2 2 0 0 0-.89.57h.09zm433.71-232.38c.07-.6.13-1.19.16-1.72.27-4.04 0-1.3-.16 1.72zm-.76 210.94c-.64-2.17-1.26-4.32-1.82-6.62.54 3.75 1.02 6.66 1.82 6.62zm39.27-443.21l.25-1.43zm-42.47 426.82a63.59 63.59 0 0 0 1.39 9.78c-.38-3.09-.71-6.72-1.39-9.78zm-622.59 30.36l-2.14-.13c0 .09-.1.17-.26.22zm-2.4.09l-2.39.08a8.72 8.72 0 0 0 2.39-.08zm-7.41.26l5-.18a18.82 18.82 0 0 0-5 .18zm68.7 2.35l.69-.49c-.37.1-.62.26-.69.49zm17.9.53c-4.26-.27-10.67-1.46-16.64-1.35l-.57.39c2.83-.71 13.13 1.63 17.21.96zm74.48 8.91l-15-.94c2.6.64 6 1.49-.8 1.37 18.87 2.3-3.83-1.34 15.8-.43zm46.49 2.47c-8.07 0 .07.79-.37 1.08 5.12-.31 6.37-.39.37-1.08zm336.02 13.22l-.87 1.24c6.22.1.08-.49.87-1.24zm64.54-3.47l-6-1.12-2.94 1.02 8.94.1zm39.19 7.76l-1.26.42-.16.06h-.08v.16l.27 1.3.27 1.31.14.66v.24s.09 0 0-.09l-.1-.5-.21-1-.41-2v-.1h.19l.25-.08.49-.16c.63-.2 1.24-.39 1.79-.54a14.13 14.13 0 0 1 2.88-.59q.52-.58 1-1.17l-1 1.17a9 9 0 0 0-1.83.31c-.65.15-1.4.36-2.23.6zm50.5-551.81l-1.85 1.61c-.37 4.2 1.24 5.31 1.85-1.61zM919 285.55c.77-2.69.86-9.63-.11-13.84.2 5.52-.08 11.04.11 13.84zM371.78 97.92l2.73-4.28-2.79 3.87c-.9 1.31-1.75 2.65-2.63 4z"/><path class="cls-3" d="M474.18 407.07C616.48 405.18 516 606.19 591 605.65c39.8-.29 11.08-200.47 169.55-170-55.55-11.75-101-145.33-135.6-144.49-28.51.69-58.72 70.95-150.77 115.91z"/><path class="cls-4" d="M331.6 232.14c25 99 86.53-131.72 7.62-66.36-13.61 11.22-13.03 44.91-7.62 66.36zm533.15 70.46c43 46 79.39-44.65 43.87-83.73-36.04-39.64-43.62 90.67-43.87 83.73z"/><path class="cls-5" d="M334.7 226.63c23.34 92.41 80.77-123 7.11-61.95-12.7 10.52-12.17 41.93-7.11 61.95zm535.63 68.44c34.73 37.15 64.17-36.09 35.46-67.68-29.13-32.04-35.23 73.29-35.46 67.68z"/><path class="cls-6" d="M579.52 608.42c65.68-2.23 65.68-196.06 101.57-246.31 18.91-26.47-36.81-79-57.43-79-21.54 0-73 42.36-64.61 64.61C580.59 405.18 533 610 579.52 608.42z"/></g></svg>