<?xml version="1.0" encoding="UTF-8"?><svg id="Layer_1" xmlns="http://www.w3.org/2000/svg" viewBox="0 0 1000 1000"><defs><style>.cls-1{fill:none;}.cls-2{fill:#fff;}.cls-3{opacity:.5;}</style></defs><g class="cls-3"><path class="cls-2" d="m360.57,363.66c5.48-14.5,9.2-32.78-.34-46.52-8.95-12.9-24.65-18.72-39.8-20.18-16.49-1.59-33.72.51-49.14,6.73-12.31,4.97-26.16,12.63-31.83,25.38-6.88,15.46,3.71,29.94,15.73,39.02,5.65-4.18,11.29-8.36,16.94-12.54-27.62-3.92-58.86-3.15-81.53,15.23-17.03,13.81-23.55,35.98-26.27,56.89-3.42,26.28-1.62,53.14.17,79.48,1.97,28.92,4.63,57.85,4.6,86.86-.03,29.29-2.04,57.87-15.28,83.55-4.91,9.53,13.77,10.87,18.45,10.5,2.74-.22-3.29.23-.54.04.86-.06,1.73-.12,2.59-.18,2.03-.14,4.06-.27,6.09-.38,3.66-.21,7.33-.39,11-.53,7.78-.3,15.56-.46,23.35-.49,15.81-.07,31.61.35,47.4,1.11,8.12.39,16.23.87,24.34,1.42,2.09.14,4.17.29,6.26.44.97.07,1.93.14,2.9.21,1.86.14,3.3.2.36.02,4.21.25,8.42.67,12.62,1.02,16.7,1.42,33.38,3.07,50.04,4.86,33.91,3.63,67.75,7.78,101.63,11.65,33.57,3.83,67.18,7.35,100.89,9.74,29.84,2.12,59.83,3.3,89.74,2.06,27.97-1.16,55.88-4.28,82.94-11.66,22.95-6.26,45-16.19,63.64-31.11,17.33-13.86,30.56-32.64,38.3-53.4,9.78-26.21,11.94-54.77,10.42-82.51-2.16-39.34-11.22-78.24-22.4-115.9-3.36-11.33-6.98-22.58-10.79-33.77-1.73-5.1-10.19-5.99-14.46-6.27-9.51-.61-19.6-1.48-30.05-2.76-8.4-1.03-16.79-2.28-25.1-3.87-3.62-.69-7.21-1.47-10.8-2.28,3.24.74-1.69-.43-2.49-.64-1.91-.5-3.81-1.02-5.7-1.57-5.5-1.6-10.93-3.45-16.24-5.62-.53-.22-1.06-.45-1.6-.66-2.67-1.07,2,.97.34.16-1.09-.54-2.21-1.01-3.31-1.55-2.17-1.06-4.31-2.18-6.41-3.37-1.84-1.05-3.66-2.15-5.43-3.31-.85-.55-1.68-1.12-2.51-1.69-.36-.25-.71-.52-1.07-.76-1.97-1.3,2.07,1.68.27.2-5.64-4.61-10.97-9.35-16-14.63-10.45-10.96-20.57-21.73-33.84-29.4-21.94-12.69-48.01-17.55-72.91-20.17-26.45-2.78-53.12-4.05-79.65-5.97-27.91-2.02-55.82-4.05-83.73-6.08-4.67-.34-15.22,2.17-15,8.53.99,28.03-8.29,52.82-22.18,76.86-13.22,22.89-28.97,44.48-38.46,69.34-5.21,13.64-8.54,28.15-9.4,42.74-.95,16.17,2.21,31.7,3.89,47.66,2.27,21.58,8.61,42.98,19.98,61.55,21.61,35.28,58.24,58.2,97.68,68.76,42.6,11.41,87.88,10.89,130.45-.37,36.53-9.67,72.63-28.9,94.61-60.47,9.81-14.09,15.67-30.76,16.94-47.89,1.71-23.06-5.75-45.5-14.31-66.57-18.35-45.17-50.23-87.77-99.51-100.59-43.27-11.26-87.97-.56-127.21,18.88-34.61,17.15-66.59,41.41-93.03,69.53-9.76,10.37-19.22,21.58-26.31,33.99-3.82,6.69-8.9,16.68-4.83,24.32,2.94,5.5,10,8.25,15.86,8.83s15.56.38,18.45-5.96c2.78-6.08-5.89-10.04-10.48-10.5-.17-.02-1.01-.03-1.08-.15-.35-.65,3.25.84,2.51.59-1.94-.65,2.88,1.4,2,.91-1.06-.59-1.65-1.44,1.39,1.12-1.43-1.21-.57-.45.41.85-.33-.43-.63-1.07-.74-1.6.77,3.8.23-.35.31-1.8s.94-2.86-.05-.27c.33-.86.51-1.79.82-2.66,1.57-4.47,3.94-8.65,6.45-12.65,1.52-2.41,3.16-4.74,4.8-7.07,1.57-2.23-1.11,1.4.26-.36.51-.66,1.01-1.34,1.53-2,1.07-1.38,2.16-2.74,3.26-4.1,10.15-12.42,21.59-23.79,33.65-34.35,6.91-6.05,14.09-11.76,21.42-17.3,2.14-1.62-1.46,1.06-.07.05.44-.32.87-.64,1.31-.95.99-.72,1.98-1.43,2.98-2.13,2-1.42,4.02-2.82,6.06-4.19,3.99-2.7,8.04-5.3,12.15-7.82,8.39-5.13,17.02-9.86,25.9-14.08,1.99-.95,4.02-1.84,6.02-2.77-3.33,1.55-.09.05.75-.31,1.26-.54,2.53-1.06,3.81-1.57,4.56-1.83,9.17-3.52,13.84-5.03,2.06-.67,4.13-1.3,6.2-1.9,1.16-.33,2.33-.66,3.5-.97.66-.18,5-1.26,2.49-.66s1.24-.27,1.72-.38c1.17-.26,2.34-.5,3.51-.73,2.34-.46,4.68-.86,7.03-1.22,2.21-.33,4.42-.61,6.64-.84.52-.05,1.04-.09,1.56-.15,2.02-.24,1.12.79-1.26.08.88.27,2.57-.17,3.51-.21,4.53-.22,9.05-.15,13.58.06,3.98.18-3.14-.39.25.02,1.02.12,2.05.21,3.07.33,2.43.29,4.85.66,7.26,1.11,1.02.19,2.02.41,3.04.61,3.61.72-2.07-.61.19.03s4.51,1.22,6.75,1.95,4.47,1.53,6.67,2.41c.98.39,1.95.82,2.93,1.22-3.64-1.48.44.24,1.33.68,4.31,2.11,8.48,4.5,12.47,7.15,1.06.7,2.09,1.44,3.14,2.16,1.52,1.03-1.33-1.09,1.1.83,2.07,1.63,4.12,3.28,6.11,5.02,4.17,3.66,8.1,7.6,11.79,11.74,8.01,9,13.87,17.6,20.11,28.68,7.17,12.74,13.05,26.18,18.02,39.92,2.24,6.19,4.41,12.44,6.07,18.81.17.66.34,1.32.5,1.98-.09-.35-.36-1.61.01.1.23,1.04.45,2.08.65,3.13.44,2.3.82,4.6,1.11,6.92,1.08,8.43,1.14,17-.02,25.43-.28,2.06-.67,4.1-1.06,6.15-.09.45-.19.9-.29,1.34.06-.28.47-1.87.06-.27-.28,1.1-.57,2.2-.89,3.29-1.1,3.79-2.45,7.5-4.03,11.11-1.58,3.59-3.39,7.09-5.41,10.45-.98,1.64-2.02,3.25-3.09,4.84-.57.84-1.17,1.67-1.76,2.5-.76,1.06,1.05-1.29-.74.95-5.16,6.44-10.88,12.34-17.21,17.63-1.46,1.22-2.95,2.41-4.46,3.57-.38.29-.77.57-1.15.87-1.95,1.51,1.64-1.16.31-.23-.99.69-1.97,1.4-2.97,2.09-3.55,2.43-7.2,4.7-10.94,6.82-3.83,2.17-7.74,4.19-11.72,6.06-1.04.49-2.09.95-3.13,1.43-1.95.9,2.69-1.11-.49.2-2.15.89-4.3,1.77-6.47,2.6-4.41,1.68-8.88,3.2-13.39,4.56-2.03.61-4.07,1.2-6.12,1.75-1.16.31-2.32.62-3.48.91-.52.13-1.04.25-1.56.39-1.7.45,3.27-.74.85-.21-9.41,2.07-18.87,3.73-28.46,4.71-1.22.13-2.45.24-3.68.35-3.75.34,1.97-.1-.11.01-2.47.13-4.93.3-7.4.39-4.81.18-9.62.21-14.43.09-2.34-.06-4.67-.15-7-.28-1.1-.06-2.19-.14-3.29-.21-2.99-.18,3.16.29,1.11.09-.68-.07-1.37-.12-2.05-.18-4.91-.45-9.81-1.06-14.68-1.84-4.71-.75-9.38-1.69-14.04-2.74-3.35-.75,2.94.77-.37-.1-1.18-.31-2.36-.61-3.54-.93-2.34-.64-4.68-1.32-6.99-2.05-4.48-1.4-8.9-2.97-13.26-4.72-1.11-.45-2.22-.91-3.33-1.37-2.94-1.23.93.47-.62-.27-2.15-1.03-4.33-2.01-6.46-3.09-4.24-2.14-8.38-4.46-12.41-6.97-1.78-1.11-3.54-2.26-5.27-3.45-.86-.59-1.71-1.21-2.58-1.8-2.17-1.47,1.47,1.12.13.1-.52-.39-1.05-.79-1.57-1.18-7.38-5.67-14.21-12.07-20.27-19.13-1.46-1.71-2.87-3.46-4.26-5.23-.33-.42-.65-.84-.96-1.27,1.21,1.62.34.45.09.11-.78-1.09-1.55-2.18-2.3-3.29-2.65-3.93-5.09-8.01-7.29-12.21-4.69-8.94-8.32-18.43-10.91-28.19-1.06-3.99-1.99-8.52-2.8-13.82-.93-6.08-1.05-12.3-2.21-18.32-2.96-15.36-3.79-31.16-1.7-46.69,7.03-52.27,49.99-88.99,64.04-138.62,3.74-13.23,5.54-26.77,5.06-40.52l-15,8.53c49.17,3.57,98.38,6.79,147.52,10.69-1.58-.13.79.07.9.08,1.18.1,2.36.21,3.53.32,2.04.2,4.09.41,6.13.64,4,.45,7.99.97,11.98,1.58,3.42.52,6.83,1.1,10.22,1.77,1.58.31,3.15.63,4.72.98.67.15,1.35.31,2.02.45,3.43.76-2.98-.84.32.08,5.32,1.48,10.61,2.95,15.78,4.92,1.12.42,2.22.88,3.33,1.32,3.31,1.32-1.84-.96.79.34,2.03,1,4.06,1.96,6.05,3.05,1.74.96,3.46,1.97,5.13,3.04.71.46,1.42.92,2.12,1.4.43.29.85.6,1.28.89,2.07,1.37-1.27-.99-.37-.29,2.84,2.19,5.59,4.46,8.21,6.9,4.97,4.63,9.5,9.69,14.17,14.61,11.73,12.35,25.07,22.52,40.69,29.47,34.86,15.51,74.05,19.33,111.7,21.74-4.82-2.09-9.64-4.18-14.46-6.27,13.42,39.5,24.84,80.01,29.98,121.51,1.95,15.75,2.96,31.66,2.45,47.53-.23,6.99-.76,13.98-1.66,20.92-.42,3.19-.91,6.37-1.49,9.54-.27,1.47-.56,2.95-.87,4.41-.18.84-.37,1.68-.55,2.53-.23,1.01.1-.39.12-.49-.11.47-.23.94-.35,1.41-2.84,11.1-6.74,21.88-12.22,31.97-1.26,2.33-2.61,4.62-4.03,6.86-.73,1.15-1.48,2.28-2.24,3.41-.54.79-2.9,4.01-1.2,1.76-3.09,4.1-6.41,8-10,11.66-3.65,3.71-7.55,7.17-11.65,10.37-.49.38-.98.74-1.46,1.12-1.73,1.36.95-.67.36-.26-1.19.82-2.35,1.67-3.55,2.48-2.15,1.45-4.35,2.84-6.59,4.17-4.66,2.77-9.49,5.22-14.41,7.5-3.22,1.49,2.16-.87-1.14.5-1.32.55-2.63,1.09-3.96,1.62-2.59,1.02-5.2,1.98-7.83,2.88-5.54,1.9-11.16,3.56-16.83,5-.68.17-1.37.34-2.05.51-2.34.6,3.19-.72.82-.2-1.51.33-3.02.69-4.54,1.02-3.08.66-6.18,1.27-9.28,1.83-6.16,1.11-12.36,2.02-18.58,2.78-3.34.4-6.68.76-10.02,1.08-1.57.15-3.14.28-4.7.42-.63.05-3.52.27-.77.07s-.51.03-1.19.08c-28.95,2.02-58.05,1.41-87.01-.24-7.81-.45-15.65-.82-23.43-1.57,2.18.21,2.37.18.27.02-.93-.07-1.87-.15-2.8-.22-2.03-.16-4.06-.33-6.09-.5-3.93-.33-7.86-.68-11.78-1.04-16.35-1.49-32.67-3.2-48.99-5.01-33.33-3.69-66.61-7.79-99.94-11.52-33.87-3.79-67.79-7.17-101.8-9.39-31.25-2.04-62.63-3.05-93.94-1.72-8.31.35-16.61.92-24.9,1.58,6.15,3.5,12.3,7,18.45,10.5,11.61-22.52,15.12-48.68,16.08-73.7,1.07-27.96-1.08-55.95-3.09-83.82-1.94-26.83-4.23-53.85-2.83-80.76.3-5.67.77-11.33,1.53-16.96.36-2.66.78-5.31,1.28-7.95.24-1.28.51-2.56.79-3.83.54-2.51-.46,1.75.17-.72.19-.73.37-1.47.57-2.2,1.29-4.77,2.91-9.46,4.98-13.95.96-2.07,2.01-4.11,3.18-6.07.51-.87,1.05-1.72,1.6-2.57.37-.56.75-1.1,1.13-1.65,1.3-1.9-1.39,1.69.07-.09,1.68-2.04,3.39-4.02,5.31-5.83.88-.83,1.81-1.6,2.73-2.39,2.55-2.22-1.29.69,1.13-.87,2.33-1.5,4.72-2.77,7.15-4.09,1.8-.98-.93.39-1.09.46.78-.31,1.56-.65,2.35-.94,1.27-.48,2.56-.92,3.86-1.32.73-.22,1.48-.4,2.2-.63,2.72-.87-3.39.66-.54.12,1.6-.31,3.18-.65,4.79-.9s3.38-.41,5.07-.63c1.15-.15,2.12-.74-1.34.09.98-.24,2.17-.13,3.18-.16,3.72-.13,7.44-.07,11.16.13.3.02,3.69.29,1.11.06s1.82.19,2.25.24c2.22.24,4.43.52,6.65.84,5.11.73,11.59.28,15.77-3.06,2.79-2.23,4.89-6.67,1.17-9.48-2.88-2.18-5.65-4.52-8.1-7.19-.52-.56-.99-1.15-1.5-1.72-1.72-1.9.35.71-.34-.4-.74-1.2-1.52-2.34-2.15-3.61-.54-1.08-.91-2.2-1.37-3.31-.29-.7-.44-2.51-.03.17-.09-.61-.26-1.22-.31-1.84-.08-1.06-.16-2.09-.11-3.16.03-.68.63-3.9.25-2.37-.36,1.45.51-1.4.78-2.04.45-1.06,1.01-2.05,1.57-3.05.26-.48.65-.9.9-1.38.11-.22-1.54,1.76-.21.31.9-.98,1.74-2.01,2.69-2.95.87-.85,1.78-1.66,2.72-2.44.47-.38,1.07-.73,1.48-1.16-.05.05-2.24,1.49-.1.13,2.36-1.5,4.74-2.93,7.25-4.17.62-.31,1.29-.56,1.9-.9.49-.27-2.99,1.2-.53.25,1.44-.56,2.87-1.13,4.33-1.64,1.38-.48,2.78-.92,4.19-1.33.71-.21,1.42-.39,2.14-.59,3.21-.9-2.38.44-.49.11,3.15-.54,6.25-1.18,9.43-1.57.7-.09,3.61-.31.54-.09s-.21.01.53-.01c1.57-.06,3.13-.1,4.7-.08.93.01,5.85.28,2.62.06s-.28-.01.42.08c.79.11,1.59.2,2.38.32,1.32.21,2.73.71,4.05.79-4.05-.23-2.51-.69-1.07-.2.81.27,1.63.49,2.44.78.53.19,1.05.4,1.58.59,2.74.96-1.86-1.05-.5-.23,1.15.69,2.4,1.27,3.56,1.95.53.31,1.01.78,1.56,1.03-1.19-.54-1.97-1.63-.46-.28.98.88,1.96,1.74,2.86,2.71.47.52.88,1.1,1.36,1.61-1.32-1.39-.67-1.04.02.13.79,1.33,1.54,2.66,2.14,4.09.29.69.56,1.4.79,2.11.15.45.77,2.69.45,1.38-.33-1.33.19,1.11.26,1.53.15.94.25,1.88.33,2.83.29,3.79.02,7.61-.6,11.35-.17,1.06-.38,2.12-.61,3.17.33-1.51-.49,1.85-.62,2.3-.73,2.56-1.6,5.08-2.55,7.57-4.57,12.1,25.02,14.89,28.93,4.54h0Z"/></g><rect class="cls-1" x="137" y="198" width="542" height="542"/></svg>