<?xml version="1.0" encoding="UTF-8"?><svg id="Layer_1" xmlns="http://www.w3.org/2000/svg" viewBox="0 0 1000 1000"><defs><style>.cls-1{fill:#fff;}</style></defs><path class="cls-1" d="m126.51,156.87c50.72,3.57,101.45,7.13,152.17,10.7l-10.48-5.36c-29.17,41.48-68.96,74.61-115.18,95.49-1.33.6-2.72,1.93-1.51,3.36,36.16,42.83,79.15,87.4,137.72,94.35,31.35,3.72,62.95-3.26,89.28-20.74,24.9-16.52,45.49-39.01,63.84-62.39,18.69-23.8,34.82-49.6,48.07-76.81,6.62-13.6,12.58-27.53,17.76-41.75,4.85-13.33,9.58-26.99,12.02-41,2.14-12.23,2.72-25.49-1.92-37.24-5.02-12.71-15.37-20.94-28.34-24.78-30.58-9.04-64.68.52-94.71,7.68-54.19,12.92-110.47,34.26-144.84,80.53-32.48,43.73-40.05,99.88-39.54,152.94.26,27.87,2.68,55.68,5.57,83.39,2.79,26.64,6.86,56.78,27.41,76.15,21.44,20.21,53.64,23.14,81.67,21.18s57.48-10.97,85.09-20.33c57.46-19.49,112.94-44.71,165.3-75.37,51.9-30.39,100.84-65.96,145.61-106.12,11.03-9.89,21.8-20.08,32.32-30.51h-28.93c37.29,27.47,59.82,69.27,67.26,114.56,7.62,46.38.54,95.14-18.59,137.97-20.75,46.47-57.59,83.76-100.94,109.75-23.31,13.98-48.38,24.85-74.34,32.82-12.64,3.88-25.42,7.12-38.25,9.66-13.61,2.69-27.16,4.7-39.6,5.97-6.88.7-13.78,1.25-20.68,1.66-8.09.48-10.74.57-19.05.7-6.9.1-13.8.07-20.7-.09-1.53-.04-3.06-.08-4.59-.13-.33-.01-3.49-.13-1.83-.06,1.48.06-1.03-.05-1.06-.05-3.56-.17-7.11-.35-10.66-.58-33.17-2.13-69.36-9.43-100.86,5.05-21.21,9.75-39.19,37.4-24.63,59.6,7.62,11.62,21.96,17.3,34.71,21.12s25.47,6.45,38.39,8.42c53.45,8.17,108.97,3.7,160.53-12.55,48.64-15.33,94.1-41.02,131.62-75.64,38.82-35.82,70.29-82.5,84.1-133.85,7.95-29.56,8.15-60.69-4.03-89.12-10.52-24.56-27.97-45.2-50.45-59.63-51.44-33.02-120.71-25.06-173.12,1.15-26.23,13.12-50.26,30.81-71.54,50.93s-39.62,42.82-57.89,65.46c-36.29,44.99-72.63,92.89-122.92,123.17-26.11,15.72-55.14,26.18-85.32,30.43-13.93,1.96-27.19,2.25-40.58,1.21s-28.28-3.17-40.73-10.42c-22.56-13.15-31.25-40.91-31.62-65.6s7.3-50.29,19.55-71.96c25.44-45.01,69.47-76.57,115.01-99.01,55.3-27.25,116.38-42.7,176.47-55.2,33.93-7.06,68.11-12.9,102.36-18.16,17.3-2.66,34.62-5.18,51.95-7.63,8.5-1.2,17.01-2.39,25.51-3.58,3.99-.56,7.99-1.2,11.99-1.67-.67.08,3.25.03,2.55-.22-.28-.1-.84.04-1.14.01-1.74-.14-2.24-.87-.59.22,12.08,8.02,15.76,25.18,20.75,38.02,6.28,16.16,12.5,32.34,18.55,48.59,12.04,32.34,23.44,64.93,33.39,97.98,19.59,65.07,33.77,132.47,34.06,200.67.14,32.7-3.06,65.35-9.96,97.33-.61,2.84,8.28,3.87,9.22,3.98,5.35.66,11.17.6,16.39-.9,24.72-7.12,49.43-14.25,74.15-21.37,12.04-3.47,24.08-6.94,36.12-10.41,10.44-3.01,21.33-5.41,31.16-10.16,12.63-6.1,31.07-18.7,31.48-34.56.21-7.97-5.97-14.41-12.9-17.39-12.07-5.19-26.75-4.68-39.45-2.5-71.57,12.32-102.22,85.11-140.69,137.68-20.63,28.19-45.85,51.23-77.36,66.69-14.73,7.23-32.07,13.28-46.93,16.47-4.25.91-8.53,1.7-12.82,2.37-1.81.28-3.62.54-5.44.78-4.45.61,2.6-.22-1.87.22-1.37.13-2.73.28-4.1.41-1.82.17-3.65.31-5.47.43-1.37.09-2.74.16-4.11.24-.55.03-2.95.09-.13.01-4.57.12-9.14.13-13.72.03-2.98-.07-.74-.02-.12,0-1.14-.05-2.28-.11-3.42-.18-2.05-.12-4.1-.28-6.15-.46-2.27-.2-4.55-.42-6.81-.7.61.08,2.27.32-.49-.08-1.35-.2-2.71-.39-4.06-.6-8.81-1.37-15.26-2.8-23.62-5.21-16.71-4.83-32.68-11.94-47.47-21.09-33.75-20.9-59.6-52.05-89.31-77.9-15.06-13.11-31.36-25.22-49.44-33.85s-38.13-13.58-58.25-15.43c-40.32-3.71-83.41,4.41-117.45,27.02-7.86,5.22-15.22,11.02-22,17.58-3.66,3.54,9.28,5.26,10.48,5.36,5.13.42,14.31.96,18.45-3.04,12.98-12.54,28.12-22.31,44.8-29.2,7.74-3.2,16.37-5.8,24.06-7.33,1.92-.38,3.85-.73,5.78-1.04,1.21-.19,2.42-.37,3.63-.54,2.73-.38-3.18.28,1.52-.18,1.95-.19,3.89-.37,5.85-.5.98-.07,1.95-.12,2.93-.17-2.9.14,1.29-.02,1.88-.02,1.22-.01,2.44-.01,3.67,0,.66,0,3.84.08,1.14-.01,1.95.07,3.9.21,5.85.37,1.22.1,2.43.22,3.64.35,2.42.25-1.63-.24.78.09,2.66.36,5.31.79,7.94,1.29,7.17,1.37,15.35,3.77,22.63,6.79,17.57,7.29,33.32,18.1,47.86,30.24,29.96,25.03,55.33,55.35,87.47,77.79,28.68,20.02,62.18,32.23,96.79,36.87,70.78,9.51,147.57-7.27,201.34-56.17,24.78-22.54,42.4-51.55,60.62-79.33s35.86-54.76,62.29-73.27c5.82-4.08,12.13-7.55,18.67-10.34,3.07-1.31,6.13-2.35,9.37-3.27s6.89-1.94,9.28-1.91c-.68,0-1.32.09-2.01.04-1.49-.1-3.16-1.47-.92.02,1.34.89,2.58,1.59,3.74,2.75,2.35,2.36,3.81,5.04,4.04,8.39.51,7.21-4.16,13.54-8.91,18.46-13.76,14.25-32.28,17.92-50.62,23.2-23.45,6.76-46.9,13.52-70.35,20.27-11.41,3.29-22.82,6.58-34.22,9.86l25.61,3.08c14.33-66.34,11.92-134.75-.28-201.22-12.46-67.93-34.39-133.75-58.53-198.31-6.07-16.23-12.3-32.39-18.58-48.54-4.9-12.58-8.78-29.41-20.74-37.29-15.79-10.4-38.21-5.66-55.65-3.23s-34.65,4.85-51.97,7.38c-69.22,10.13-138.37,21.95-205.89,40.55-54.96,15.13-109.41,34.53-156.72,67.03-41.32,28.38-77.03,67.45-88.57,117.48-5.78,25.05-4.98,52.29,7.48,75.29,15.22,28.13,46.1,35.88,75.71,39.18,64.82,7.22,131.88-8.63,185.11-46.56,47.86-34.09,82.63-82.48,119.5-127.39,37-45.08,78.97-88.02,134.67-109.14,6.21-2.36,12.59-4.34,19.03-5.98,2.96-.76,5.79-1.37,8.89-1.92,1.49-.27,2.99-.52,4.49-.74.75-.11,1.5-.22,2.25-.32,1.18-.16-.32,0,1.66-.19,1.5-.14,3-.28,4.5-.39,1-.07,2-.13,3-.18-.32.02-2.01.06-.24.02,1.5-.03,3-.05,4.5-.03.35,0,3.45.07,1.75.01-1.38-.05,1.49.09,1.75.1,3.14.2,6.08.5,7.63.76,3.01.51,6.08,1.01,8.85,1.7,25.98,6.43,48.43,22.35,64.59,43.52,16.79,22,25.78,48.81,25.34,76.5-.51,31.91-11.88,63.16-26.81,91.02-23.66,44.17-59,82.17-100.57,110.04-41.4,27.76-88.99,46.38-137.48,52.94-.68.09-1.37.18-2.05.27.29-.04,1.76-.21.16-.02s-3.2.37-4.79.53c-3.2.33-6.4.61-9.61.84-1.37.1-2.75.19-4.12.27-.92.05-1.83.09-2.75.15-.18.01-2.46.12-.76.04s-.58.02-.76.03c-.92.03-1.83.06-2.75.08-1.61.04-3.21.06-4.82.07-2.98.02-5.97,0-8.95-.06-.92-.02-1.83-.05-2.75-.07-.18,0-2.46-.09-.76-.02s-.58-.03-.76-.04c-1.15-.07-2.29-.12-3.44-.19-2.98-.18-5.95-.4-8.92-.67-1.37-.12-2.74-.26-4.11-.4-.53-.06-5.37-.63-3.26-.36-12.63-1.63-23.9-3.8-35.61-7.01s-25.21-8.4-31.67-20.14c-12.66-22.99,10.78-49.67,32.68-54.24,13.26-2.77,26.66-.41,41.89.98,14.48,1.32,29.02,2.08,43.56,2.36,57.57,1.12,116.3-5.97,170.83-24.95,51.39-17.89,100.15-46.78,135.73-88.53,30.62-35.93,49.24-81.98,54.64-128.72,5.27-45.58-2.13-93.3-25.68-133.12-11.26-19.04-26.21-35.62-44.01-48.74-3.93-2.89-9.76-3.2-14.46-3.2-4.29,0-11.18-.06-14.46,3.2-40.06,39.72-83.88,75.69-130.82,106.98-47.22,31.48-97.45,58.45-149.8,80.38-25.79,10.81-52.11,20.32-78.84,28.53-12.01,3.69-23.71,6.96-35.93,8.95-1.48.24-2.96.46-4.45.67-1.58.23-.46.08-.13.04-.74.09-1.48.17-2.22.24-1.48.15-2.96.29-4.44.4-.76.06-5.13.26-2.64.19-1.46.04-2.92.06-4.38.05-.79,0-4.28-.17-1.8-.02-1.43-.09-2.86-.2-4.29-.32,0,0-2.31-.26-1.03-.1,1.06.13-1.47-.24-1.71-.27-23.75-3.87-41.17-22.9-48.48-46.24-7.72-24.64-8.77-51.73-10.78-77.33-4-50.74-4.97-104.05,12.02-152.74,8.26-23.66,21.27-45.51,38.96-63.34,18.58-18.73,41.51-32.09,65.8-42.03,23.87-9.76,49.12-16.11,74.32-21.38,6.36-1.33,12.73-2.67,19.15-3.67,3.38-.52,3.93-.55,7.34-.83,1.77-.14.26-.06-.09-.04.77-.03,1.55-.02,2.32-.03,1.77-.03.2-.05-.15-.07,1.01.04,2.03.11,3.03.22-1.42-.17,1.18.23,1.46.29,1.25.29,2.52.68,3.71,1.16,2.69,1.09,5.27,2.64,7.49,4.5,4.24,3.56,7.72,8.19,9.78,13.35,9.25,23.11-.4,50.53-8.11,72.64-9.54,27.39-21.93,53.73-36.9,78.57-14.74,24.46-31.93,47.46-51.28,68.47-17.96,19.51-38.77,38.76-64.09,48.03-5.29,1.94-12.11,3.66-16.8,4.18.05,0-2.56.2-3.47.26-1.78.12-.06.01.26,0-.74.02-1.48.02-2.23.02-1.85,0-4.16-.1-6.66-.44-4.15-.56-9.91-1.96-15.02-3.65-5.52-1.82-10.84-4.2-16.02-6.83-23.39-11.91-43.28-29.8-61.32-48.62-9.08-9.47-17.73-19.35-26.2-29.38l-1.51,3.36c47.2-21.32,88.4-55.19,118.2-97.57,2.89-4.11-9.1-5.26-10.48-5.36-50.72-3.57-101.45-7.13-152.17-10.7-3.8-.27-7.79-.23-11.56.44-1.3.23-6.01,1.01-6.89,2.6-2.37,4.29,8.55,5.23,10.48,5.36h0Z"/></svg>