<?xml version="1.0" encoding="UTF-8"?><svg id="Layer_1" xmlns="http://www.w3.org/2000/svg" viewBox="0 0 1000 1000"><defs><style>.cls-1{fill:#fff;}</style></defs><path class="cls-1" d="m150.37,816.31c-5.16-25.27-9.54-50.73-11.83-76.43s-2.89-54.38,2.87-80.78c2.52-11.54,6.48-22.79,12.66-32.9,6.79-11.13,16.56-19.91,26.75-27.89,11.81-9.23,24.65-16.94,38.37-22.97,6.72-2.95,13.54-5.53,20.39-7.55,3.49-1.03,7.01-1.96,10.55-2.79,2.03-.48,4.06-.9,6.09-1.33,1.62-.34,1.78-.37,4.09-.74,4.1-.66,8.23-1.18,12.37-1.57,1.03-.1,2.07-.17,3.1-.27,2.55-.24-.06-.03,1.45-.11,2.07-.11,4.15-.17,6.23-.2,2.34-.04,4.67-.03,7.01.02.78.02,1.56.04,2.34.07.4.01,3.76.17,1.46.03,4.15.24,8.29.67,12.4,1.22,6.82.91,13.87,2.18,20.81,5.18s12.6,7.59,16.38,14.24l3.86-6.29c-4.24,2.21-4.51,2.3-8.22,3.07,2.59-.54-.28.33-.52-.02-.86.08-.79.09.22.03,1.01-.04,1.08-.05.22-.02-.98-.05-1.99-.01-2.97,0,1.21,0,2.18.25.42-.03.03,0-3.58-.54-1.76-.2,1.63.3-.87-.21-1.15-.28-.97-.25-1.95-.49-2.91-.78,1.26.38.29.11-.4-.15-3.53-1.33-6.24-2.64-9-4.45-11.97-7.84-20.31-20.28-20.82-34.79l-2.05,3.26c36.32-32.41,73.36-64.18,108.88-97.47,31.43-29.46,60.51-61.35,92.39-90.35,67.37-61.3,151.72-100.28,233.14-139.22,21.05-10.07,43.71-18.03,66.39-21.46,22.95-3.47,43.74-3.19,66.54,2.85l-6.89-3.86c6.16,18.45,5.81,39.48-9.11,53.6-7.22,6.84-15.88,12.16-24.07,17.73-9.2,6.27-18.42,12.51-27.67,18.72-37.23,25.02-74.76,49.59-112.6,73.69-75.67,48.19-152.53,94.52-230.49,138.92-43.45,24.75-87.26,48.87-131.39,72.39-5.01,2.67-5.73,6.46,0,9.14s11.03,5.17,16.54,7.76l-4.39-4.57c-3.29,22.02-7.64,45.14-20.13,64.03-5.5,8.32-12.85,15.57-21.88,19.29-12.81,5.28-26.46,3.12-40.32,4.41-22.2,2.06-43.32,11.18-60.3,25.57-17.08,14.48-30.35,32.99-41.28,52.39-12.58,22.34-22.33,46.16-31.25,70.16-2.1,5.64,6.49,7.47,10.48,7.95s16.47.83,18.45-4.52c7.95-21.41,16.58-42.64,27.26-62.85,10.18-19.26,22.31-38.42,38.46-53.27,7.32-6.73,15.69-12.85,24.09-16.79,2.4-1.13,4.85-2.13,7.34-3.05,1.33-.49.12-.07-.13.01.58-.2,1.18-.37,1.77-.55,1.39-.41,2.78-.8,4.18-1.14,1.21-.3,2.44-.56,3.66-.81-2.33.47.58-.07,1.41-.19,2.4-.33,5.59-.58,6.98-.65,16.85-.78,33.9-.84,49.79-7.28,10.65-4.32,19.78-11.54,26.85-20.56,15.78-20.15,20.88-47.47,24.57-72.16.32-2.15-3.04-3.94-4.39-4.57-5.51-2.59-11.03-5.17-16.54-7.76v9.14c94.83-50.56,188.21-103.86,279.92-159.88,45.88-28.03,91.35-56.73,136.38-86.11,22.38-14.6,44.66-29.36,66.82-44.29,11-7.41,22-14.83,32.93-22.35,9.36-6.45,19.07-13.57,25.11-23.43,6.09-9.95,7.71-22.13,6.27-33.55-.68-5.38-1.68-11.45-3.87-16.45-2.74-6.24-12.99-6.96-19.14-8.16-25.93-5.05-52.7-5.37-78.8-1.31-51.34,7.98-97.12,32.9-143.01,55.95-45.99,23.09-92.62,47.36-134.17,77.92-38.86,28.58-71.95,63.99-106,97.92-37.37,37.23-77.56,71.54-116.9,106.65-4.94,4.41-9.88,8.82-14.83,13.23-2.45,2.19-4.88,3.66-4.97,7.13-.06,2.35.47,4.86,1.01,7.15,1.96,8.41,5.94,16.06,11.76,22.44,13.77,15.11,33.74,22.63,53.99,22.84,10.66.11,21.79-1.91,31.3-6.87,2.33-1.22,5.64-3.15,3.86-6.29-8.38-14.72-25.37-21.79-41.14-25.43-17.45-4.03-35.76-5.46-53.63-4.66-35.63,1.59-70.21,11.16-101.16,28.99-25.08,14.45-49.12,34.32-59.57,62.04-9.95,26.41-11.28,55.39-9.96,83.31,1.5,31.63,6.72,62.98,13.04,93.96,1.99,9.75,31.59,7.78,30,0h0Z"/></svg>