<?xml version="1.0" encoding="UTF-8"?><svg id="Layer_1" xmlns="http://www.w3.org/2000/svg" viewBox="0 0 1000 1000"><defs><style>.cls-1{fill:#fff;}</style></defs><path class="cls-1" d="M482.81,442.69c-23.61-71.14-70.5-131.12-121.06-185.24-12.97-13.88-26.25-27.46-39.63-40.95-12.83-12.93-25.46-26.2-39.4-37.95s-28.51-21.25-45.58-25.87c-20.31-5.51-43.09-5.56-63.43-.12-31.79,8.5-55.16,34.83-73.73,60.51-20.29,28.07-41.89,58.83-44.89,94.31-5.39,63.61,40.76,123.61,94.58,152.4,35.01,18.72,75.15,26.35,114.39,29.3,42.07,3.16,84.38.29,126.26-4.03,10.11-1.04,20.21-2.18,30.31-3.33l-18.18-4.4c-70.06,13.13-142.4,36.15-194.23,87.46-22.94,22.7-41.58,50.4-51.61,81.22-9.17,28.16-14.64,66.79,8.3,90.07,11.32,11.48,27.58,15.9,43.08,18.11,18.56,2.64,37.34,1.98,56.02,1.58,21.06-.46,42.13-.91,63.19-1.37s42.96.39,63.94-3.11c16.82-2.81,31.16-10.43,42.05-23.63,9.51-11.53,16.36-25.23,21.83-39.07,8.64-21.87,12.47-45.77,15.79-68.93,7.72-53.85,10.59-108.56,11.52-162.92.08-4.75.14-9.49.16-14.24.02-3.91-29.8-4.4-30,0-1.33,29.75,2.13,59.95,5.3,89.49,3.61,33.7,8.07,67.36,13.8,100.77,2.49,14.49,5.15,29.05,9.05,43.23,2.82,10.27,6.64,20.33,12.96,29,5.57,7.64,12.37,14.82,19.34,21.19,7.17,6.55,15.15,12.05,24.78,14.09,12.23,2.58,24.93,3.84,37.34,5.32,19.76,2.35,39.64,3.97,59.53,4.56,21.66.64,44.03.97,65.5-2.65l-23.56-.57c12.01,3.71,26.36,3.09,38.55,1.06,15.76-2.63,29.04-11.04,39.19-23.27,19.45-23.46,28.29-54.71,34.03-84.05,1.9-9.68,4.58-19.09-.44-28.24-4.52-8.24-11.97-14.57-19.14-20.44-16.45-13.45-34.5-24.69-53.58-34.01-43.89-21.45-91.52-33.32-138.76-44.79v2.83c56.26-22.95,112.09-49.29,160.5-86.47,23.5-18.05,45.1-38.71,63.06-62.34,9.07-11.94,17.52-24.59,24.32-37.97,4.08-8.03,6.6-16.39,5.16-25.45-1.32-8.34-5.2-16.03-9.31-23.31-31.67-56.09-71.16-118.17-139.79-130.09-33.38-5.8-69.15-1.9-97.58,17.48-24.06,16.39-41.86,40.54-57.62,64.61-17.26,26.36-33.28,53.68-46.7,82.2-13.98,29.71-25.64,61.41-29.09,94.25-.79,7.51-1.08,15.05-.86,22.59.13,4.33,30.12,3.93,30,0-.91-30.61,7.08-60.83,18.05-89.18,11.35-29.36,26.21-57.29,42.47-84.2,14.6-24.16,29.86-48.55,49.53-68.96,9.36-9.72,19.84-18.48,31.63-25.1,5.78-3.24,11.83-5.86,18.17-7.8,3.06-.94,6.16-1.7,9.32-2.2,1.11-.17,2.23-.3,3.35-.4-.64.06-1.68.06,1.21-.05-1.62.06.2-.01.81.01-1.94-.07,1.11.07,1.2.07,1.37.12,2.75.28,4.11.5,3.44.54,6.85,1.32,10.2,2.27,7.29,2.08,14.38,4.86,21.15,8.28,13.76,6.95,26.24,16.16,37.34,26.82,23.47,22.55,40.58,50.56,56.99,78.4,7.92,13.44,18.18,28.51,15.45,44.92-1.34,8.04-5.56,15.36-9.56,22.33-3.55,6.19-7.36,12.23-11.39,18.12-16.13,23.56-36.1,44.38-57.98,62.65-44.55,37.2-96.88,64.14-150.01,86.83-6.65,2.84-13.32,5.61-20.01,8.34-2.06.84-2.84,2.14,0,2.83,40.8,9.91,81.86,20.01,120.6,36.53,19.33,8.24,37.98,18.3,55.1,30.51,7.85,5.59,15.63,11.57,22.59,18.26,6.24,6,12.41,13.56,12.24,22.7-.19,10.17-3.46,21.13-5.83,30.99-2.1,8.76-4.56,17.44-7.54,25.94-4.38,12.48-9.85,24.73-17.32,35.69-5.17,7.57-11.51,14.53-19.04,19.81-1.42,1-2.89,1.93-4.39,2.8-.63.36-1.27.71-1.91,1.05-.45.23-2.54,1.24-2.06,1.03-.06.03-2.5,1-3.54,1.36-1.13.39-5.33,1.37-2.13.72-.45.09-3.29.98-3.56.68.27.29,3.56-.43.82-.16-1.65.16,4.37-.27,1.51-.13-2.59.13,4.54-.06,2.22-.05-1.42,0-3.87-.16,2.36.08-3.92-.15,3.22.35.77.09-2.94-.32,3.14.53,1.04.16-.45-.08-.9-.16-1.35-.27-1.04-.25,3.13.78,1.55.37-3-.77-6.03-1.17-9.12-1.33-4.98-.26-9.89,0-14.81.76-1.99.3,4.04-.5,1.46-.21-2.25.25-4.5.52-6.76.73-2.78.27.37-.02.69-.04-.89.06-1.79.13-2.68.19-2.32.15-4.64.28-6.97.38-1.06.05-2.12.09-3.18.12-.7.02-1.4.04-2.1.06-2.09.07,4.08-.05.91-.03s-6.15.08-9.22.07c-1.6,0-3.2-.02-4.8-.04-.82-.01-5.65-.11-3.68-.06s-3.14-.1-4.01-.13c-2.12-.08-4.24-.17-6.35-.27-9.66-.47-16.54-.98-25.28-1.81-10.86-1.04-21.71-2.33-32.51-3.85-9.49-1.34-17.01-2.11-24.89-7.85-14.89-10.83-28.7-26.52-35.16-43.84-5.33-14.27-8.09-29.6-10.84-44.56-5.59-30.53-9.81-61.35-13.45-92.17-3.6-30.47-6.9-61.18-7.5-91.88-.1-5.29-.1-10.58.14-15.87h-30c-.29,49.52-2.75,99.21-8.1,148.45-2.73,25.11-6.12,50.35-12.29,74.88-5.98,23.76-15.83,49.48-33.77,66.76-5.43,5.22-11.8,9.73-18.92,12.3s-14.58,3.03-21.07,3.22c-18.34.54-38.69.84-57.81,1.25-19.26.42-38.54,1.1-57.81,1.2-6.4.03-10.29.07-16.53-.78-6.77-.92-13.62-2.78-19.7-5.94-29.48-15.31-30.55-51.41-24.61-80.11,6.33-30.59,21.45-58.92,41.55-82.66,44.17-52.17,109.14-79.71,174.47-94.49,8.54-1.93,17.13-3.67,25.74-5.29,3.71-.7,6.11-2.36,1.17-3.68-6.05-1.61-13.2-1.42-19.35-.72-36.62,4.17-74.09,8.28-109.86,7.86-7.25-.08-16.22-.44-24.42-1.15-8.96-.78-17.87-1.9-26.72-3.5-18.05-3.25-35.75-8.32-52.66-15.45-53.83-22.69-100.39-75.66-106.49-135-1.49-14.44-.39-29.1,3.52-43.09,4.93-17.62,14.46-33.36,24.31-48.62,16.91-26.17,35.46-53.41,61.78-71.01,6.07-4.06,12.53-7.55,19.44-9.93,3.17-1.09,6.33-1.85,9.61-2.49-.28.05-.96.17.39-.05,2.31-.37-1.73.23.6-.09s-2.07-.26.26-.02c1.78.18-.29.02-.83-.06,15.91,2.43,29.85,10.5,42.48,20.2,13.52,10.38,25.47,22.6,37.48,34.64,12.41,12.44,24.77,24.93,36.92,37.62,48.55,50.73,94.89,105.76,122.26,171.15,3.41,8.14,6.48,16.41,9.26,24.79,1.15,3.47,12.26,2.8,15,2.8,1.14,0,15.74-.57,15-2.8h0Z"/></svg>