<svg xmlns="http://www.w3.org/2000/svg" viewBox="0 0 1000 1000"><g style="opacity:.5"><path d="M360.57 363.66c5.49-14.5 9.2-32.78-.33-46.52-8.95-12.9-24.65-18.72-39.8-20.18a105.5 105.5 0 0 0-49.14 6.73c-12.32 5-26.16 12.63-31.83 25.38-6.88 15.46 3.7 29.94 15.73 39l16.94-12.54c-27.62-3.92-58.87-3.16-81.53 15.23-17 13.81-23.55 36-26.27 56.88-3.42 26.29-1.63 53.14.17 79.48 2 28.92 4.63 57.85 4.6 86.86 0 29.29-2 57.88-15.28 83.55-4.91 9.54 13.77 10.87 18.45 10.5 2.74-.22-3.29.23-.54 0l2.59-.18 6.09-.39c3.67-.21 7.33-.38 11-.52 7.78-.31 15.57-.46 23.35-.5 15.81-.07 31.61.35 47.4 1.11q12.18.58 24.34 1.42l6.26.43 2.9.22c1.86.14 3.3.2.36 0 4.21.25 8.42.67 12.62 1 16.7 1.41 33.38 3.07 50 4.85 33.91 3.63 67.75 7.79 101.63 11.65 33.57 3.84 67.18 7.35 100.89 9.74C591.06 719.1 621 720.29 651 719c28-1.16 55.88-4.28 82.94-11.66 23-6.25 45-16.19 63.65-31.1a124.3 124.3 0 0 0 38.3-53.4c9.78-26.21 11.94-54.77 10.42-82.51-2.15-39.34-11.22-78.24-22.4-115.9-3.36-11.33-7-22.58-10.78-33.77-1.74-5.11-10.2-6-14.47-6.27-9.51-.61-19.59-1.48-30-2.76-8.41-1-16.79-2.27-25.11-3.86q-5.41-1.05-10.8-2.29c3.24.74-1.69-.43-2.48-.64q-2.86-.75-5.7-1.57a163 163 0 0 1-16.24-5.62l-1.59-.66c-2.68-1.06 2 1 .33.16-1.09-.54-2.21-1-3.3-1.55q-3.27-1.59-6.41-3.37-2.78-1.57-5.44-3.31c-.84-.55-1.68-1.12-2.51-1.69-.36-.25-.71-.52-1.07-.76-2-1.3 2.07 1.68.26.2a175 175 0 0 1-16-14.63c-10.45-11-20.57-21.72-33.84-29.4-21.94-12.69-48-17.55-72.91-20.17-26.45-2.78-53.12-4.05-79.65-6l-83.72-6.07c-4.67-.34-15.23 2.16-15 8.53 1 28-8.3 52.82-22.19 76.86-13.22 22.89-29 44.48-38.46 69.34a144.6 144.6 0 0 0-9.4 42.74c-.94 16.18 2.21 31.7 3.89 47.67 2.28 21.57 8.61 43 20 61.54 21.62 35.28 58.24 58.2 97.68 68.76 42.6 11.41 87.88 10.9 130.45-.37 36.53-9.67 72.64-28.9 94.62-60.47A96.7 96.7 0 0 0 681 547.11c1.72-23.06-5.75-45.5-14.31-66.57-18.35-45.17-50.23-87.77-99.51-100.59-43.27-11.26-88-.56-127.21 18.88-34.61 17.15-66.59 41.41-93 69.54-9.75 10.37-19.22 21.58-26.31 34-3.82 6.69-8.9 16.68-4.82 24.32 2.93 5.51 10 8.25 15.86 8.83s15.55.38 18.45-6c2.77-6.08-5.9-10-10.48-10.5-.17 0-1 0-1.07-.14-.36-.66 3.25.84 2.5.59-1.94-.65 2.88 1.4 2 .91-1.06-.59-1.66-1.44 1.39 1.12-1.44-1.21-.57-.45.41.85a4.3 4.3 0 0 1-.74-1.6c.77 3.8.24-.35.31-1.8s.94-2.85 0-.27c.33-.86.51-1.79.81-2.66a64 64 0 0 1 6.46-12.65c1.51-2.41 3.15-4.74 4.79-7.07s-1.1 1.4.26-.36c.52-.67 1-1.34 1.53-2q1.61-2.07 3.26-4.09a289.7 289.7 0 0 1 33.66-34.35c6.91-6.05 14.09-11.76 21.41-17.29 2.14-1.62-1.46 1.06-.06 0l1.31-.95q1.48-1.08 3-2.13 3-2.13 6.06-4.19 6-4.05 12.16-7.82a281 281 0 0 1 25.9-14.08c2-1 4-1.84 6-2.77-3.33 1.55-.09.05.76-.31 1.26-.53 2.53-1.06 3.81-1.57 4.55-1.83 9.17-3.52 13.84-5 2.06-.67 4.12-1.3 6.2-1.9 1.17-.33 2.33-.66 3.5-1 .66-.18 5-1.26 2.5-.66s1.23-.27 1.72-.37c1.17-.26 2.34-.5 3.51-.73 2.34-.46 4.68-.87 7-1.22 2.2-.33 4.42-.61 6.64-.84.52-.06 1-.09 1.56-.16 2-.23 1.12.8-1.26.08.89.27 2.57-.17 3.51-.21 4.54-.22 9.05-.15 13.58.06 4 .18-3.13-.39.26 0 1 .12 2 .2 3.07.33q3.65.43 7.26 1.11c1 .19 2 .41 3 .61 3.6.73-2.07-.61.19 0s4.52 1.22 6.75 1.94 4.47 1.54 6.66 2.41c1 .4 2 .83 2.94 1.23-3.64-1.48.44.24 1.33.68a109 109 0 0 1 12.47 7.15c1.06.7 2.09 1.44 3.14 2.16 1.52 1-1.34-1.1 1.1.82 2.08 1.63 4.13 3.28 6.11 5a136 136 0 0 1 11.8 11.74A155 155 0 0 1 624 456.49a264 264 0 0 1 18 39.92c2.24 6.19 4.41 12.44 6.07 18.81q.27 1 .51 2c-.09-.35-.36-1.6 0 .1.23 1 .45 2.08.65 3.12q.66 3.45 1.11 6.93a97 97 0 0 1 0 25.43c-.29 2.06-.67 4.1-1.06 6.15-.09.45-.19.89-.29 1.34.06-.28.47-1.87.06-.27-.28 1.1-.57 2.2-.88 3.29a91 91 0 0 1-4 11.11 92 92 0 0 1-5.41 10.45q-1.49 2.48-3.1 4.84c-.57.84-1.16 1.67-1.75 2.5-.76 1.06 1-1.3-.75.95a122.6 122.6 0 0 1-17.21 17.63q-2.19 1.83-4.46 3.57c-.38.29-.77.57-1.15.87-1.95 1.5 1.64-1.17.31-.23-1 .69-2 1.4-3 2.08q-5.32 3.65-10.94 6.82a169 169 0 0 1-11.72 6.06c-1 .49-2.09 1-3.13 1.44-2 .9 2.69-1.11-.49.2-2.15.88-4.3 1.77-6.47 2.6q-6.61 2.51-13.39 4.56c-2 .61-4.07 1.2-6.12 1.75-1.16.31-2.32.62-3.48.91l-1.56.39c-1.7.45 3.27-.74.85-.21a251 251 0 0 1-28.46 4.72l-3.67.34c-3.75.34 2-.1-.11 0-2.47.13-4.93.3-7.4.39q-7.21.27-14.43.09c-2.33-.06-4.67-.15-7-.28l-3.29-.2c-3-.18 3.16.29 1.11.08-.68-.07-1.37-.11-2.05-.17q-7.37-.68-14.68-1.85c-4.71-.75-9.38-1.69-14-2.73-3.35-.76 2.94.77-.38-.1-1.18-.31-2.36-.61-3.53-.93q-3.53-1-7-2c-4.47-1.41-8.9-3-13.26-4.72-1.11-.44-2.22-.91-3.33-1.37-2.94-1.23.94.47-.62-.27-2.15-1-4.32-2-6.45-3.08-4.24-2.14-8.39-4.46-12.41-7q-2.67-1.66-5.27-3.44c-.87-.59-1.71-1.22-2.58-1.8-2.17-1.48 1.47 1.12.13.1l-1.57-1.18a135 135 0 0 1-20.33-19.2c-1.46-1.7-2.86-3.46-4.25-5.23-.33-.42-.65-.84-1-1.27 1.22 1.62.34.46.09.11-.77-1.09-1.54-2.18-2.29-3.28a129 129 0 0 1-7.29-12.21A135.7 135.7 0 0 1 355 547a131 131 0 0 1-2.8-13.82c-.93-6.08-1.05-12.3-2.21-18.33a144.9 144.9 0 0 1-1.7-46.68c7-52.27 50-89 64-138.62a131.5 131.5 0 0 0 5.1-40.55l-15 8.53c49.16 3.57 98.37 6.79 147.52 10.69-1.58-.12.79.07.9.08 1.18.11 2.36.21 3.53.33 2 .19 4.09.41 6.13.63q6 .69 12 1.58 5.13.78 10.22 1.77c1.58.31 3.15.63 4.72 1l2 .45c3.43.76-3-.84.32.08 5.32 1.49 10.61 2.95 15.78 4.92 1.12.42 2.23.88 3.34 1.32 3.31 1.32-1.84-.95.79.35 2 1 4.06 2 6.05 3q2.61 1.44 5.13 3l2.12 1.4c.42.29.84.6 1.27.89 2.07 1.37-1.27-1-.37-.3 2.84 2.2 5.59 4.46 8.21 6.91 5 4.63 9.5 9.69 14.17 14.6 11.73 12.35 25.07 22.52 40.69 29.47 34.86 15.52 74.05 19.34 111.7 21.74l-14.46-6.27c13.42 39.51 24.84 80 30 121.51a306 306 0 0 1 2.44 47.54c-.22 7-.75 14-1.66 20.92q-.61 4.78-1.49 9.53-.4 2.22-.87 4.41c-.18.85-.36 1.69-.55 2.53-.23 1 .09-.39.12-.49-.12.47-.23 1-.35 1.41a138.5 138.5 0 0 1-12.22 32c-1.26 2.33-2.6 4.62-4 6.85-.73 1.15-1.48 2.29-2.25 3.41-.54.8-2.9 4-1.2 1.76a115.1 115.1 0 0 1-21.65 22l-1.47 1.19c-1.72 1.35 1-.67.37-.27-1.19.83-2.35 1.68-3.55 2.49a141 141 0 0 1-6.59 4.17 159 159 0 0 1-14.41 7.5c-3.22 1.49 2.16-.87-1.13.5-1.32.54-2.64 1.09-4 1.61q-3.88 1.53-7.83 2.89c-5.54 1.9-11.16 3.55-16.83 5-.69.17-1.37.33-2 .51-2.34.6 3.18-.72.82-.2l-4.54 1c-3.09.66-6.18 1.27-9.29 1.83q-9.24 1.65-18.58 2.77c-3.33.41-6.68.76-10 1.08l-4.7.42c-.64.06-3.52.27-.78.07s-.51 0-1.19.08c-29 2-58.05 1.41-87-.24-7.81-.44-15.65-.82-23.43-1.57 2.18.21 2.37.19.26 0l-2.79-.22-6.09-.5q-5.89-.51-11.78-1c-16.35-1.49-32.67-3.2-49-5-33.33-3.69-66.61-7.79-99.94-11.51-33.86-3.79-67.78-7.17-101.79-9.4-31.26-2-62.63-3-93.94-1.71-8.31.35-16.61.91-24.9 1.57l18.45 10.5c11.61-22.52 15.12-48.68 16.08-73.7 1.07-28-1.08-55.95-3.09-83.82-1.95-26.83-4.24-53.85-2.84-80.76.3-5.67.78-11.33 1.54-17 .36-2.66.78-5.31 1.28-7.95.24-1.28.51-2.56.79-3.83.54-2.51-.46 1.75.16-.72l.57-2.2a87.5 87.5 0 0 1 5-14 67 67 0 0 1 3.17-6.07c.51-.87 1.05-1.73 1.6-2.57l1.13-1.65c1.3-1.9-1.38 1.69.07-.08a63 63 0 0 1 5.32-5.84c.88-.83 1.81-1.6 2.73-2.39 2.55-2.22-1.29.69 1.12-.87s4.72-2.76 7.15-4.08c1.8-1-.93.39-1.1.46.79-.31 1.56-.65 2.35-.95a58 58 0 0 1 3.86-1.31c.73-.23 1.48-.4 2.2-.63 2.72-.88-3.39.66-.54.12 1.6-.31 3.18-.65 4.79-.9s3.38-.41 5.07-.63c1.15-.15 2.12-.74-1.34.09a17.7 17.7 0 0 1 3.18-.16c3.72-.14 7.44-.07 11.15.13.3 0 3.7.29 1.11.06s1.82.19 2.26.24q3.33.36 6.64.84c5.11.72 11.59.28 15.77-3.06 2.79-2.24 4.89-6.67 1.17-9.48a60 60 0 0 1-8.1-7.19c-.52-.56-1-1.15-1.5-1.71-1.72-1.9.35.71-.34-.4s-1.53-2.34-2.16-3.61c-.53-1.08-.9-2.2-1.36-3.31-.3-.7-.45-2.51 0 .17-.09-.61-.26-1.21-.3-1.84a24 24 0 0 1-.11-3.15c0-.68.63-3.9.24-2.37s.52-1.41.78-2.05a33 33 0 0 1 1.57-3c.26-.48.65-.9.9-1.38.11-.22-1.55 1.76-.22.31.9-1 1.74-2 2.69-2.95s1.79-1.66 2.73-2.44a15 15 0 0 0 1.48-1.16c-.05 0-2.24 1.49-.1.13a77 77 0 0 1 7.25-4.17c.62-.31 1.28-.56 1.89-.9s-3 1.2-.53.25c1.44-.56 2.87-1.13 4.33-1.64s2.78-.92 4.19-1.33l2.13-.59c3.21-.9-2.38.44-.49.11 3.15-.54 6.25-1.17 9.43-1.57.7-.08 3.61-.3.54-.08s-.21 0 .53 0c1.56-.06 3.13-.11 4.69-.09.93 0 5.85.28 2.63.06s-.29 0 .42.08 1.59.2 2.38.33c1.32.2 2.73.71 4.05.78-4.05-.23-2.51-.69-1.07-.2.81.27 1.63.49 2.44.78.53.18 1.05.4 1.58.58 2.73 1-1.87-1.05-.5-.23 1.15.69 2.39 1.27 3.56 1.94.53.31 1 .79 1.56 1-1.2-.55-2-1.64-.46-.28 1 .88 2 1.73 2.86 2.71.47.51.88 1.1 1.36 1.6-1.31-1.38-.67-1 0 .13a33 33 0 0 1 2.15 4.09c.29.7.55 1.4.79 2.11.15.45.77 2.69.45 1.39s.19 1.1.26 1.53c.14.94.25 1.88.32 2.83a47 47 0 0 1-.6 11.35c-.17 1.06-.38 2.12-.61 3.17.33-1.52-.49 1.84-.62 2.3-.73 2.56-1.6 5.08-2.54 7.57-4.58 12.1 25 14.89 28.92 4.54Z" style="fill:#fff"/></g><path d="M137 198h542v542H137z" style="fill:none"/></svg>