<svg xmlns="http://www.w3.org/2000/svg" viewBox="0 0 1000 1000"><path d="M724.2 284.7c-83.4 27.59-156 78.2-218.66 139C442 485.38 388 556.16 335.61 627.32c-29.15 39.6-57.87 79.52-87.76 118.57-.89 1.16 12.78 2.48 13 2.48a76 76 0 0 0 9.56-.3c1.9-.19 5.46-.16 6.89-1.51 69-64.95 127.47-140 191.79-209.44 17.83-19.24 36.13-38.06 55.25-56q1.06-.68 0-1.35c-60-62.23-126.13-117.63-190.62-175q-28.38-25.25-56.06-51.29c-3.17-3-30.08-1.17-29.46.67 12.52 37.71 45.21 62.78 77.16 83.78 16.64 10.89 33.88 20.68 50.64 31.31a481 481 0 0 1 50 36.47C488.91 458 538.5 523.65 588.38 587.9c27.68 35.65 55.66 71.16 86.4 104.25 1.08 1.16 5.75 1.4 6.9 1.51a77 77 0 0 0 11.55.26c1.48-.07 12.58-.85 10.48-3.11-55-59.23-101-126-152.68-188-25.8-30.95-53.1-60.79-83.32-87.5a508 508 0 0 0-48.45-38c-16.56-11.39-34.16-21-51.1-31.85-36.06-23-75.78-48.7-90-91.38l-29.47.68c62.73 59.3 129.8 113.78 192.65 172.94q27.64 26 54 53.35v-1.35c-69 65-127.47 140-191.79 209.44-17.83 19.24-36.13 38.06-55.24 56l29.46.68c53.32-69.65 103-142.06 157.81-210.54C490 467.51 549.75 402.54 621.4 352.64c39.65-27.62 82.78-50.19 128.7-65.39 5.81-1.92-4-3.32-5.38-3.46-6.34-.65-14.33-1.14-20.52.91" style="fill:#fff"/></svg>