<svg xmlns="http://www.w3.org/2000/svg" viewBox="0 0 1000 1000"><defs><style>.a{opacity:0.5;}.b{fill:#fff;}</style></defs><g class="a"><path class="b" d="M176.49,667.27c-1.66-81.73-5-163.61.08-245.29,2.48-39.82,6.22-80.38,15-119.38,7-31,27.92-55,55.51-69.54,26.78-14.15,53.6-23.8,83.43-31.32,3.53-.89,7.07-1.72,10.62-2.54,2.8-.65,1.32-.31.7-.17l2.87-.61q3.24-.69,6.48-1.33,11.63-2.29,23.36-4,12.23-1.85,24.54-3.13,5.64-.58,11.29-1.07c1.76-.16,3.52-.3,5.29-.44l3-.22c-2.75.19,2-.12,2.09-.13q24.53-1.51,49.12-1.18,12.41.17,24.79.75,6.21.28,12.42.69l2.33.15c2.61.18-1.93-.14.67.05q3.49.25,7,.55a800.56,800.56,0,0,1,99.14,14.55c4.38.92,5,1.07,9.2,2s8.45,2,12.67,3q11.8,2.88,23.53,6.12,23,6.36,45.55,14.09c14.57,5,28.71,10.37,41.93,15.95,13.69,5.78,27.46,11.48,38.95,21.11a96.66,96.66,0,0,1,26.81,36.18c6.94,16.16,9.35,34.36,11.25,51.73,4.34,39.57,2.13,79.58-1.92,119.08-2,19.95-4.59,39.83-7.17,59.71-2.19,16.94-3,34.39-9.87,50.25a89.55,89.55,0,0,1-25.33,33.91c-11.46,9.46-22.88,13.86-37,17.24-64,15.37-125.31,30-189.43,42.11-33.28,6.31-66.72,11.86-100.33,16.13q-24.37,3.09-48.86,5.17-5.64.47-11.28.88c-2.55.18,2-.14-.51,0l-3,.19c-2.23.14-4.47.28-6.7.4q-11.76.66-23.53,1c-15.19.41-30.4.38-45.58-.25q-5.52-.23-11-.57l-2.74-.17c.61,0,2.88.22-.09,0l-5.4-.43q-10.93-.93-21.83-2.37-10.23-1.37-20.4-3.26c-3.1-.58-6.19-1.21-9.28-1.87,2.71.58-1.65-.38-2.5-.58q-2.7-.64-5.4-1.32c-6.26-1.59-12.48-3.37-18.62-5.38-2.82-.92-5.62-1.88-8.4-2.9q-2.21-.79-4.39-1.64l-2.17-.85c2.15.85-.32-.14-.73-.32a215.07,215.07,0,0,1-31.53-16.36c-4.8-3.05-12.93-2.86-18.18-1.22-3.18,1-9.63,4.49-6.89,8.81,12.05,19,34.35,28.6,55.19,34.49,24.48,6.92,49.91,9.84,75.12,12.63,11.59,1.28,23.2,2.48,34.75,4.12,5.11.73,10.2,1.54,15.26,2.55,1.75.34,4.76,2,.5.07a20.66,20.66,0,0,0,3.35.78c2.09.53,4.18,1.09,6.24,1.74,1,.3,1.92.61,2.88.95.46.16.91.35,1.37.5,1.6.54.64,1.1-1.27-.52,1.18,1,3.43,1.51,4.81,2.27.72.39,1.39.89,2.12,1.25.26.14-2.24-1.88-.14,0,1,.93,2,2.09,3.09,3-2.29-1.85-.71-1.13-.12,0,.29.58.62,1.16.93,1.73s.33,1.06.59,1.53c-.38-.71-.09-1.47,0,.53a22.77,22.77,0,0,1,0,4.29c-.08.65-.25,1.29-.34,1.93-.21,1.55.66-2,.13-.47-.2.55-.35,1.12-.55,1.67a51.19,51.19,0,0,1-7.24,12.82c-.4.55-.8,1.08-1.21,1.61-.27.36-2.23,2.77-.69.9-1,1.17-1.95,2.32-2.95,3.46-2.65,3-5.43,5.89-8.28,8.7-15.89,15.72-33.74,29.48-51.68,42.76-3.49,2.59-1.73,6.64,1.18,8.67,4.53,3.15,10.49,3.22,15.76,2.79,1.14-.09,7.81-.53,3.13-.25l6.27-.38q7-.37,14.05-.59c9.53-.31,19.06-.42,28.59-.42,19.93,0,39.87.52,59.79,1.16,39.07,1.25,78.15,3.26,117.25,3.32,17.22,0,34.45-.41,51.61-2,12.35-1.12,25.1-2.83,36.8-7.09,8.34-3,18.57-7.74,21.95-16.7,3.2-8.51-.83-17.32-5.88-24.2-7.07-9.62-15.88-18-23.81-26.88-6.68-7.49-14.1-16.15-19.5-23-10.9-13.75-21.24-27.89-32.62-41.28-6.31-7.43-35.13-3-25.9,7.88,9,10.56,17.35,21.81,26.34,33.39,12.76,16.46,26.59,32,40.74,47.28q2,2.12,3.88,4.27c.28.31,1.82,2.23.31.33.42.53.84,1.06,1.24,1.6a47.67,47.67,0,0,1,3.92,6,39.57,39.57,0,0,1,2.3,5.41c.19.52-.07-1.73,0,.42,0,.91.22,1.8.19,2.73,0,.74-.21,1.47-.24,2.2,0,1.39.8-1.92.18-.68-.13.26-.16.58-.3.84-.32.55-.59,1.19-.88,1.77-.16.33-.44.6-.6.92-.82,1.73,1.28-.86.33-.39a21.28,21.28,0,0,0-3.39,3c2.74-2.52.8-.54-.37.1-1,.57-2.07,1-3.11,1.54-2.58,1.26,3.17-1-.48.17-.91.3-1.82.62-2.74.91-1.17.36-2.35.69-3.53,1-.63.17-1.25.31-1.87.47-3.47.92,2.74-.51.33-.06-6,1.12-11.92,2-18,2.68-3.11.32-6.27.7-9.41.81,5.21-.18-1.13,0-2.35.12q-3.28.18-6.59.31c-8.1.33-16.22.46-24.33.49-37.62.12-75.23-1.75-112.81-3-42.81-1.46-85.79-2.73-128.53.75l16.94,11.47C320.51,810,337,797.24,352.08,782.93c9.06-8.61,18.4-18.11,24.4-29.2,3.64-6.74,5.8-14.48,3.08-21.91-2.57-7-9.53-11.92-16-15.06-19.18-9.31-41.86-11.27-62.76-13.67-24.68-2.82-49.39-5.2-73.76-10.16-2.78-.57,3.43.81.67.15l-2.88-.67c-1.42-.34-2.84-.69-4.26-1.06-3.22-.84-6.43-1.75-9.6-2.76s-6-2.15-9.06-3.2c4.11,1.43-.26-.13-1.26-.56q-2.07-.92-4.11-1.92c-2.63-1.29-5.15-2.74-7.66-4.24-.52-.32-1-.67-1.53-1,3,1.86.52.35-.12-.13-.94-.71-1.89-1.41-2.81-2.16a54.35,54.35,0,0,1-5.85-5.51c-.38-.41-.74-.85-1.12-1.27-1.08-1.2,1.23,1.79-.24-.33-.75-1.07-1.52-2.12-2.22-3.23l-25.07,7.6c48.44,30.76,108,40.06,164.33,42.54,67.11,2.95,134.66-4.7,200.8-15.49,68.58-11.18,136.44-26.43,204-42.46,31.46-7.46,64.88-12.12,90.21-33.94a101.22,101.22,0,0,0,27.06-36.95c7.06-16.75,8.24-35,10.55-52.83,5.31-40.87,10.59-81.88,11.44-123.13a429,429,0,0,0-2.64-60.18c-2.2-18.27-5.11-37.41-12.79-54.29a109.05,109.05,0,0,0-29.52-38.37c-12.88-10.66-27.81-17.35-43.07-23.8a761.14,761.14,0,0,0-92.83-32.28C610,182.75,540,172.16,469.89,171.28c-66.87-.84-135.35,7.14-198.33,30.52-30,11.12-62.77,24.6-84.1,49.33a114.86,114.86,0,0,0-23.88,43.55c-5.45,19.2-7.94,39.56-10.54,59.31-11,83.49-9.87,168-7.95,252,.47,20.43,1,40.86,1.4,61.29.13,6.36,10.37,7.81,15,7.81,4.32,0,15.13-1.47,15-7.81Z"/><path class="b" d="M351,645.92c48.58-20.51,97.52-40.56,148.19-55.37.35-.1,6.32-1.8,2.16-.63l3.62-1c3-.83,6-1.63,9-2.42q9.91-2.58,19.93-4.84,9-2,18.15-3.76c3-.58,6.06-1.12,9.09-1.64,1.81-.31,3.63-.66,5.46-.9l-2.34.37c1.21-.19,2.43-.36,3.64-.54q9.08-1.29,18.19-2.22,4.54-.47,9.09-.82l5.46-.39c1.56-.1,7.32-.67.62-.07,6-.54,12.15-.42,18.17-.4,3,0,6.05.05,9.07.14,1.79.05,3.67,0,5.44.2l-3-.15,3.63.23c10.17.67,20.28,1.94,30.38-.37,6.38-1.46,15.5-4.73,16.14-12.52.49-6-5.22-9.93-10.1-11.81-7.08-2.72-14.79-4.36-22.18-6.11-27.22-6.44-55.22-9.38-83.16-9.84-51.56-.85-102.66,7.91-153,18.4-26,5.42-51.93,11.28-78,16.17q-9.59,1.8-19.22,3.4c-1.67.27-3.34.59-5,.81,6.17-.78.32-.06-.71.09q-5,.74-10,1.4-10,1.3-20,2.25c-3.34.3-6.68.58-10,.81l-3.35.22-3.34.2q5.52-.12,2.19-.21l12.62,1.25,4.08,1.79q5.54,3.75,3.83,1.4c-.56.4.4-.8,0,.3a16.44,16.44,0,0,0,0-1.86c0,.15-.53,1.36.06.28s-.25.41-.5.53c.82-.41,1.66-.79,2.49-1.19l6.64-3.18c6.33-3,12-5.69,19.42-9.21q22.17-10.44,44.49-20.56c29.78-13.45,59.82-26.32,90.3-38.09,30.24-11.68,60.92-22.26,92.09-31.18-3.55,1,1.77-.49,2.84-.78,1.75-.49,3.51-1,5.27-1.44q6.15-1.65,12.33-3.21,11.45-2.9,23-5.45,12-2.64,24-4.88,5.36-1,10.7-1.9l6.25-1c2.63-.44-1.32.19-1.5.23,1.18-.24,2.39-.37,3.58-.54,17.9-2.64,35.92-4.54,54-5.58.9-.06,1.81-.1,2.71-.15,3.56-.21-4.77.18-1.21.06,2.12-.07,4.23-.17,6.35-.24q6.81-.22,13.63-.28,14.15-.1,28.28.51c5.3.23,12.69-.61,17.68-2.69,2.5-1,6.15-2.36,6.88-5.28,1.88-7.58-13.44-9.74-17.91-10.08a1659.72,1659.72,0,0,0-359.81,11.12q-26,3.71-52,8.15-12.44,2.14-24.83,4.48-5.71,1.08-11.43,2.2l-5.71,1.13c-1.44.28-10,1.54-2.74.73h13.29l-1-.08,11,2.36,2.12,1.16q1.9,1.86.65.16l.3.68a5.23,5.23,0,0,1,0-1.85c-.44,1-2.65,2.4.22.32,1.42-1,2.86-2,4.29-3q9.33-6.52,18.7-13,18.1-12.45,36.46-24.55c24-15.77,48.41-30.92,73.47-44.94,26.11-14.59,48.77-25.94,75.53-37,12.65-5.21,25.48-10,38.48-14.28,3.24-1.06,6.48-2.1,9.74-3.09q2.43-.75,4.88-1.47c.65-.2,6.12-1.74,1.47-.45,7.08-2,14.2-3.8,21.37-5.44q11.55-2.65,23.25-4.66c1.66-.29,3.34-.63,5-.83-6.48.76,1.18-.15,2.41-.32q5.89-.81,11.8-1.44t11.87-1.09c1.7-.13,3.4-.25,5.11-.35,1.13-.08,2.27-.14,3.41-.2q-5.7.27-1.52.08c8-.24,16.05-.36,24.08-.18V288.15q-153.84,3.71-307,20.32-42.69,4.68-85.26,10.39c-4.11.55-22.74,3.26-17.46,11.31,2.19,3.35,8,4.79,11.49,5.49a59.39,59.39,0,0,0,19.26.93q74.37-10,149.12-16.81,37.37-3.4,74.79-6,18.72-1.31,37.45-2.41,8.87-.53,17.74-1l9.86-.52c1.31-.07,2.63-.16,3.94-.2-6.52.19.27,0,1.25-.06q42.4-2,84.85-3c5.81-.14,12.18-.57,17.68-2.69,2.38-.92,7.32-3.09,7.32-6.5,0-8.56-20.36-9.08-25-9.19-60.6-1.37-120.89,10.53-177.57,31.6-54.1,20.1-105.07,48.06-153.76,78.82-24.77,15.66-49,32.1-73.07,48.85-4.39,3.06-11.94,6.74-14.48,11.6-3.94,7.55,3,13.4,9.45,15.94,13.2,5.16,27.58,2.8,41,.13q12.38-2.47,24.78-4.75,11.46-2.1,22.94-4,5.73-1,11.49-1.89l3.83-.62c2.63-.41,2.55-.4-.22,0l3.84-.59q24-3.64,48.06-6.55,47.21-5.71,94.69-8.6,6.78-.4,13.57-.77c6.62-.36-5.52.25,1.1-.06l7.76-.34q13.58-.59,27.15-.93,26.19-.66,52.4-.47,27.16.19,54.32,1.33l5.81.25,3.88.18-.83,0c4.52.25,9,.49,13.56.76q13.56.81,27.11,1.86l6.64-18.05C665.57,429,600,437.44,536.72,453.34c-62.05,15.61-122.13,37.87-180.81,63.2-29.16,12.59-58,25.91-86.69,39.51q-12,5.66-23.87,11.37c-6.1,2.91-12.2,7.88-8.58,15.25,4.72,9.64,21.4,10.42,30.26,10.31s17.85-.94,26.69-1.77c59.91-5.63,118.13-21.54,177.15-32.43q10.61-1.95,21.25-3.66l.43-.07c-3.23.52.48-.07,1.28-.19l5.12-.74q5.55-.78,11.12-1.46,11.15-1.35,22.34-2.25c3.45-.27,6.9-.49,10.36-.7,4.86-.29-4.6.17.27,0,2.31-.08,4.62-.17,6.93-.22q10.89-.25,21.76.09c.95,0,6.62.27,2.8.1-4-.18,2.88.2,3.68.25q5.71.41,11.42,1c3.54.37,7.06.79,10.58,1.28a10,10,0,0,1,2.65.38c-.11-.07-4.2-.69-1.54-.25,2.36.4,4.73.79,7.09,1.23q11.22,2.07,22.28,5c.9.24,1.79.5,2.69.72,2.57.64-.6-.12-.58-.18l1.79.52-3.87-2.49c.73.4.09,1,.41.34s0,1.16-.16,1.8c-.23,1.17.11-.29.09-.41l-.27.35q-3.27,4,7.91-3.55l12.62-1.26c8.52.07-.57-.2-2.59-.34-4.32-.3-8.65-.51-13-.71-5.44-.25-10.88-.41-16.33-.43-12.21,0-24.45.52-36.63,1.45a516.86,516.86,0,0,0-67.79,10c-44.34,9.43-87.56,23.86-129.82,40.15-23.37,9-46.51,18.64-69.59,28.39-2.37,1-7.32,3-7.32,6.5s4.94,5.65,7.32,6.49c10.28,3.64,25.09,4.34,35.36,0Z"/></g></svg>