<svg xmlns="http://www.w3.org/2000/svg" viewBox="0 0 1000 1000"><path d="M545.41 760.43c4.12-19 2.56-39.35 1.09-58.58-1.93-25.26-5.13-50.41-7.88-75.58-2.73-25-5.33-50-5.49-75.19a214 214 0 0 1 1.73-31.21c.3-2.18.66-4.36 1.08-6.52.1-.5 1-4.23.35-1.74.27-1.09.54-2.18.84-3.26a62 62 0 0 1 4.14-11c.43-.85.88-1.68 1.36-2.5.24-.42 2.08-3.24 1-1.7s.86-1.06 1.18-1.45c.56-.65 1.15-1.27 1.76-1.87a20.5 20.5 0 0 0 2.08-1.84c.69-.95-2.62 1.43-.94.74a11 11 0 0 0 1.25-.82c.46-.26 1.94-.75 2.2-1.19-1 1.74-3 1.14-1.64.77.47-.14 1-.36 1.43-.54 3.57-1.42-2.66.25-.29 0a11.7 11.7 0 0 0 3-.46s-4.29.1-2.29.18c.57 0 1.18-.05 1.75-.05h1.2c3.32-.07-2.4-.37-1.19-.15 1 .19 6.33 1.63 7 1.19-.73.47-3.27-.93-1.45-.35.73.23 1.47.41 2.2.64 1.54.47 3.07 1 4.58 1.56 6.4 2.35 22 1.87 22.57-7.66.75-11.68 1.74-23.44 1.31-35.16-.32-8.61-1.37-18.15-6-25.61-13.84-22.14-46.41-18.4-68.12-14l18.46 6.19c-8.43-17.87-15.09-36.8-16.81-56.59-1.24-14.16-.22-27.49 4.93-39.8a61 61 0 0 1 3.56-7.18c.68-1.16 1.4-2.28 2.15-3.4-1.32 2 1.27-1.59 1.76-2.17a62 62 0 0 1 4.91-4.95c.43-.4.92-.75 1.37-1.14-2.21 1.91-1.27.9-.67.53 1.17-.72 2.27-1.54 3.47-2.22.48-.27 1-.51 1.48-.8 1.32-.79.77-1.2-.93.39.66-.61 2.26-.87 3.07-1.17.4-.15.86-.22 1.25-.38 2.32-1-3.57.47-1.07.27a26 26 0 0 0 3.18-.51c2.55-.56-4-.14-1.42.13.42 0 .86-.07 1.28 0a7 7 0 0 0 1.93.07c-.18.06-4.06-.65-2.06-.14.42.11 3 .18 3.21.56 0 0-3.79-1.22-1.35-.31.73.27 1.49.46 2.22.73.42.16.84.36 1.26.5 2.27.75-2.08-1.39-.85-.4a24 24 0 0 0 2.76 1.51c1 .62 2 1.33 3 2-2.87-1.91 1 .93 1.72 1.56a58 58 0 0 1 5.43 6c.36.44.7.91 1 1.36-1.2-1.64 0 0 .23.4.89 1.42 1.78 2.83 2.59 4.3 1.61 2.9 2.7 6.17 4.89 8.71 3.53 4.11 9.39 5.6 14.61 5.6 8.71 0 15.27-4 18.44-11.93 5-12.37 6.83-25.83 11.2-38.41 1.64-4.71 4.95-9.24 5.43-14.28s-1.79-9.38-4.68-13.17c-8.44-11.06-23.57-16.07-36.63-18.75-21.53-4.42-44.11-1.71-65.15 3.81-31.58 8.29-66.35 24.91-81.52 55.63-10.33 20.92-9 44.81-4.08 67 2.34 10.51 5.34 20.82 8.24 31.18.6 2.15 1.19 4.3 1.75 6.46.27 1 .52 2.05.78 3.07.1.4.19.8.29 1.2.47 2-.37-1.81 0 0a63 63 0 0 1 1.5 10.91 35 35 0 0 1-.19 4.11c-.16 1.84-.59 1 .12-.24a12.7 12.7 0 0 0-.73 2.07c-.14.41-.88 1.19-.85 1.54-.09-1.09 1.86-2.22.18-.5s.64-.45.81-.56c-2.6 1.81 2-.7.8-.23-3 1.2-.15-.83 1.11-.13a12.4 12.4 0 0 0-2.4.41c-1.15.33 4.6 0 .7-.11-1.13 0-2.3-.12-3.43-.1-1.88 0 4.28.53 1.59.11-.6-.09-1.21-.14-1.82-.22-1.83-.22-3.66-.48-5.49-.66a121 121 0 0 0-15.13-.82c-12.76.33-30.35 3.31-35.79 16.87-4.85 12.09.87 26.58 5.65 37.76A292 292 0 0 0 399.74 495c3.85 6.92 15.44 7.88 22 5.29 2.42-.94 4.84-1.86 7.29-2.69 1-.33 1.94-.64 2.92-.93.24-.07 2.93-.77 1.61-.47-1.55.35 1.74-.3 2.05-.35.8-.13 1.6-.23 2.41-.31-1.09.12-2.35.22-.52.15 2.82-.11-1.73-.52 0 0 .69.19 1.51.25 2.23.37 2 .34-2.17-.73-.2 0 1.79.64 3.58 1.21 5.32 2-1.24-.54.48.22.79.38.92.45 1.82.9 2.72 1.37 2.55 1.32 5.06 2.72 7.56 4.13l-4.39-6.27c3.61 22.15 4.21 44.77 4.22 67.17 0 26.88-1.18 53.75-2.86 80.57-1.6 25.77-3.71 51.5-6.06 77.21q-1.43 15.51-2.93 31a42.4 42.4 0 0 0-.61 6.33c.23 3.59 3.26 5.79 6.11 7.42 4.38 2.52 9.69 3.54 14.67 4 12.17 1.15 24.33.26 36.49-.69 5.65-.44 11.29-.93 16.95-1.27 2.36-.14 4.73-.27 7.1-.3h2.57c3.78 0-1.86-.23-.74-.1 5.85.71 15.62.22 18.45-6.19 2.76-6.23-5.68-10.33-10.48-10.9-12.95-1.57-26.21.49-39.13 1.42-6.89.5-13.8 1-20.71.89-1.59 0-3.19-.16-4.77-.15-1.81 0 3.87.58 1 .07-.51-.09-1-.12-1.56-.2a16 16 0 0 0-1.78-.32c-1.46-.07 3.54 1.08 1.41.32-1.64-.59 1.4.7 1.52.76-1.05-.57-1.54-1.45.86.75l2 4.47c4-41.56 7.85-83.15 10.22-124.84 2.45-43.11 4.75-87.35-.92-130.3-.32-2.38-.61-4.78-1.06-7.14-1-5.39-6.13-7.31-10.53-9.65-5.77-3.05-11.72-6-18-7.72-15.94-4.37-31.25-1.12-46.32 4.78l22 5.29A288 288 0 0 1 415.42 464c-2.72-6.35-5.23-13.13-6-18.53a30.7 30.7 0 0 1-.3-6.84c0-.57.15-1.12.2-1.68.1-1.31-.77 2.06-.06.16.38-1 .9-2 1.26-3.06.3-.86 1.38-1.35-.39.4a12 12 0 0 0 .75-.89c0-.35.93-.73 1.07-1 .56-1.25-2.25 1.92-.64.51a5 5 0 0 1 1.1-.65c2.1-1-2.46.4-.91.39a6.1 6.1 0 0 0 1.68-.6c2.34-1-3.29.5-.6.14.43-.06 4-.93 4.23-.61.11.15-3.59.09-1.17.13h2.51c1.63 0 3.25.08 4.87.14 3.92.14-3.32-.43.75.06 1.27.16 2.54.28 3.81.44a82.2 82.2 0 0 0 19.82.63c8.56-1 18.22-4.63 22.08-13 2.76-6 2-13.06.83-19.31-1.77-9.26-4.53-18.31-7.09-27.37-3.11-11-5-17.66-6.63-28.26s-2.28-21.45-.71-32.09c.18-1.22.4-2.43.63-3.64 0-.24.67-2.88.17-.85.13-.54.26-1.08.41-1.61a76 76 0 0 1 2.64-7.91 65 65 0 0 1 3.7-7.74c.65-1.15 1.33-2.29 2-3.41.41-.63.82-1.25 1.24-1.87-1.18 1.73.53-.7.64-.84 9.39-11.95 18.58-18.34 32.32-25.09 3.17-1.56 5.94-2.74 10.32-4.42q7.9-3 16.06-5.38a127 127 0 0 1 14.07-3.07c2.34-.38 4.69-.71 7-1 .15 0 5.13-.4 2-.21 1.43-.08 2.87-.16 4.31-.19 2.06-.06 4.13-.06 6.19 0 1.1 0 2.19.12 3.29.15-3-.07-.88-.1-.18 0 2 .24 4 .47 6 .8.94.16 1.87.37 2.81.53 3.09.53-.19-.18.69.11 3 1 6 1.88 8.94 3.07-3.29-1.32.89.51 1.69 1 1.16.66 2.24 1.45 3.38 2.15 2.18 1.32-1.69-1.76 0 0 .32.33.72.62 1 .93.79.74 1.44 1.68 2.23 2.39s-.74-1.84.31.56c.4.9.78 1.79 1.16 2.69.55 1.32-.19-.7-.2-.9 0 .48.15.95.13 1.43s-.42 2.79 0 1.14-.33.61-.56 1c-.65 1.19-1.3 2.35-1.85 3.59-5.33 11.85-7.39 25.07-11.14 37.45a69 69 0 0 1-2.47 7.1 16.6 16.6 0 0 0-1.16 2.36c-.39 1.66 1.54-1.74.49-.71 5.63-5.55 27.76 3.69 23.09-.14.38.32 1 2.2.74.89a10 10 0 0 0-.89-1.88c-.62-1.29-1.27-2.58-2-3.84a79 79 0 0 0-6.1-9.27 54.22 54.22 0 0 0-27.39-19.33c-24.67-7.41-50.26 2.4-64.05 23.86-16.17 25.15-12.58 58.65-4.4 85.8a212 212 0 0 0 11.45 29.27c2.85 6.05 12.8 7.35 18.45 6.2 3.31-.68 6.63-1.31 10-1.8 1.71-.26 3.43-.43 5.14-.66 3.26-.43-2.65 0 .77-.08 2.48-.09 4.93-.1 7.42-.06 3.13.06-3.5-.6.2.06 1 .17 2 .37 3 .5 2.76.37-2.77-1.11-.49-.08.93.42 3.92 2 .41 0 .61.35 1.24.63 1.84 1 1.08.65 2.41 2.44.39.16.94 1.05 2 2 2.95 3.07.18.21-.89-1.7.16.35.36.71.76 1.4 1.1 2.12a31 31 0 0 1 1.64 4.37c.12.4.83 3.55.39 1.39.16.8.31 1.6.43 2.4a90 90 0 0 1 .94 12.7c.15 10.75-.7 21.51-1.38 32.23l22.57-7.65c-19.57-7.19-45.56-9-61 7.77-12.68 13.77-15.16 34.65-16.13 52.52-1.36 25 .88 50.22 3.37 75.11 2.69 26.8 6.18 53.52 8.64 80.34 2.1 23 4.84 47.66-.09 70.46-.54 2.46 2.74 5.26 4.39 6.27a20.8 20.8 0 0 0 10.61 2.6c6.38-.24 13.62-2.1 15.1-8.94" style="fill:#fff"/></svg>