<svg xmlns="http://www.w3.org/2000/svg" viewBox="0 0 1000 1000"><defs><style>.a{fill:#fff;}</style></defs><path class="a" d="M237.65,670.64c8,26.56,21.18,51.73,40.76,71.61,18.35,18.62,41.3,31.64,65.87,40.17,56.2,19.52,119.65,16.58,177.37,6.14,59-10.67,116.57-30.24,170.5-56.28q17.77-8.6,35-18.29,7.79-4.41,15.42-9.09c5-3.07,12.12-6.27,15.73-10.92,25.76-33.19,14.36-78.8,5.73-116-3.26-14.06-7.45-27.89-10.28-42-2.89-14.41-5-29-6.94-43.52C742.11,458,738,423.53,731,389.5c-7-34.26-16.83-68.47-33.75-99.27-12-21.9-27.15-41.06-49-53.58-19.44-11.15-41.46-17.93-63.24-22.71-28.28-6.22-57.08-9.21-86-10.09-57.37-1.77-116.71,4.9-170.84,24.64-41.44,15.11-85.59,41.34-99.32,86.05q-1,3.34-1.8,6.77a30.34,30.34,0,0,0-.38,11.83c1.69,12.52,2.87,25.11,3.66,37.71,1.59,25,1.66,50.06,1.2,75.1-.94,50.47-4.14,101-1.94,151.44a525.08,525.08,0,0,0,8,73.25c1.33,7.15,30.86,4.63,30,0-18.07-97.22-1.6-196.14-6.91-294.11-.67-12.3-1.69-24.58-3.16-36.81-.57-4.71-2.08-9.87-1.24-14.56.46-2.57,1-5.12,1.72-7.64a89.57,89.57,0,0,1,12.06-26.42c11.74-17.59,28.67-31.23,46.74-41.46,22-12.44,43.07-19.81,67.23-25.87,3.13-.78,6.28-1.51,9.43-2.23.59-.14,2.86-.63.47-.12l2-.42c2-.43,4.05-.83,6.08-1.23q9.72-1.87,19.54-3.31c3.12-.46,6.24-.88,9.37-1.28.13,0,3.58-.43,1.35-.17s1.22-.13,1.35-.15c1.75-.19,3.5-.38,5.25-.55q10.53-1.06,21.09-1.66l4.23-.22c1-.05,6.81-.24,2.34-.11,3.51-.1,7-.21,10.53-.26q10.2-.15,20.39.13c1,0,6.17.24,1.71,0l5.15.23c3.41.18,6.81.38,10.21.63,6.36.46,12.69,1.07,19,1.79-4-.45,1.53.2,2.3.3l4.36.59c3.19.45,6.38.95,9.56,1.48q4.44.74,8.86,1.59l3.67.73,2.72.57c-2-.42-.62-.14.57.13,5.52,1.25,11,2.63,16.46,4.18q3.93,1.13,7.82,2.37l3.6,1.19,2,.68c.27.09,2.68.95,1.55.54C612.85,235,630,243.3,642.33,256.07c22.33,23.08,36.23,53.62,45.95,83.83,20.21,62.8,22.54,128.75,34.88,193.1,2.52,13.14,6.44,25.87,9.44,38.88,4.55,19.7,9.49,39.48,11,59.7,1.4,18.63-.25,38.5-10.41,54.69-2,3.2-3.8,6.31-6.93,8.34q-3.64,2.37-7.34,4.66-7.54,4.68-15.24,9.09a646.55,646.55,0,0,1-150.8,62.32q-10.36,2.84-20.8,5.31c-3.3.77-6.59,1.53-9.9,2.24,2-.43-2.78.58-3.57.74q-3,.63-6.06,1.21-10.68,2.05-21.46,3.67-4.92.74-9.87,1.37l-2.73.34c-2.23.27,3.32-.36-.25,0-1.81.2-3.63.4-5.45.58q-10.53,1.05-21.1,1.57l-2.69.11c.41,0,3.51-.1.78,0-1.78.05-3.56.1-5.33.13q-5.29.09-10.59,0c-1.57,0-3.15-.07-4.72-.1a8.8,8.8,0,0,1-1.75-.06q-5.17-.24-10.33-.65c-1.7-.14-3.4-.29-5.1-.46l-2-.21c-.18,0-3.52-.4-1.24-.13s-1.06-.14-1.23-.16l-2-.27q-2.74-.37-5.47-.81-4.68-.74-9.33-1.67l-1.94-.39c-3.14-.62,1.59.36-.34-.08-1.75-.4-3.51-.8-5.25-1.24-6-1.49-11.83-3.25-17.64-5.24-2.91-1,.9.34-.81-.28l-2.23-.84c-1.33-.51-2.66-1-4-1.58q-4.38-1.8-8.66-3.82a164.14,164.14,0,0,1-16.08-8.74c-20.81-12.89-37.93-31.4-50.06-52.57a181.68,181.68,0,0,1-16-38C265.37,663.08,236.56,667,237.65,670.64Z"/><path class="a" d="M437.22,422.86c-29.65,8-62.37,22.76-75.29,52.75-10.18,23.64-4.19,50.25,7.4,72.18,13.82,26.15,35.56,48.29,59.91,64.79C456,630.7,486.45,641.44,518.75,643c33.22,1.6,66.71-4.76,90.32-29.78,5.59-5.92,11.09-12.61,15-19.8,4.62-8.53,7.44-18.73,9.74-28.12a134.74,134.74,0,0,0,2.76-51.45c-4.58-31.35-21.29-59.38-44-81.1-22.37-21.44-50.39-36.95-80.14-45.45A193.5,193.5,0,0,0,464.37,380c-16.85-.44-34.42.28-50.58,5.49-23.44,7.56-40.37,25.08-44.53,49.72a93.82,93.82,0,0,0-1,20.91c.21,3.85,30.16,2.95,30,0C397,432.4,404,408.35,424.84,394.92a66.43,66.43,0,0,1,7-3.9c1.18-.57,2.38-1.1,3.59-1.6,1.75-.73,1.82-.75,3.08-1.18,2.79-.94,5.62-1.71,8.48-2.38.63-.15,1.25-.27,1.88-.4-1.51.31-.81.14.2,0,1.51-.24,3-.45,4.54-.69,1.94-.31-2.67.21-.06,0,.78-.06,1.57-.13,2.35-.21,2.31-.24-3.21.13-.88.05l2.74-.11c2.49-.13-3.73,0-1.23,0,.81,0,1.64,0,2.44,0,1,0-4-.16-1.17,0,.94.05,1.89.12,2.84.13s-3.38-.28-.73-.05c.84.08,1.68.14,2.52.21s1.44.16,2.16.22c1.62.15-2.34-.33.6.08,1.59.23,3.18.45,4.76.71l2.21.39,1.11.2c1.74.31-.87-.19.24,0a185.91,185.91,0,0,1,77,36.15C574,441,592.92,465.42,602,494a127.67,127.67,0,0,1,5.64,46.36c-1.09,17.55-5.2,36.92-13.34,52.64-6.71,13-18.23,24.67-30.32,32.68a87.83,87.83,0,0,1-17,8.7,84,84,0,0,1-9.37,2.78l-2.11.47c-1.31.3,1.54-.28.22,0l-1.07.2c-1.19.19-6.24.83-2.7.47l-2.17.22c-.65.06-3.56.18-1.12.1s-.19,0-.76,0c-3.29.16,3.56.12.33,0-.65,0-3.41,0-.58,0s-.29,0-1-.06c-2.55-.1-.17.52.63.05-.47.28-2.38-.2-3-.26-1.53-.14-1.7-.22.06,0-.87-.12-1.74-.23-2.6-.36-1.75-.25-3.48-.55-5.21-.87-1-.2.38.07.48.1l-1.49-.32-2.23-.5c-1.75-.41-3.48-.85-5.21-1.32a162.61,162.61,0,0,1-38.39-16.44c-24.66-14.3-46.76-34-62.64-57.8-13.57-20.28-23.59-45.27-19.63-70.05,4.38-27.37,25.82-45.88,50-56.74a171.08,171.08,0,0,1,25.56-8.9c5.91-1.59-4.28-3-5.38-3.14-6.54-.61-14.1-.91-20.52.82Z"/><path class="a" d="M593,279.41c-19.2,8.42-44.89,21.87-49.13,44.73-2.74,14.79,8.44,27.53,20.59,34.15,15.62,8.53,36.54,11.21,53.26,4.3,8.2-3.38,15.12-8.56,19.56-16.38,4.82-8.49,3-18.85,1.06-28-2.54-11.81-7-23.59-17.42-30.63-13.62-9.21-32.08-6.43-45.57,1.43-5.41,3.16-5.41,8.88,0,12,5.92,3.46,15.27,3.47,21.21,0,1.17-.68,2.35-1.37,3.58-1.94-2.23,1,1.24-.36,1.42-.42-4.07,1.53.51-.58.54,0l-2.06.17c1.66,0,1.25,0-1.24-.13,1,.11,2.15.8-1-.28,2.64.9-2.56-.18.12,0,.71.06,2.48,2.11.5.24.87.83,1.73,1.62,2.55,2.5.18.21,1.17,1.43.21.16a25.67,25.67,0,0,1,1.57,2.42,43.37,43.37,0,0,1,2.69,5.42,57.39,57.39,0,0,1,3.36,11.17,90.68,90.68,0,0,1,1.43,11.74c.26,4.51.58,5-1.49,8.92a28.27,28.27,0,0,1-2,3.19c1.51-2.09-1.22,1.19-1.78,1.72s-1.08.88-1.58,1.36c2.15-2,.92-.59.1-.12-1.13.65-5.16,2.23-1.21.88-.63.21-3.63.85-3.92,1.32.11-.18,3.68-.65,1.55-.39-.68.08-1.39.22-2.07.34-2.05.37-1.82-.77,1.18,0a10.9,10.9,0,0,0-2.13.07c-.6,0-1.2,0-1.79,0-3.36.07,3.44.55.75.06-1.41-.25-2.86-.47-4.29-.7-2.59-.41,2.71,1,1.11.26a12.44,12.44,0,0,0-1.74-.5c-1.39-.44-2.72-1-4.08-1.49,3.92,1.42-.42-.27-1.48-.86-1.24-.69-2.39-1.49-3.59-2.24,2.88,1.79-.19-.18-.92-.82-1-.89-2-1.85-2.88-2.83-.45-.48-.85-1-1.27-1.52,1.73,2.11.15.22-.18-.36a28.09,28.09,0,0,1-2.93-6.69c.59,2.19,0-.71-.1-1.51a28.51,28.51,0,0,1,.15-4.62c0-.45.15-.91.23-1.36-.42,2.26.26-.73.42-1.19a29.59,29.59,0,0,1,2.33-5,20.47,20.47,0,0,1,2-3.05,56.81,56.81,0,0,1,4.88-5.17c8.24-7.68,19.46-13.4,30.68-18.32,5.95-2.61,4.94-9.15,0-12-6.49-3.79-14.67-2.88-21.22,0Z"/></svg>