<svg xmlns="http://www.w3.org/2000/svg" viewBox="0 0 1000 1000"><defs><style>.a{fill:#fff;}</style></defs><path class="a" d="M103.7,789.61c2.13-84.51,22.14-168.2,47.68-248.43,24.51-77,55-152.06,88.8-225.4q19.15-41.5,39.82-82.29,4-7.91,8.05-15.77c1.17-2.26,2.33-4.52,3.5-6.77.56-1.07,1.1-2.14,1.66-3.2a13.84,13.84,0,0,0,1.23-2.2l-.11.1a17.66,17.66,0,0,1-13.4,1c-4.66-1.59-2.3-1.55-1.81,0a12.34,12.34,0,0,1,0,4.2c-.16,2.62-.32,5.23-.49,7.85q-.54,8.43-1.12,16.86Q270.25,341.61,258,447.28c-11.58,100.83-26.2,201.35-44.66,301.15q-3.79,20.51-7.81,41c-.43,2.16,3,4.22,4.39,4.86a25.73,25.73,0,0,0,10.61,2c4.87,0,13.82-.89,15-6.87,13.42-68,34.24-134.67,56.08-200.42,22.27-67.05,46.5-133.45,71.81-199.4q13.94-36.33,28.36-72.48c1.75-4.37,3.3-8.91,5.29-13.18.31-.68.75-1.3,1.05-2-.21.46.46-1.23.32-.31-.77,5-11,.75-14.07.3-1.06-.15-.33-1.26.09.16a57.57,57.57,0,0,1,1.55,6.51c1.66,11.27,2.92,22.6,4,33.94,6.26,66.22,7.13,133.1,5.48,199.55-1.84,74-6.83,148.73-21,221.54q-2.34,12-5.09,23.85c-.49,2.12,3.12,4.25,4.4,4.86a25.71,25.71,0,0,0,10.6,2c5.05,0,13.61-.91,15-6.87,15.52-66.51,33.42-132.42,52.48-198,18.59-64,38.18-127.63,56.94-191.54q8.06-27.48,15.91-55,3.92-13.79,7.76-27.59,2.07-7.44,4.11-14.88l1.8-6.56c.34-1.25.65-2.51,1-3.76,1.07-3.57,1-.55-3.39.32l-7.57.94.86,0-7.57-.94c-8.83-2.06-3.54-3.77-4.11-1.55a11.06,11.06,0,0,0,0,2.37l.13,9.45.47,35,1.55,116.43,1.88,141.38L523.27,716c.26,19.72-.46,39.74.79,59.42,0,.29,0,.58,0,.87l29.47-1.83c-12.55-35.56-16.61-75.56-15-113.88a394.84,394.84,0,0,1,25.41-124.16c15.27-40.05,38-79.09,66.55-110A275.1,275.1,0,0,1,680.32,384q3.33-2.2,6.72-4.3c1.14-.71,2.28-1.4,3.42-2.08,1.47-.88-1.24.72.24-.14l2.18-1.25q7.46-4.26,15.18-8,7.37-3.57,14.94-6.66c2.55-1,5.12-2,7.7-3,.65-.24,4.39-1.56,1.86-.68,1.64-.57,3.29-1.14,5-1.68q8.31-2.72,16.78-4.87,4.19-1.06,8.38-2l4.25-.91c.45-.09,2.76-.55.88-.18s1-.19,1.44-.26q9-1.65,18.16-2.69c3-.35,6-.64,9.05-.9,1.52-.12,3.06-.21,4.58-.34,2.19-.2-2.73.12-.52,0l2.9-.16q10.07-.47,20.14-.29,4.88.09,9.73.31c1,.05,5.73.35,2.18.1,1.86.13,3.73.26,5.59.41q10.51.85,21,2.33c3.47.48,6.94,1,10.4,1.6,1.75.29,3.51.6,5.26.92l2.64.49c-1.95-.37.25.05,1.07.21,7.5,1.5,15,3.23,22.35,5.11l15.14-11.86c-28-7.14-57.68-7.41-86.16-2.7C803,345.43,774.17,355.1,747,368.06A435.27,435.27,0,0,0,668,417a460.7,460.7,0,0,0-67.76,64.46c-18.78,21.92-35.48,45.84-48.3,71.75-11.48,23.2-20.08,48.44-22.51,74.33-2.21,23.61,1.33,47.74,11.68,69.19,11.54,23.93,31.28,43.27,53.53,57.38,31.62,20,67.9,31.82,104.39,39.25,53.19,10.84,107.75,13.74,161.94,13,15.76-.23,31.53-.8,47.28-1.62,4.17-.22,14.79-.79,15-6.88.19-5.72-11.51-7.05-15-6.87-30.45,1.6-61,2.23-91.44,1.32q-10.33-.31-20.65-.86l-4.4-.25c3.52.19-1.24-.09-2.21-.15-3.44-.23-6.89-.49-10.33-.77q-18.06-1.47-36-3.92-8.51-1.17-17-2.61c-2.55-.44-5.11-.89-7.65-1.37l-2-.38c-2-.35,2.52.52.59.12-1.47-.31-2.95-.59-4.43-.9q-14.67-3-29.1-7.11-6.81-1.94-13.55-4.15l-2.85-1c-1.14-.39-3.61-1.26-1-.32-2.22-.79-4.43-1.6-6.63-2.45-7.69-2.94-15.26-6.21-22.63-9.88q-5.25-2.61-10.35-5.49l-2.46-1.42c-1.64-.93,1.67,1.05-.37-.23-1.66-1-3.33-2.05-5-3.12a168.38,168.38,0,0,1-16.61-12.25q-3.79-3.18-7.37-6.61-1.64-1.56-3.22-3.18L590,722.31c-1.6-1.66.54.63-.69-.75a131.84,131.84,0,0,1-11.06-14.2,118.94,118.94,0,0,1-14.69-31c-.55-1.77.28,1.07-.2-.73-.17-.6-.33-1.19-.49-1.79-.38-1.46-.74-2.92-1.06-4.39q-.93-4.17-1.56-8.38a130.25,130.25,0,0,1-1.41-16.85,158,158,0,0,1,3.41-35.1q.94-4.53,2.1-9c.37-1.41.75-2.82,1.15-4.23.09-.34.79-2.71.28-1,.25-.85.51-1.7.78-2.54,1.88-6.05,4-12,6.42-17.89,10.35-25.51,24.86-49.25,41.5-71.12q6.67-8.78,13.83-17.17,3.62-4.24,7.34-8.4,1.64-1.83,3.3-3.63c-1.32,1.43.51-.54.88-.94L642,470.9q15.5-16.36,32.6-31.12t35.68-27.92q9.13-6.42,18.57-12.4c3.17-2,6.38-4,9.6-5.89-2.54,1.52,0,0,.68-.39l2.42-1.4c1.61-.93,3.23-1.84,4.86-2.75a371.66,371.66,0,0,1,39.16-19q5-2,10-3.93c1.55-.58,3.12-1.13,4.67-1.71-2.24.83-1.57.55.08,0l2.49-.85q9.84-3.3,19.91-5.91,4.92-1.26,9.9-2.34c1.54-.33,3.09-.62,4.63-.95.26-.06-3.67.66-.51.1l2.77-.49c6.36-1.08,12.76-1.91,19.19-2.44l2.42-.18c2.87-.23-3.66.18-1.28.07,1.7-.07,3.39-.17,5.09-.22,3.07-.09,6.14-.12,9.21-.06q2.35,0,4.71.15c.78,0,1.56.12,2.34.12-1.82,0-3.89-.28-1.07,0,3.09.25,6.17.55,9.24.95,2.84.38,5.68,1.06,8.52,1.36-5.32-.56-.05,0,1.46.35s3,.69,4.44,1.06c6.18,1.57,15.3,1.87,20.53-2.46s-1.23-8.34-5.39-9.4c-57.28-14.6-117.69-18.59-175.55-4.82a276.65,276.65,0,0,0-123.8,66.14c-33.21,30.85-59,69-77.23,110.41a406.45,406.45,0,0,0-32.71,128.69c-3.42,40.21-.88,81.36,10.47,120.21,1.4,4.79,2.9,9.54,4.56,14.25,2.66,7.53,29.59,7.31,29.46-1.83L553.74,751l-.88-65.52-1.21-91-1.33-100.12-1.26-94.34-1-73.27c-.17-12.3-.17-24.62-.49-36.92,0-.55,0-1.12,0-1.66-.93-8.75-12.12-10.59-19.17-10.59-4.71,0-10.72.92-14.59,3.93-3,2.32-3.5,5.07-4.45,8.55q-12.62,46.42-26.15,92.57c-17.22,59.1-35.26,118-52.67,177-17.66,59.9-34.66,120-49.8,180.59q-5.89,23.54-11.4,47.17h30c17-73.34,22.81-149.37,25.47-224.44,2.48-70.15,1.94-140.75-4-210.73-1.05-12.46-2.31-24.9-4-37.29-.75-5.55-.73-13-4.34-17.53-7.65-9.53-24.86-10-35.21-5.52-7,3.08-9.26,8.35-11.91,15q-3,7.53-6,15.08-7,17.67-13.92,35.39C320.05,422.62,295.68,488.27,273,554.51c-23.86,69.72-46.59,140.25-62.76,212.21q-2.53,11.29-4.78,22.66h30c20.66-105.29,36.87-211.45,49.64-318q13.51-112.75,21.72-226.09,1.21-17.24,2.29-34.49c.78-12.6-11.59-17.14-22.47-17.26-6.23-.06-13.24,1.15-18.23,5.15-2.89,2.31-4.32,5.73-6,8.91q-18.94,36.54-36.72,73.68c-34.52,72.22-65.84,146.1-91.88,221.82C105.34,586,81.82,672.2,75.2,759.9q-1.12,14.83-1.5,29.71c-.24,9.47,29.75,9.81,30,0Z"/></svg>