<svg xmlns="http://www.w3.org/2000/svg" viewBox="0 0 1000 1000"><defs><style>.a{fill:#fff;}</style></defs><path class="a" d="M181,308.67,131.62,529.76c-6.87,30.79-15.42,62.42-13.3,94.26,1.88,28.3,14.61,54.07,38.69,69.78,22.88,14.93,51.11,19.71,77.82,22.2,33.95,3.16,68.32,2.33,102.37,2.77,75,1,149.94,2.1,224.92,2.84,72.62.72,145.79.07,217.67-11.43,17.77-2.85,35.45-6.31,52.93-10.64,8.46-2.09,16.9-4.35,25.24-6.89,6.77-2.06,13.86-4.34,18.61-9.91,9.78-11.47,4.43-30.51,2.21-43.74-3-18-7-35.78-11.55-53.42-9.16-35.48-20.67-70.3-32-105.14L800.69,373.81,783.25,320c-2.65-8.18-5-16.55-8.08-24.58-2.39-6.24-6-12.3-12.55-14.75-10.24-3.84-23.09-2.88-33.75-1.92-9.54.86-19.06,2-28.58,3.06l-56.66,6.07L418,312.1c-74,7.93-148.15,14.88-221.61,26.78q-27.39,4.44-54.6,9.9a2.51,2.51,0,0,0-2.05,1.05c46,82.84,117.35,151,201.63,194.09a470,470,0,0,0,66.26,27.78c26.86,8.92,54.06,16,82.61,15.06,14.76-.48,29.71-2.7,42-11.45,10.15-7.22,18-17.17,25.91-26.66l58.61-70.45,133.8-160.84c.56-.67-5.21-1.58-4.4-1.46a73.65,73.65,0,0,0-10.6-.61,72.38,72.38,0,0,0-10.61.61c-1.43.21-3.41.29-4.39,1.46L607.18,453.69l-56.06,67.39c-9.19,11-18.34,22.13-27.57,33.14-7.79,9.28-16.11,18.59-27.07,24.17a45,45,0,0,1-8,3.18c-1.06.3-10.07,2.26-4,1.14,2-.37-3.14-.4-3.3-.43-3.29-.46-6.54-1.1-9.79-1.83-11.3-2.53-22.47-5.81-33.48-9.39a463.7,463.7,0,0,1-62.19-25.49,485.45,485.45,0,0,1-112-76.8,472.41,472.41,0,0,1-94-118.94l-2,1.05C238,336.68,309.39,329,380.63,321.32l216.63-23.23,109.33-11.73,26.84-2.88c3.79-.4,7.66-.62,11.43-1.2,3.43-.53-11.39-.54-11.26-.44.63.46,2.09.77,2.88,1.24a14.9,14.9,0,0,1,4,3.57c4.54,5.66,6.28,13.4,8.47,20.16l8.26,25.47c22.17,68.38,45.15,136.55,66.28,205.26C833.77,570.86,843,604.59,848.78,639c2.16,12.83,7.53,31.88-1.75,43.16-4.7,5.72-12.53,7.71-19.32,9.68q-12.19,3.54-24.55,6.5c-65.3,15.7-133.1,19.11-199.42,19.3-71.54.21-143.11-1.45-214.64-2.36q-54.39-.71-108.78-1.39c-.85,0-4.18-.07-1.63,0-1.66,0-3.31-.07-5-.12q-5-.13-10-.36c-.52,0-4.84-.26-2.9-.14-1.44-.09-2.89-.19-4.33-.3-3-.22-6.72-.53-9.22-.8a173.82,173.82,0,0,1-36.33-7.54c-24.84-8.34-46.09-24.76-56-49.59-10.8-27.18-7.27-57.82-1.9-85.79,6.55-34.1,14.91-67.92,22.47-101.8l23.69-106.17L211,308.67c.42-1.88-13.77-2.08-15-2.08-2,0-14.38-.72-15,2.08Z"/></svg>