<svg xmlns="http://www.w3.org/2000/svg" viewBox="0 0 1000 1000"><defs><style>.a{fill:#fff;}</style></defs><path class="a" d="M736.94,284c-.1-.07-.17-.1-.18-.07S736.82,283.94,736.94,284Z"/><path class="a" d="M.5,19.53V981.47a19,19,0,0,0,19,19h962a19,19,0,0,0,19-19V19.53a19,19,0,0,0-19-19H19.52A19,19,0,0,0,.5,19.53ZM876,683.81c-5.12,5.87-13.22,8.44-20.41,10.63-8.35,2.53-16.78,4.79-25.25,6.89-17.7,4.38-35.61,8-53.62,10.84-71.53,11.45-144.26,12.1-216.52,11.36-74.68-.77-149.35-1.89-224-2.84-33.22-.43-66.84.5-99.94-2.83-27.7-2.78-56.24-8.27-79.81-23.91-55.93-37.14-36.95-109.9-24.83-164.19q14.92-66.9,29.86-133.8a19,19,0,0,0-2.7-14.63Q149,366.5,140.3,350.9c-1.85-3.33,4.81-4.11,6.89-4.53q7.11-1.44,14.23-2.79a19,19,0,0,0,15-14.54q2.28-10.19,4.55-20.37c1.61-7.21,30.87-3.91,30,0l-.06.27a19,19,0,0,0,21.27,23c63.92-9.17,128.28-15.32,192.46-22.21l224.63-24.09,56.65-6.07c9.12-1,18.25-2.15,27.39-2.92,10.33-.87,23.12-1.1,32.11,4.84,5.57,3.68,8.36,9.91,10.51,16,2.94,8.39,5.51,16.92,8.25,25.37q8.72,26.89,17.44,53.79l34.57,106.63c11.19,34.51,22.54,69,31.53,104.17,4.51,17.65,8.43,35.47,11.38,53.45C881.29,654.24,886,672.36,876,683.81Z"/><path class="a" d="M170.85,351.62l.38.66.17-.77Z"/><path class="a" d="M823.51,537.54c-21.13-68.71-44.11-136.88-66.28-205.26q-4.14-12.73-8.26-25.47c-2.21-6.8-3.88-14.71-8.82-20.15,0,0,0,0-.06-.06a6,6,0,0,0-4.82-1.63l-8.46.91L700,288.76,590.64,300.49,374,323.72c-55.9,6-111.85,12.15-167.3,21.42a6.08,6.08,0,0,0-4.94,4.69q-1.29,5.71-2.56,11.43l-5.28,23.68a6.13,6.13,0,0,0,.95,4.83A480.26,480.26,0,0,0,375,544.44a453,453,0,0,0,62.12,25.3,320.36,320.36,0,0,0,33.75,9.3c2.82.57,5.7,1.08,8.57,1.42l.51,0,3,.22.39,0,1,0a6.26,6.26,0,0,0,.75,0,31.91,31.91,0,0,0,11.5-3.15c10.75-5,19-14.33,26.49-23.23,9.63-11.39,19.09-22.92,28.62-34.38l56.07-67.4L721.12,316.3c1.42-1.71,4.83-2.06,6.9-2.4a49.59,49.59,0,0,1,11.55-.4c1.46.11,13.55,1.24,10.48,4.93L617.53,477.73,558.28,549c-8.28,10-16.47,20.48-27.33,27.78-12.11,8.16-26.26,11.28-40.69,11.9-27.94,1.19-55.44-6.74-81.66-15.62a486.8,486.8,0,0,1-65.7-27.61A490.18,490.18,0,0,1,194.23,428.3,6.09,6.09,0,0,0,183.67,431q-4.06,18.24-8.14,36.48c-7.56,33.88-15.92,67.7-22.47,101.8-5.37,28-8.9,58.61,1.9,85.79,9.52,24,30.6,40.49,54.74,48.17a155.82,155.82,0,0,0,16.75,4.31q4.92.93,9.89,1.65,2.5.36,5,.66l1.52.18.64.07q10.08,1,20.19,1.46l3.28.14c1.39.05,2.79.09,4.18.12,3,.08,6.11.13,9.16.17q54.39.74,108.78,1.39c71.53.92,143.1,2.57,214.64,2.37,66.78-.19,134.28-3.16,199.94-18.72q12.36-2.93,24.56-6.42c6.39-1.83,13.6-3.32,18.34-8.35,10.06-10.65,4.32-30.61,2.2-43.22C843,604.59,833.77,570.86,823.51,537.54Z"/></svg>