<svg xmlns="http://www.w3.org/2000/svg" viewBox="0 0 1000 1000"><defs><style>.b{fill:#fff}</style></defs><g style="opacity:.5"><path d="M488.22 556c88.62 12.57 182.26 39 270.58 10.53a214.6 214.6 0 0 0 33.06-13.75c9.67-5 18.49-11.48 27.67-17 12.79-7.78 24.07-18.84 28.47-33.49 8.25-27.64-6.3-56.36-25.67-75.65-24.89-24.8-65.17-38.11-97.84-20.5l25.07 7.78c13.35-34 4.61-70.71-19.19-97.74-23.97-27.18-61.76-40.6-97.24-32.18-21.2 5-38.09 19-50.12 36.77l28.93 4.23c6.51-15.25 8.28-32.5.08-47.5-7.79-14.24-21.92-23.71-36.59-29.75-31.74-13.06-75.09-14.38-104.28 5.81-14.63 10.12-22.38 26-20.59 43.87l29.44-2.09c-32.35-58.79-124.35-57.92-162-5-9.88 13.88-14.32 31.14-13.59 48.06l25.59-5.7c-23.19-15.43-53.06-34.17-82.37-28.34-10.14 2-18.41 6.87-24.56 15.17-4.24 5.72-6.85 12.48-9.27 19.12-2.63 7.21-5 14.56-8.33 21.49a75 75 0 0 1-5.53 9.29c-1.14 1.7 1.32-1.32-.36.42-.62.64-1.2 1.33-1.84 2s-1.31 1.24-2 1.82c-.51.43-3.16 2.29-1.43 1.16s-.7.37-1.19.65c-.24.13-2.26 1.42-2.55 1.25-.09-.05 3.37-1.14 1.13-.49-.48.14-.94.34-1.42.49s-.79.21-1.17.34c-2.94 1 1.75-.19.81-.16a25 25 0 0 0-2.95.45c-3.78.54 3.71 0-.26 0-6.94-.07-13 .82-18.08 6-12.72 13.13-19.12 29.86-19.11 48.09 0 20.16 6.21 39.83 10.72 59.29 4.42 19.08 8.53 40 3.32 59.41-3.38 12.54 21.63 11.5 27.41 6.16l-5.39 2.87c-1 .34-10.43 1.18-5 .94 2-.09 4.11-.15 6.16-.22q10.88-.35 21.75-.62 34.8-.91 69.6-1.62c54.79-1.14 109.59-2.22 164.39-2.33 10.62 0 21.23 0 31.84.19 3.56.07 7.12.15 10.68.31 1.35.06 2.71.18 4.06.22-6.71-.18-2.58-.21-.87 0 5.55.71 15.57.4 18.46-5.59s-6.35-9.3-10.48-9.83c-15-1.93-30.51-1.29-45.56-1.3-25.93 0-51.85.28-77.78.65q-80.52 1.13-161 3.22c-8.48.22-17 .44-25.44.71-6.85.23-16-.57-21.31 4.33l27.41 6.16c6.19-23 2.08-45.72-3.36-68.39-5.09-21.23-12.06-43.63-8.84-65.68a54 54 0 0 1 16.36-31l-13 4c14.19.39 29.58-3.14 40-13.41 7.46-7.38 11.8-17 15.38-26.66 3.31-9 6-18.4 11-26.57.57-.92 1.24-1.77 1.81-2.68.94-1.5-.68.76-.31.37s.71-.86 1.11-1.26c.72-.73 1.47-1.43 2.22-2.13.31-.27.89-.54 1.11-.88.05-.08-2.39 1.33-.59.42.75-.38 3.86-1.68 1.48-.91-2.71.87 1.38-.14 1.81-.5-.88.74-3.77.57-1.25.33a13 13 0 0 0 1.65-.2c.76-.2-4.22 0-1.67.15.69 0 1.44.05 2.13 0 2.18-.07-4.12-.55-.74 0l2.42.36c.35.05.71.14 1.06.19 2 .28-1.16-.37-1.37-.32.76-.18 2.36.6 3.09.81 2 .56 3.9 1.21 5.81 1.91.53.2 3.46 1.35 2.06.78s2.07.91 2.71 1.2c12 5.44 23.26 12.41 34.2 19.7 4.31 2.86 11.7 2.79 16.39 1.65 3.28-.8 9.41-2.88 9.22-7.31-.58-13.48 1.92-25.89 8.58-37.62a55 55 0 0 1 10.26-13.53 74 74 0 0 1 6.48-5.81 81 81 0 0 1 3.47-2.63c-1.75 1.26 0 0 .45-.3.82-.52 1.63-1 2.46-1.55a87 87 0 0 1 8.13-4.33c1-.45 4-1.67 1.43-.67 1.66-.64 3.33-1.27 5-1.82 1.39-.46 2.79-.88 4.19-1.27.78-.21 1.59-.35 2.36-.6 2-.65-3.44.57-.26.06 3-.48 6.58-1.7 9.61-1.4-.26 0-3.75.13-1.09.08.65 0 1.3-.06 1.94-.08 1.62-.05 3.23-.05 4.85 0 .64 0 1.29.07 1.94.08 3.29 0-2.73-.42-.61 0 1.73.31 3.53.39 5.28.67 1.27.21 2.54.47 3.8.72-4.09-.8 1.21.37 2.05.62 1.4.41 2.78.86 4.15 1.36.76.27 1.52.56 2.27.86-2-.78-.61-.27.55.28a84 84 0 0 1 9 5c1.62 1-2-1.54.53.36.81.6 1.61 1.2 2.39 1.83q2 1.58 3.86 3.3a64.3 64.3 0 0 1 13.57 17.67c2.9 5.27 11.23 6.15 16.46 5.72 3.84-.31 13.58-2.12 13-7.85a50 50 0 0 1 0-10.65c.18-1.51.44-3 .77-4.5.27-1.23-.39 1.33 0 .14.1-.32.18-.65.29-1 .29-.84.56-1.69.88-2.52a46 46 0 0 1 4.31-8c.58-.91 1-1.33 0-.14.48-.58 1-1.15 1.47-1.71a44 44 0 0 1 3.23-3.19c1.15-1 2.4-1.91 3.59-2.88.49-.41-2 1.23-.15.11.77-.47 1.53-1 2.31-1.41 1.28-.75 2.6-1.44 3.94-2.09.71-.34 1.55-.6 2.22-1 1.12-.67-1.49.6-1.41.57.56-.19 1.1-.44 1.66-.64 1.47-.52 2.94-1 4.43-1.48q1.23-.37 2.46-.69c.93-.25 3.64-.28 1.44-.38s-.08 0 .77-.13 1.72-.31 2.59-.45c1.76-.28 3.52-.51 5.29-.69.58-.06 4-.33 1.07-.12s.38 0 1.1 0c1.82-.08 3.64-.1 5.46-.08.59 0 5.18.59 5.49.21-.38.47-3.92-.37-.84 0 1 .1 2.09.2 3.13.33 1.7.21 3.39.45 5.07.74.91.15 1.81.31 2.71.49l1.16.24c2.39.45-.11-.31-.91-.22 2.89-.34 7.7 2.09 10.43 3.05.72.25 1.44.53 2.15.79 2.45.9 0-.05.14 0 1.52.84 3.21 1.43 4.77 2.21s3.06 1.6 4.54 2.47c.63.37 1.25.76 1.87 1.14.41.25.81.54 1.22.78 1.26.76-1.73-1.26-.56-.4a70 70 0 0 1 7.56 6.3c1.06 1.05 2.05 2.16 3 3.27.3.34.59.7.87 1.05 0 0-1.08-1.43-.47-.57s1.06 1.46 1.56 2.21a42.8 42.8 0 0 1 4.66 9.32c.31.86.57 1.72.83 2.6.39 1.34-.15-1 .18.89a53 53 0 0 1 .75 5.6c.6 9.17-1.21 15.84-4.59 23.76-2.6 6.1 6 9.16 10.48 9.83 6.19.93 14.64.06 18.45-5.58a78.5 78.5 0 0 1 16-17.55c.89-.71 1.79-1.4 2.72-2.06-.4.28-1.45.94.41-.27 1.52-1 3.08-1.91 4.68-2.76s3.16-1.59 4.77-2.31c-2.55 1.13 1.86-.63 2.8-.93s6.15-1.44 2.33-.75c1.66-.3 3.3-.63 5-.84.33 0 3.66-.41 1-.16s.67 0 1 0c1.84-.06 3.68.11 5.51.05 2.19-.06-3.83-.46-.48 0 .67.09 1.34.15 2 .23 1.67.23 3.32.55 5 .85-3.91-.69 1.5.42 2.33.66 1.81.52 3.57 1.16 5.35 1.76.65.22 2.84 1.13.32.08.64.26 1.28.54 1.91.82q2.37 1.08 4.68 2.28c2.85 1.49 7.07 4.05 8.73 5.22A107 107 0 0 1 703.34 323a92 92 0 0 1 20.37 37.57 80.23 80.23 0 0 1-3.11 49.07c-1.87 4.77 3 7.79 6.9 9 5.66 1.81 12.89 1.6 18.17-1.25 1.34-.72 2.7-1.37 4.08-2-3.21 1.44 1.15-.27 2-.56.56-.19 1.14-.29 1.7-.46-3.48 1.09-1.63.31-.59.16l2.16-.34c2.09-.34 1.87-1.11-.51-.05 1.07-.48 3.24-.06 4.37-.06 4 0-2.49-.46.85.07 1.31.21 2.64.45 4 .62 3 .37-2.38-.75-.51-.14 1 .33 2.06.53 3.07.84 1.17.34 2.33.73 3.49 1.14.87.31 1.73.65 2.59 1-.38-.15-2.48-1.17-.45-.16 2.83 1.42 5.68 2.76 8.41 4.38 1.39.82 2.74 1.69 4.08 2.58-1.83-1.23 1.95 1.44 2.41 1.79 2.6 2 5.11 4.13 7.5 6.38 16.72 15.7 30.28 39.84 25.11 64.09a49.2 49.2 0 0 1-6.8 14.8 38 38 0 0 1-5.22 5.93 52 52 0 0 1-4 3.47 34 34 0 0 1-3.09 2.3C783.73 534 767 544.61 748.76 551c-19.11 6.73-36.52 10-57.27 11.4 2.29-.16-.32 0-.65 0-1.56.08-3.11.18-4.66.24q-3.1.15-6.23.22-8.61.21-17.23 0c-10.56-.24-18.71-.75-27.61-1.56-46.68-4.21-92.56-14.17-138.91-20.75-5.52-.78-15.59-.36-18.45 5.58s6.36 9.31 10.47 9.87M290.61 634.81c-.77 23 5.52 46 18.83 64.9 13.21 18.72 31.91 32.9 52.45 42.72C407 764 463 766.62 509.51 748.24c24.22-9.57 45.53-26.26 59.06-48.66 5-8.25-24-11.83-28.93-3.63a96 96 0 0 1-19.39 23.4 111 111 0 0 1-12 9.13 89 89 0 0 1-3.19 2c-1.73 1.08-.45.29-.09.07-.54.32-1.09.63-1.64.94-2.35 1.3-4.73 2.54-7.16 3.69-2.15 1-4.32 2-6.53 2.87-1.17.48-2.36.94-3.55 1.39l-1.8.66c3-1.07-.14 0-.59.17-4.92 1.56-9.87 2.88-14.9 4-.64.14-1.27.25-1.9.39 3.32-.72 1.46-.27.71-.16-1.28.2-2.56.44-3.84.63-2.74.42-5.49.75-8.24 1-1.3.13-2.62.18-3.91.33-1.7.2 1.61-.09 1.54-.08-.64.07-1.32.07-2 .1-2.95.11-5.9.18-8.85.15-2.47 0-4.94-.17-7.4-.22-2.05 0 3.07.28 1 .06-.66-.07-1.32-.1-2-.15-1.48-.12-3-.26-4.43-.42-2.62-.28-5.23-.63-7.83-1-1.3-.21-2.6-.45-3.9-.65-.74-.12-2.61-.57.67.13l-2.41-.49q-7.93-1.68-15.67-4.13c-1.09-.34-2.17-.71-3.26-1.07-1.72-.56 2 .73.27.1l-1.83-.67c-2.57-1-5.13-2-7.65-3.1a112 112 0 0 1-25.74-14.8 105.8 105.8 0 0 1-20.8-20c-14.71-18.86-21.59-41.53-20.79-65.36.32-9.34-29.67-9.77-30 0Z" class="b"/></g></svg>