<svg xmlns="http://www.w3.org/2000/svg" viewBox="0 0 1080 1080"><defs><style>.cls-1{fill:#d3b16f;}.cls-2{fill:#fff;}.cls-3{fill:#090407;}.cls-4{fill:#958b8a;}.cls-5{fill:#ef5d29;}.cls-6{fill:#18130f;}.cls-7{fill:#c2981d;}</style></defs><title>gulls</title><g id="trasp"><path class="cls-1" d="M675.49,727.5c-1.44,3.74-1.52,7.85-1.4,11.86,1.29,43,23,85.19,14.56,127.33-2,10-5.18,21.82,1.86,29.17a55.59,55.59,0,0,1,17.83-9.22c1.57-8.56-3-16.86-5.58-25.18-5-16.14-2.29-33.48-.5-50.26,4.06-38.16,5.8-79.2,2-117.39-10.07-3.25-10.58,4.07-14.16,10.29C685.93,711.34,678.49,719.73,675.49,727.5Z"/><path class="cls-1" d="M604,790.78c3,20.37,5.87,41.17,2.33,61.45-1.15,6.54-3,13.11-2.33,19.72a5.53,5.53,0,0,0,1.41,3.68c2,1.77,5.11.36,7-1.49,8.5-8.33,7.35-22,6-33.87a550,550,0,0,1-.63-106.38c.27-2.73.7,2.16,2.79.38,1.82-1.55,4.6-1.88,6-3.83,1.89-2.68-.15-6.42-2.64-8.56s-5.63-4-6.56-7.13c-.56-1.91-.29-4.26-1.8-5.56a5.18,5.18,0,0,0-3-1c-22.86-2-19.64,3.89-17,20.43C598.51,746.71,601.31,772.68,604,790.78Z"/><path class="cls-2" d="M10.08,596.8C68,581,94.31,586.27,94.31,586.27h0L291.72,523.1l123.71-44.75s128-74.07,173.72-92.13C623.08,372.82,730,348.06,730,348.06s-21.06-134.24,88.18-161.88c30.73-7.77,81.08,8.93,97.39,13.16,35.53,9.21,55.28,57.91,55.28,57.91s52.64,13.16,73.7,29c11.19,8.39,13.16,26.32,13.16,26.32L965.56,302s-42.77,20.16-46.06,32.9c-6.79,26.27,34.22,76.33,26.32,105.29s-31.59,89.49-34.22,105.29-57.91,73.7-76.33,89.49S708.92,703.4,708.92,703.4L566.78,713.93s-142.14-10.53-150-18.43-5.26-29-5.26-29l-73.7-23.69-79-15.79-47.38-2.63Z"/><path class="cls-3" d="M248.18,532.83C211,551,172.52,548.41,133.55,561.43c-26,8.7-148.41,25.84-34.47,24.3A314.85,314.85,0,0,0,4.35,615c39.85-2.57,421.57,14.51,415.32-12.21C373.22,562.49,317.23,499.11,248.18,532.83Z"/><path class="cls-4" d="M331.87,569.37c87,19,250.44,103,330.93,78.68,69.82-21.1,232.33-134.54,181-221.89-69.44-118.12-278.09-29.29-358.51,11C438.88,460.32,168,533.62,331.87,569.37Z"/><path class="cls-5" d="M881.34,256.08c.3,11.86,22.47,16.51,28,1.29C913.6,245.57,880.68,230.36,881.34,256.08Z"/><path class="cls-6" d="M885.22,255.37c.22,9.77,16.11,13.59,20.07,1.06C908.36,246.72,884.75,234.19,885.22,255.37Z"/><path class="cls-7" d="M1060.54,317.42c4,.76,9.79,2.9,13.49,3.14a1.53,1.53,0,0,0,1.57-1.9c-1.91-7.69-1.47-17.84-26.73-32.89-4.43-2.64-27.79-14.54-36.25-16.89-10.91-3-15.4-3.59-23.76-5a2.36,2.36,0,0,0-2.31,3.73c5,6.51,4.46,12.76,4.85,13S878.7,273,965.56,296.73c6.14,1.67-5.26,5.26,2.77,6.3C986.1,305.33,1051.75,315.73,1060.54,317.42Z"/><path class="cls-5" d="M1065.58,312.52c2.63,2.63,4.75,7.8,8.46,8a1.53,1.53,0,0,0,1.57-1.9c-1.91-7.69-.14-7.11-4.76-14C1060.32,288.83,1065.58,312.52,1065.58,312.52Z"/><path class="cls-2" d="M6.35,1010.47l6.33-.79V966.39l-7.61-1.68v-4.45l12.55-1.58,2.17,1.58v4.35l-.1,2.47a39.24,39.24,0,0,1,9.59-5.83,26.58,26.58,0,0,1,10.77-2.67,17.64,17.64,0,0,1,8.55,1.78,11.41,11.41,0,0,1,4.89,5.54A33.73,33.73,0,0,1,62.44,961a29.15,29.15,0,0,1,10.82-2.37q6.23,0,9.64,2.37a12.68,12.68,0,0,1,4.79,7.31,51.39,51.39,0,0,1,1.38,13.34v28.07l7.51.79v4.25H74.45v-4.25l6.72-.79V981.91a43.64,43.64,0,0,0-.89-9.88,9.28,9.28,0,0,0-3.46-5.54q-2.57-1.88-7.51-1.88a20.29,20.29,0,0,0-7.66,1.63,32.73,32.73,0,0,0-6.87,3.71,57.78,57.78,0,0,1,1,11.86v27.87l7.51.79v4.25H40.64v-4.25l7.12-.79v-28a51.1,51.1,0,0,0-.74-9.88,8.55,8.55,0,0,0-3.11-5.34q-2.37-1.78-7-1.78a21.32,21.32,0,0,0-8.35,1.93,34.13,34.13,0,0,0-7.86,4.6v38.45l7,.79v4.25H6.35Z"/><path class="cls-2" d="M113.78,986.4q9.49-4.3,23.62-4.6v-3.06a24.5,24.5,0,0,0-1-8,7.36,7.36,0,0,0-3.61-4.25,15.92,15.92,0,0,0-7.21-1.33,26,26,0,0,0-9.14,1.53,56.5,56.5,0,0,0-8,3.71l-2.17-4.35a24.18,24.18,0,0,1,4.55-2.77,49.41,49.41,0,0,1,7.91-3.16,28.92,28.92,0,0,1,8.6-1.38q6.72,0,10.63,1.88a11.24,11.24,0,0,1,5.63,6,29.64,29.64,0,0,1,1.73,11.17v32.62h6.13v3.66a36,36,0,0,1-9.19,1.48,5.27,5.27,0,0,1-3.26-.74q-.89-.74-.89-3.41v-3.66a46.77,46.77,0,0,1-7.76,5.58,18.76,18.76,0,0,1-9.54,2.42,17.7,17.7,0,0,1-11.81-4q-4.7-4-4.7-11.56Q104.29,990.7,113.78,986.4Zm16.6,21.79a35.46,35.46,0,0,0,7-4.25V986.45q-12,.1-18.14,3.56t-6.18,9.29q0,5.63,2.87,8.15a11.41,11.41,0,0,0,7.81,2.52A16.34,16.34,0,0,0,130.38,1008.2Z"/><path class="cls-2" d="M167.94,1013.39q-2.67-2.42-2.67-8.65v-39h-7.51v-3.85a29.11,29.11,0,0,0,5.73-1.58,4.84,4.84,0,0,0,2.18-3.06,50.23,50.23,0,0,0,1.58-5.34q1-3.85,1.48-6h4.55v14h17.49v5.83H173.28v32a55,55,0,0,0,.4,8.06,4.06,4.06,0,0,0,1.58,3,8.88,8.88,0,0,0,4.15.69,29.83,29.83,0,0,0,6.42-.79,24.41,24.41,0,0,0,5.34-1.68l1.29,3.76a24.56,24.56,0,0,1-7.51,3.41,31.24,31.24,0,0,1-9.09,1.63Q170.61,1015.81,167.94,1013.39Z"/><path class="cls-2" d="M208.07,1013.39q-2.67-2.42-2.67-8.65v-39h-7.51v-3.85a29.2,29.2,0,0,0,5.73-1.58,4.84,4.84,0,0,0,2.17-3.06,50.1,50.1,0,0,0,1.58-5.34q1-3.85,1.48-6h4.55v14H230.9v5.83H213.41v32a55.4,55.4,0,0,0,.39,8.06,4.06,4.06,0,0,0,1.58,3,8.87,8.87,0,0,0,4.15.69,29.81,29.81,0,0,0,6.42-.79,24.39,24.39,0,0,0,5.34-1.68l1.29,3.76a24.58,24.58,0,0,1-7.51,3.41,31.27,31.27,0,0,1-9.09,1.63Q210.74,1015.81,208.07,1013.39Z"/><path class="cls-2" d="M245.38,1007.95q-6.18-7.86-6.18-20.9a32.91,32.91,0,0,1,3.26-14.92,24.59,24.59,0,0,1,9-10.13,24,24,0,0,1,13-3.61q8.79,0,13.69,5T283.48,978a43.73,43.73,0,0,1-.59,8.7H247.7q0,10.38,4.69,17a15.27,15.27,0,0,0,13.2,6.57,26.26,26.26,0,0,0,8.5-1.48,20,20,0,0,0,6.72-3.56l1.58,3.66a22.09,22.09,0,0,1-8.35,5,31.63,31.63,0,0,1-11,2Q251.55,1015.81,245.38,1007.95ZM274.58,982a30.78,30.78,0,0,0,.3-4.35q-.1-6.52-3.12-10.38t-9.24-3.86Q249,963.42,247.8,982Z"/><path class="cls-2" d="M296,971.83a25.68,25.68,0,0,1,9.49-10,23.92,23.92,0,0,1,12.3-3.46q12.45,0,18.43,8.1t6,20.75a30.75,30.75,0,0,1-3.61,15.12,25.7,25.7,0,0,1-9.49,10,23.9,23.9,0,0,1-12.3,3.46q-12.45,0-18.43-8.1t-6-20.75A30.72,30.72,0,0,1,296,971.83Zm33.06,33q4.15-5.83,4.15-17,0-10.67-3.85-17.49t-12-6.82a13.71,13.71,0,0,0-11.81,5.83q-4.2,5.83-4.2,17,0,10.77,3.9,17.54t12,6.77A13.59,13.59,0,0,0,329,1004.84Z"/><path class="cls-2" d="M353.21,973a24.83,24.83,0,0,1,9.29-10.62q6.17-4,15.07-4a30.12,30.12,0,0,1,7.51.94,49.89,49.89,0,0,1,6.33,2L391,975.48h-4.94L384,966q-.59-3-8.5-3a14.77,14.77,0,0,0-12.3,5.93q-4.6,5.93-4.6,16.21,0,12.26,4.94,18.58a15.55,15.55,0,0,0,12.85,6.33,23.92,23.92,0,0,0,8.06-1.38,27.61,27.61,0,0,0,6.47-3.16l1.58,3.26a23.94,23.94,0,0,1-7.91,4.94,26.06,26.06,0,0,1-10,2.08,23.42,23.42,0,0,1-13.34-3.71,23,23,0,0,1-8.35-10.08,35.24,35.24,0,0,1-2.82-14.38A34.27,34.27,0,0,1,353.21,973Z"/><path class="cls-2" d="M411.56,986.4q9.49-4.3,23.62-4.6v-3.06a24.44,24.44,0,0,0-1-8,7.36,7.36,0,0,0-3.61-4.25,15.9,15.9,0,0,0-7.21-1.33,26,26,0,0,0-9.14,1.53,56.48,56.48,0,0,0-8,3.71l-2.17-4.35a24.08,24.08,0,0,1,4.54-2.77,49.51,49.51,0,0,1,7.91-3.16,28.9,28.9,0,0,1,8.6-1.38q6.72,0,10.63,1.88a11.23,11.23,0,0,1,5.63,6,29.64,29.64,0,0,1,1.73,11.17v32.62h6.13v3.66a36,36,0,0,1-9.19,1.48,5.27,5.27,0,0,1-3.26-.74q-.89-.74-.89-3.41v-3.66a46.93,46.93,0,0,1-7.76,5.58,18.77,18.77,0,0,1-9.54,2.42,17.7,17.7,0,0,1-11.81-4q-4.7-4-4.69-11.56Q402.08,990.7,411.56,986.4Zm16.61,21.79a35.46,35.46,0,0,0,7-4.25V986.45q-12,.1-18.14,3.56t-6.18,9.29q0,5.63,2.87,8.15a11.4,11.4,0,0,0,7.81,2.52A16.35,16.35,0,0,0,428.17,1008.2Z"/><path class="cls-2" d="M462.76,966.39l-7.61-1.68v-4.45l12.55-1.58h.3l1.88,1.58v4.35l-.1,2.47a38.77,38.77,0,0,1,9.69-5.83,27.77,27.77,0,0,1,11.17-2.67q6.33,0,9.74,2.42a12.73,12.73,0,0,1,4.74,7.41,53.84,53.84,0,0,1,1.33,13.39v28l7.41.69v4.25h-22v-4.25l6.62-.69V981.71a44.72,44.72,0,0,0-.84-9.79,9.08,9.08,0,0,0-3.26-5.39q-2.42-1.83-7.07-1.83a21.77,21.77,0,0,0-8.55,2,34.9,34.9,0,0,0-8,4.65v38.35l7.21.79v4.25H456.14v-4.25l6.62-.79Z"/><path class="cls-2" d="M523.1,973a24.84,24.84,0,0,1,9.29-10.62q6.18-4,15.07-4a30.13,30.13,0,0,1,7.51.94,49.89,49.89,0,0,1,6.33,2l-.4,14.13H556L553.89,966q-.59-3-8.5-3a14.77,14.77,0,0,0-12.3,5.93q-4.59,5.93-4.6,16.21,0,12.26,4.94,18.58a15.55,15.55,0,0,0,12.85,6.33,23.91,23.91,0,0,0,8.05-1.38,27.62,27.62,0,0,0,6.47-3.16l1.58,3.26a24,24,0,0,1-7.91,4.94,26.08,26.08,0,0,1-10,2.08,23.43,23.43,0,0,1-13.34-3.71A23.06,23.06,0,0,1,522.8,1002,35.24,35.24,0,0,1,520,987.64,34.29,34.29,0,0,1,523.1,973Z"/><path class="cls-2" d="M577.75,1007.95q-6.18-7.86-6.18-20.9a32.91,32.91,0,0,1,3.26-14.92,24.59,24.59,0,0,1,9-10.13,24,24,0,0,1,13-3.61q8.79,0,13.69,5T615.86,978a43.73,43.73,0,0,1-.59,8.7H580.08q0,10.38,4.69,17a15.27,15.27,0,0,0,13.2,6.57,26.26,26.26,0,0,0,8.5-1.48,20,20,0,0,0,6.72-3.56l1.58,3.66a22.09,22.09,0,0,1-8.35,5,31.63,31.63,0,0,1-11,2Q583.93,1015.81,577.75,1007.95ZM607,982a30.78,30.78,0,0,0,.3-4.35q-.1-6.52-3.12-10.38t-9.24-3.86q-13.54,0-14.73,18.58Z"/><path class="cls-2" d="M632.85,940l-8.4-.89v-3.66l14.43-1.68h.1l1.88,1.29v74.72l9.29.69v4.25h-26v-4.25l8.7-.79Z"/><path class="cls-2" d="M665.37,940l-8.4-.89v-3.66l14.43-1.68h.1l1.88,1.29v74.72l9.29.69v4.25h-26v-4.25l8.7-.79Z"/><path class="cls-2" d="M698.18,966.39l-7.71-1.68v-4.45L704,958.68h.2l2,1.58v49.52l8.6.69v4.25h-25.3v-4.25l8.7-.79ZM696,943.85a6.66,6.66,0,0,1,1.68-4.69,5.87,5.87,0,0,1,4.55-1.83q3,0,4.25,1.63a6.27,6.27,0,0,1,1.29,4,6.71,6.71,0,0,1-1.63,4.79,6.15,6.15,0,0,1-4.7,1.73h-.1Q696,949.49,696,943.85Z"/><path class="cls-2" d="M728.18,1007.95Q722,1000.09,722,987a32.94,32.94,0,0,1,3.26-14.92,24.61,24.61,0,0,1,9-10.13,24.06,24.06,0,0,1,13-3.61q8.79,0,13.69,5T766.28,978a43.89,43.89,0,0,1-.59,8.7H730.5q0,10.38,4.7,17a15.27,15.27,0,0,0,13.19,6.57,26.26,26.26,0,0,0,8.5-1.48,19.94,19.94,0,0,0,6.72-3.56l1.58,3.66a22.13,22.13,0,0,1-8.35,5,31.63,31.63,0,0,1-11,2Q734.36,1015.81,728.18,1007.95ZM757.38,982a30.78,30.78,0,0,0,.3-4.35q-.1-6.52-3.11-10.38t-9.24-3.86q-13.54,0-14.73,18.58Z"/><path class="cls-2" d="M775.57,1010.57l7.91-.59V966.39l-7.61-1.68v-4.45l12.55-1.58h.2l1.88,1.58v1.58l-.2,7.51h.2q.2-.2,2.62-3a25,25,0,0,1,7.21-5.39,20.23,20.23,0,0,1,9.64-2.57,10.8,10.8,0,0,1,3,.4v8.7a5.21,5.21,0,0,0-1.73-.59,12.91,12.91,0,0,0-2.82-.3,24.47,24.47,0,0,0-9.59,1.68,36.24,36.24,0,0,0-7.31,4.15v37.46l13.14.79v4.05H775.57Z"/><path class="cls-2" d="M828.05,966.39l-7.71-1.68v-4.45l13.54-1.58h.2l2,1.58v49.52l8.6.69v4.25h-25.3v-4.25l8.7-.79Zm-2.17-22.54a6.66,6.66,0,0,1,1.68-4.69,5.87,5.87,0,0,1,4.55-1.83q3,0,4.25,1.63a6.27,6.27,0,0,1,1.29,4,6.71,6.71,0,0,1-1.63,4.79,6.15,6.15,0,0,1-4.7,1.73h-.1Q825.88,949.49,825.88,943.85Z"/><path class="cls-2" d="M855.13,1014.28a5.32,5.32,0,0,1-1.58-4,6.5,6.5,0,0,1,6.43-6.52,5,5,0,0,1,4,1.58,5.93,5.93,0,0,1,1.33,4,6.31,6.31,0,0,1-1.88,4.64,6.09,6.09,0,0,1-4.45,1.88A5.33,5.33,0,0,1,855.13,1014.28Z"/><path class="cls-2" d="M878.11,973a24.84,24.84,0,0,1,9.29-10.62q6.18-4,15.07-4a30.13,30.13,0,0,1,7.51.94,49.89,49.89,0,0,1,6.33,2l-.4,14.13H911L908.9,966q-.59-3-8.5-3a14.77,14.77,0,0,0-12.3,5.93q-4.59,5.93-4.6,16.21,0,12.26,4.94,18.58a15.55,15.55,0,0,0,12.85,6.33,23.91,23.91,0,0,0,8.05-1.38,27.62,27.62,0,0,0,6.47-3.16l1.58,3.26a24,24,0,0,1-7.91,4.94,26.08,26.08,0,0,1-10,2.08,23.43,23.43,0,0,1-13.34-3.71,23.06,23.06,0,0,1-8.35-10.08A35.24,35.24,0,0,1,875,987.64,34.29,34.29,0,0,1,878.11,973Z"/><path class="cls-2" d="M930,971.83a25.71,25.71,0,0,1,9.49-10,23.92,23.92,0,0,1,12.31-3.46q12.45,0,18.43,8.1t6,20.75a30.75,30.75,0,0,1-3.61,15.12,25.71,25.71,0,0,1-9.49,10,23.92,23.92,0,0,1-12.31,3.46q-12.45,0-18.43-8.1t-6-20.75A30.75,30.75,0,0,1,930,971.83Zm33.06,33q4.15-5.83,4.15-17,0-10.67-3.86-17.49t-12-6.82a13.71,13.71,0,0,0-11.81,5.83q-4.2,5.83-4.2,17,0,10.77,3.9,17.54t12,6.77A13.58,13.58,0,0,0,963.06,1004.84Z"/><path class="cls-2" d="M985.1,1010.47l6.33-.79V966.39l-7.61-1.68v-4.45l12.55-1.58,2.17,1.58v4.35l-.1,2.47a39.24,39.24,0,0,1,9.59-5.83,26.58,26.58,0,0,1,10.77-2.67,17.64,17.64,0,0,1,8.55,1.78,11.41,11.41,0,0,1,4.89,5.54,33.73,33.73,0,0,1,8.95-4.94,29.15,29.15,0,0,1,10.82-2.37q6.23,0,9.64,2.37a12.68,12.68,0,0,1,4.79,7.31,51.39,51.39,0,0,1,1.38,13.34v28.07l7.51.79v4.25h-22.14v-4.25l6.72-.79V981.91A43.64,43.64,0,0,0,1059,972a9.28,9.28,0,0,0-3.46-5.54q-2.57-1.88-7.51-1.88a20.29,20.29,0,0,0-7.66,1.63,32.73,32.73,0,0,0-6.87,3.71,57.78,57.78,0,0,1,1,11.86v27.87l7.51.79v4.25h-22.63v-4.25l7.12-.79v-28a51.1,51.1,0,0,0-.74-9.88,8.55,8.55,0,0,0-3.11-5.34q-2.37-1.78-7-1.78a21.32,21.32,0,0,0-8.35,1.93,34.13,34.13,0,0,0-7.86,4.6v38.45l7,.79v4.25H985.1Z"/></g></svg>