<svg xmlns="http://www.w3.org/2000/svg" viewBox="0 0 1000 1000"><defs><style>.a{fill:#fff;}</style></defs><path class="a" d="M469.24,636a25.63,25.63,0,0,1-4.56,4.63,23.05,23.05,0,0,1-4.85,2.85c-.69.27-3.12,1-1.15.47-.72.18-1.44.33-2.17.49.13,0,2.41-.46.83-.14-.55.1-1.12.09-1.68.17.06,0,2.9-.29,1.16-.08a16.27,16.27,0,0,1-1.71,0c1.11,0,2.4.24.55,0-1.07-.14-3.38-.63-1-.1-.81-.18-3.6-.85-3.05-.69.72.21-1.87-.65-2.42-.86-1.3-.5-2.6-1-3.85-1.64a48,48,0,0,1-10.75-7.68c-19.94-19.68-15.64-52.71-5.58-76.09,19.61-45.56,61.62-79.68,108.09-95.17a162,162,0,0,1,16.08-4.43c3-.68,6-1.26,9-1.82a13.81,13.81,0,0,1,2-.33c1.64-.23,3.27-.46,4.91-.65q4.57-.56,9.16-.89c.84-.06,4.2-.22,1.66-.12,1.65-.06,3.3-.12,5-.14,3.06-.05,6.12,0,9.18.08a6.59,6.59,0,0,1,1.66.08c1.65.11,3.29.23,4.93.39,3.06.28,6.1.67,9.13,1.09a11.39,11.39,0,0,1,2,.33c1.62.3,3.25.61,4.87,1a123.81,123.81,0,0,1,17,4.67c12.2,4.41,23.76,11.13,31.23,22,12.88,18.75,9.4,42.92,5.64,64-3.86,21.58-10.22,44.94-4.13,66.7,13.48,48.19,71.11,46.84,111.31,50.33q4.13.36,8.24.82c1.26.14,2.52.3,3.77.46l1.88.26c.32,0,3.66.56,1.92.28-1.25-.21,2,.36,2.51.46,1.22.24,2.43.49,3.64.75s2.39.55,3.58.85l1.77.47c3.75,1-1.06-.38,1.05.29,9.59,3.05,18.23,7.33,25.43,14.87,16.13,16.9,20.19,41.46,16.63,63.89C839.3,803.43,783.07,834.72,738,859a305.24,305.24,0,0,1-41.58,19A160.82,160.82,0,0,1,675.68,884c-3.06.65-5.59,1.11-8.59,1.49-3.55.44-7.47.78-9.88.83-1.49,0-3,0-4.47,0-.7,0-4.32-.19-2,0-3.46-.23-6.92-.59-10.34-1.12,1.63.25-1.81-.35-2.28-.45-1.45-.29-2.91-.6-4.36-.94-3.18-.76-5.58-1.42-8.4-2.36a125,125,0,0,1-33.33-17.09c-19.33-13.86-36.58-34.34-43-57.59-5.46-19.63-5.43-43.76,7.63-60.51,7.2-9.24,16.31-12.49,27.59-13.58,7.13-.68,15.42-1.31,21.82-1.62,2.24-.1,6.48-.23,9.49-.26,1.76,0,3.52,0,5.28,0,1.17,0,2.34.05,3.51.1a6.57,6.57,0,0,1,1.26.06c12.55.86,25.33,3.63,36.07,11.24a57.69,57.69,0,0,1,20.63,27.15c3.64,10.28,3.56,21.91-1.66,31.6l18.45-4c-.92-.1-1.86-.18-2.77-.34,2.15.37-.13-.08-.46-.17a25,25,0,0,1-3.44-1,50.21,50.21,0,0,1-9.64-4.61,81.46,81.46,0,0,1-17.23-14.57c-10.76-11.77-19.23-25.46-27.23-39.18-19.12-32.8-39.2-64.79-61.61-95.47-45.12-61.81-96.87-118.49-151.5-172C369.91,415.46,311.61,364.46,253,313.94q-48.54-41.85-97.16-83.6c-13-11.16-27.6-22.91-29.08-41.22-1.19-14.73,5-29.06,15.18-39.55a42.25,42.25,0,0,1,17.81-11.06c1-.29,3-.76,4.35-1-1.47.27,3.47-.37,4-.4-3.28.2,4.32.13,1.17,0,1.81.08,4.9.45,5.82.62,15.14,2.67,30.46,12.8,41.4,24.86s19.11,26,28.17,39.4c4.88,7.21,10,14.24,15.26,21.19,29.56,39.19,61.89,76.36,94.39,113.11s65.83,73.28,99.88,108.86c10.94,11.42,21.91,22.84,33.34,33.77,6.28,6,13.12,10.8,19.64,16.43,1.47,1.27-.23-.24.58.52l1.75,1.66c1.33,1.28,2.65,2.59,3.95,3.91,3,3.05,5.9,6.17,8.77,9.34,6.93,7.64,13.61,15.5,20.2,23.44,16.45,19.82,32.34,40.12,48.13,60.47,32,41.17,63,83.07,96.19,123.29,5.65,6.85,11.38,13.64,17.35,20.22l22-6.52c-37.71-8-75.06-17.76-111.81-29.46-13.06-4.16-27.24-8.46-37.57-18s-13.74-23.89-8.17-36.75a45.19,45.19,0,0,1,31.39-26.12c7.89-1.83,13.9-1.83,22.56-1.47-.9,0,3.06.19,3.84.25,1.95.14,3.89.3,5.84.49a52.53,52.53,0,0,1,10.14,1.55c13,3.29,19.56,15.37,18.77,28.58S653.24,677,643,685.38a61.1,61.1,0,0,1-18.44,10.43,68.31,68.31,0,0,1-8.08,2.13,40.43,40.43,0,0,1-7.55.6l-2,0c-1.79,0,2.2.29-.68-.07-.87-.11-5.24-.69-3-.3a47.37,47.37,0,0,1-9.17-2.37,60,60,0,0,1-18.76-11.22c-4.77-4.12-14.87-3.39-20.52-2.08-4.1,1-10.26,3.7-5.38,7.91,27,23.27,71.64,25.51,103.17,10.81,15.11-7,28.53-18.38,34.73-34.22,5.86-15,5.69-32.59-7.09-44-15.32-13.65-40-14.11-59.41-14.68-21.09-.63-45.07,1.8-62.79,14.35-13.55,9.59-24.68,26.53-21.57,43.77,3.19,17.63,18.31,28.25,33.5,35.37,9.23,4.32,19,7.28,28.72,10.32q18.57,5.82,37.3,11.07,37.22,10.44,75.05,18.46a33.45,33.45,0,0,0,16.66-.46c1.76-.56,8.13-3,5.38-6.07-32.62-36-61.3-75.75-90.9-114.19-30.64-39.8-60.63-80.86-95-117.59a174.06,174.06,0,0,0-16.41-15.84c-2.71-2.23-5.73-4-8.41-6.26-.7-.61-1.39-1.23-2.08-1.85-.93-.81,1.55,1.46.1.1l-1.53-1.42c-2.06-1.93-4.09-3.9-6.11-5.87-5.4-5.29-10.72-10.67-16-16.08C463.32,422,431,386.77,399.21,351.21c-34.63-38.68-68.92-77.83-100.9-118.76-13-16.68-24.74-34-36.56-51.54-10.81-16-23.41-31.47-40.38-41.3a106,106,0,0,0-59.77-13.72c-18.39,1.11-36.23,7.53-49,21.09-10.25,10.85-16.84,26.45-15.84,41.5,1.22,18.55,14.19,31.25,27.47,42.73q25.65,22.17,51.4,44.23C236.68,328,298.13,380.21,357.05,435.2,414.31,488.64,469.28,544.79,518.24,606a1033.73,1033.73,0,0,1,68.39,95.87c18.28,29.14,32.84,62.89,58.92,86.17a80.66,80.66,0,0,0,45.57,20c4.44.49,15.8.88,18.45-4,13-24.15-.87-52.36-21.43-67.26-28.39-20.58-68.12-18.6-101.24-16.1-16.59,1.25-34.49,2.6-48.56,12.45-9.62,6.73-15.84,16.39-19.36,27.46-7.34,23.06-2.05,49.24,10.08,69.71,32.67,55.11,101.2,76.55,161.76,63.69,33.74-7.16,64.57-23.8,94.18-40.9C811.08,838,837.11,820.86,856,797c16.63-21.06,25.95-47.82,22.72-74.78-3.12-26-18.05-46.81-41.89-57.67-23-10.49-49.29-11.11-74.09-12.9-5.82-.42-11.64-.9-17.43-1.62-1.41-.18-2.82-.38-4.23-.58-1.6-.23.41.08.6.11l-2.35-.41c-2.89-.53-5.74-1.18-8.59-1.91l-1.66-.46c.5.14,2,.69-.24-.1-1.07-.38-2.14-.73-3.2-1.13a44.53,44.53,0,0,1-6.22-2.75,47.23,47.23,0,0,1-11.95-9.16c-16.86-18.52-14.42-44.1-10.45-67,4.12-23.73,11.5-49.4,3.33-73.07-9.88-28.6-40.5-40.82-67.84-46.67a222.09,222.09,0,0,0-89.62-.15c-53.46,10.67-104.07,42-133,88.85-16,25.86-26.6,59.62-12.84,88.7,11.58,24.43,42.58,34,67.74,31.25,12.81-1.39,25.21-6.14,33.41-16.43,3.7-4.63-8.26-6.86-10.47-7.1-5.3-.58-14.66-.72-18.46,4Z"/></svg>