<svg xmlns="http://www.w3.org/2000/svg" viewBox="0 0 1000 1000"><path d="M346 310c53 24.8 106 50.07 157.21 78.53 26.95 15 53.24 31.12 78.11 49.37 9.46 6.94 18.74 14.13 28 21.3 7.49 5.77 17.64 11.9 20.35 21.45 3.08 10.79-9.63 19.44-16.24 26.44-30.31 32.08-60 64.67-94.25 92.66a464.5 464.5 0 0 1-150.11 81.75q-12.36 4-24.91 7.43c-1.27.35-4.4 1.68-4.4 3.54s3.13 3.1 4.4 3.54c6.63 2.31 14.54 1.82 21.21 0 59.48-16.29 115.87-42.77 165.23-79.86 37.5-28.18 69.94-61.64 101.85-95.84 6.56-7 13.12-14 19.82-20.91 4.51-4.63 8.82-9.87 7.83-16.8-1.11-7.86-7.09-14.33-12.94-19.19-10-8.29-20.57-16-30.93-23.84a704 704 0 0 0-72.68-47.91c-47.22-27.23-96.39-51.1-145.62-74.45q-13-6.17-26.05-12.26c-6.2-2.9-13.87-3.14-20.52-1.8-2.47.5-11.57 3.95-5.38 6.85Z" style="fill:#fff"/></svg>