<svg xmlns="http://www.w3.org/2000/svg" viewBox="0 0 1000 1000"><defs><style>.a{fill:#fff}</style></defs><path d="M367.27 744.54c-3.64 20.72-2.2 42.76 12.27 59.15 13.21 14.95 34.45 21.13 53.58 23.55 45.28 5.72 92.21-4.68 135.75-16.39 23.82-6.4 49.24-12.73 68.16-29.49 16.26-14.4 23.2-35.65 14-56-10.14-22.34-34.36-36.06-57-42.49-24.34-6.91-50.32-6.5-75.37-5-28 1.7-56.14 5.29-83 13.5-22.77 7-47.12 17.63-61.25 37.74a47.8 47.8 0 0 0-6.53 13.34c-1.92 6.17 5.59 8.77 10.47 9.48 4.4.63 16.62.53 18.45-5.38a48 48 0 0 1 6-12.62 35 35 0 0 1 3.17-4.11 74 74 0 0 1 5.6-5.46 77 77 0 0 1 5.23-4.13c.38-.27 3.52-2.36 1.71-1.21q1.9-1.21 3.86-2.35a126 126 0 0 1 14.63-7.15l2-.82c-2.22.88-.41.16 0 0 1.4-.5 2.78-1 4.19-1.52q4.28-1.5 8.63-2.79c2.77-.83 5.56-1.61 8.35-2.33 1.51-.39 3-.76 4.54-1.13 1-.23 5.75-1.3 2.73-.65a346 346 0 0 1 36.64-5.71c2.85-.3 5.69-.57 8.54-.8 1.49-.13 3-.24 4.48-.36.38 0 2.3-.15.22 0-2.37.16.81 0 1.3-.07q8.36-.51 16.73-.69c5-.11 9.95-.14 14.93 0q2.91 0 5.82.15l3.1.13 1.49.07c-2.19-.13-.6 0 .68.1 3.22.35 6.43.75 9.63 1.32.6.11 5.44 1.18 2.54.48 1.58.38 3.16.77 4.73 1.2 3 .85 6 1.85 9 2.92.42.15 2.24.93.15 0l1.56.66c1.51.69 3 1.36 4.51 2.1 2.4 1.2 4.71 2.53 7 3.89a8.3 8.3 0 0 1 2 1.28c1.22.88 2.43 1.77 3.61 2.7a71 71 0 0 1 5.44 4.81c.78.76 1.55 1.55 2.29 2.35.42.45.83.91 1.24 1.37 1.91 2.19-.51-.68.51.62 5.59 7.11 9.11 14.75 9.76 22.72.75 9.18-1.35 16.07-6.62 23.8a25.3 25.3 0 0 1-3.53 4.41 61 61 0 0 1-6 5.59 65.2 65.2 0 0 1-14.19 8.81c-9.33 4.59-19.68 7.4-30.51 10.46q-13.1 3.7-26.29 7c-4.76 1.16-9.53 2.25-14.31 3.33-2.43.55.4-.08.74-.15l-1.9.4-3.84.8c-2.58.53-5.17 1-7.76 1.52-10.28 1.93-20.63 3.53-31 4.62-2.45.26-4.9.48-7.36.68a18 18 0 0 1-1.95.15c.3 0 3.71-.21 1.07-.08-1.44.08-2.89.17-4.34.24-4.88.21-9.77.29-14.66.17-1.22 0-2.45-.07-3.68-.13-.75 0-4.13-.45-1.63-.07 2.73.41-1.48-.13-2-.18-1.32-.13-2.64-.27-4-.43q-3.21-.39-6.39-.95c-1-.17-1.93-.38-2.9-.55-2.49-.44 1.16.23 1.14.25a13 13 0 0 1-2-.48c-2-.5-3.89-1.05-5.81-1.67-1-.33-2-.72-3-1-.75-.24-2-1 .87.36-.58-.27-1.19-.48-1.76-.75-1.72-.79-3.41-1.58-5.07-2.5-.86-.47-1.68-1-2.54-1.49-1.43-.78 1.48 1.17-.69-.47a53.6 53.6 0 0 1-8.44-7.77c1.33 1.56-.33-.48-.7-1-.5-.69-1-1.4-1.43-2.11a45 45 0 0 1-3-5.58 38.8 38.8 0 0 1-3.33-10.61 73 73 0 0 1-1-14.75 112.4 112.4 0 0 1 1.79-16.77c1.07-6.11-11.33-7.71-15-7.71-5.32-.08-13.94 1.29-15.05 7.63" class="a"/><path d="M526.26 751.71a255.3 255.3 0 0 0-3.53-106.66c-8.58-35.1-23.66-68.3-41.55-99.58-37.6-65.75-86.94-123.7-131.56-184.61-23.64-32.27-46.28-65.58-63.74-101.67l-7.43 2.55c41.34-5.54 79.77-20.44 116.41-40 35.54-18.88 69.14-41.2 104.68-60.14 19.84-10.57 40.29-19.93 61.67-27l-27.42-.7c24.24 31.23 45.32 64.71 66.06 98.33 10.3 16.69 20.53 33.43 31 50 5.39 8.5 10.84 16.95 16.42 25.32 1.18 1.77 2.37 3.53 3.55 5.29 1.65 2.44 2.74 3.33.35 5.33q-4.65 3.92-9.59 7.45c-50 35.91-114.48 39.75-172.32 54.9-32.05 8.39-63.75 20.75-88.75 43.1-2.87 2.57 9.65 3.58 10.48 3.63a67.5 67.5 0 0 0 11.55-.3c2.05-.25 5.31-.34 6.9-1.76 28.56-25.53 65.23-37.28 101.92-45.6 38.26-8.67 77.53-14.51 114.28-28.75 20.75-8 40.38-18.8 57.2-33.45l.54-.79c-41.32-60.6-75.55-126.11-120.66-184.23-1.88-2.42-10.22-2.06-12.47-2.11-4.87-.12-10.26-.14-15 1.41C460 156.4 398.91 209.51 326 239.17c-20.12 8.19-41.08 14.59-62.65 17.48-.25 0-8.17 1-7.43 2.54 31.88 65.9 79.71 122.88 123.55 181 44.31 58.72 89.09 120.8 109.93 192.31 11.3 38.8 14.18 79.43 6.9 119.25-.52 2.85 13.48 2.95 15 2.95 2.32 0 14.35.57 15-2.95Z" class="a"/><path d="M390 440.38 309 257l-27.42 4.13 61.69 36.93 98.85 59.17 22.63 13.54c5.22 3.13 12.94 3.15 18.73 2.2 2.75-.45 11.1-1.91 8.68-6.33l-31.81-58.24-49.82-91.19-7.81-14.21c-1-1.74-4.17-5.73-1.5-7.07l-5.38 1.92-5.37.51-10.6-1.57c.88.26 3.18 2.63 4.19 3.45l11.72 9.59 39.75 32.5 89.86 73.48 20.55 16.81c3.89 3.17 12.33 2.93 16.94 2.46 2.17-.22 11.76-1.43 11-5.17-10.2-51.47-45.26-93.87-56.13-145a107.3 107.3 0 0 1-1.13-40.91l-29.47 1.42q65.55 69.2 135.63 133.87c4.61 4.25 12.55 4.34 18.45 3.75 3.23-.33 12.68-1.55 10.48-6.61L581.5 115.06c-.79-1.83-5.46-2.9-6.89-3.21a38 38 0 0 0-11.56-.54c-3.23.32-12.68 1.54-10.48 6.6q35.11 80.67 70.21 161.35l28.93-2.86q-70-64.63-135.63-133.86c-3.79-4-11.44-4.12-16.46-3.84-3.57.2-12.18.57-13 5.27-4.31 24.58 1.8 48.75 10.73 71.6 9.66 24.73 22.63 48 33 72.39 5.78 13.55 10.64 27.46 13.51 41.93l28-2.71-54.31-44.41-88.6-72.45c-7.44-6.08-14.75-12.41-22.36-18.28a15 15 0 0 0-3.19-2c-6.39-2.92-14.8-3.19-21.62-1.75-4.06.86-9.09 2.41-10.91 6.55-1.63 3.67.73 6.95 2.45 10.08l46.33 84.81c14.24 26.08 27.81 52.69 42.8 78.36.27.46.52.94.77 1.41l27.42-4.13-61.69-36.93-98.85-59.17-22.62-13.54c-5.23-3.13-13-3.15-18.74-2.2-3.07.51-10.7 1.76-8.68 6.33l81.06 183.36c.81 1.82 5.45 2.89 6.9 3.2a38 38 0 0 0 11.56.54c3.2-.32 12.7-1.55 10.47-6.6Z" class="a"/></svg>