<svg xmlns="http://www.w3.org/2000/svg" viewBox="0 0 1000 1000"><defs><style>.a{fill:#fff;}</style></defs><path class="a" d="M628.13,305c-53.65,25.08-107.26,50.64-159,79.52-27,15.1-53.35,31.4-78.27,49.8-9.59,7.09-19,14.42-28.45,21.7-9,6.91-20.78,14.44-22.51,26.63-1.58,11.09,10.92,19.93,17.75,27.15,30.88,32.69,61.11,65.88,96.18,94.24a487,487,0,0,0,155.89,84.59q12.36,4,24.91,7.43c6.71,1.84,14.54,2.33,21.21,0,4.87-1.7,5.79-5.49,0-7.08-58-15.88-112.42-41.68-160.54-77.83-36.42-27.37-67.84-60.24-98.82-93.45-6.45-6.91-12.91-13.81-19.51-20.59-4.64-4.77-8.68-9.29-6.64-16.41,1.89-6.6,8-11.9,13.19-15.95,9.3-7.21,18.62-14.42,28-21.49A704.48,704.48,0,0,1,484,395.81c46.73-26.83,95.32-50.44,144-73.52q13-6.17,26-12.26c6.13-2.87-3-6.37-5.38-6.85-6.61-1.33-14.34-1.1-20.52,1.8Z"/></svg>