<svg xmlns="http://www.w3.org/2000/svg" viewBox="0 0 1000 1000"><defs><style>.a{fill:#fff;}</style></defs><path class="a" d="M284.54,679.89c23.21.47,63.74-13.22,52.13-43.69-2.42-6.37-13.28-6.44-18.45-6,6.46-.61.15-.44-.66-.18.09,0,4.13.53,2,.14-.67-.12-1.37-.17-2-.28-.46-.07-.92-.19-1.37-.25-2.67-.36,3.4,1.08.82.19-1.38-.47-2.79-.84-4.16-1.35-.71-.27-1.39-.57-2.1-.84.23.09,2.83,1.39.94.4-1.27-.67-2.58-1.26-3.85-2-2.77-1.51-5.4-3.23-8-5-.47-.31-.92-.65-1.38-1,2.36,1.69,0,0-.4-.33-1.14-.9-2.28-1.8-3.4-2.73-2.62-2.18-5.15-4.47-7.6-6.84A166.64,166.64,0,0,1,273.87,596q-1.41-1.71-2.77-3.46c-.54-.69-1.07-1.39-1.6-2.08-1.7-2.23.69,1-.3-.41-1.89-2.6-3.72-5.24-5.46-7.95a118.76,118.76,0,0,1-7.83-14c-.93-2-1.79-4-2.52-6-.31-.87-.57-1.75-.86-2.63-.92-2.82-.07,1-.27-1.09-.14-1.47-.16-3-.28-4.42-.18-2-.24.59-.15.36.5-1.29,1.62-1.86-.56.32.38-.38,1.17-1.06-.58.31-1,.73-1.28.91-.72.55,1-.57.29-.25-2.27,1a24.64,24.64,0,0,1-5,.78c-5.42-.05-3.76-.37-2.38-.15,1.88.3.06,1-1.76-.47a11.62,11.62,0,0,0,3.14,1.06c2.29.64-2.87-1.49-.66-.29.63.34,1.3.63,1.94.95,1.45.75,2.86,1.56,4.26,2.4,1.63,1,3.23,2,4.81,3,.88.59,1.75,1.19,2.62,1.79.33.23,3.46,2.5,2.32,1.66a22.57,22.57,0,0,0,20.53,3c5.31-1.81,9.95-6.49,5.38-11.65-1.3-1.46-2.54-3-3.76-4.5-.64-.81-1.28-1.63-1.91-2.45L276,550.07c-1.29-1.71,1,1.43-.15-.21q-5.2-7.18-10.09-14.58-11.6-17.6-21.7-36.14c-6.37-11.73-12.4-23.78-16.94-36.35-.93-2.59-1.8-5.2-2.54-7.84-.14-.49-1-4.11-.46-1.67-.26-1.22-.52-2.43-.7-3.66a32.27,32.27,0,0,1-.45-5.89c0-.76.19-1.54.19-2.29,0-1.78-.95,1.46.17-.5.92-1.62,1.15-1.66-.27-.17,2.23-2.34-2,1-.21,0,.83-.48,2.21-.73-2,.88,2.52-1-3.71.73-1.66.39s-3.07.21-2.67.19c2.61-.11.48,1.11-1.52-.19a4.85,4.85,0,0,0,1.36.2c2.87.5-3.32-1.07-.91-.26,1.34.46,2.7.83,4,1.33.74.28,1.47.6,2.22.89-3.28-1.29-.61-.28.14.1,2.08,1,4.15,2.08,6.19,3.2,6.33,3.49,28.75,4,25.07-8.28-6.59-22-13-44.09-17.75-66.53-2.91-13.6-5.63-27.61-5.57-41.56,0-2.18.1-4.36.32-6.52.11-1,.26-2.06.42-3.09.05-.32.13-.64.18-1,.32-2.34-.48,1.38,0,0a32.53,32.53,0,0,1,1.56-4.2,13.17,13.17,0,0,0,1.09-1.87c.35-1.26-1.81,1.5-.7.94.25-.13.56-.64.76-.86s1.3-1.18,1.31-1.16c.31.44-3.18,1.94-.49.57,1.34-.69-3.93,1.52-1.28.6,3-1-4.17.75-1,.27,2.67-.41-4.59-.07-1.9.13a9.9,9.9,0,0,0,2.24,0c-4.31.78-3.56-.35-1.21,0a17.37,17.37,0,0,0,2.53.49c-4.27.06-2.52-.65-.46-.05.78.23,1.56.47,2.33.73,2.11.7,4.17,1.51,6.23,2.33.44.18.87.38,1.31.55,2.17.85-3-1.4-.9-.4,1.1.52,2.21,1,3.31,1.52,2.33,1.1,4.65,2.25,7,3.43C263,329,273.3,335,283.67,340.8c25.56,14.37,51.47,28.27,79,38.65,34.45,13,71.78,19.84,108.48,14.13,5.39-.84,12.33-4,10.48-10.48-11.12-39,4.71-78.66,33.85-105.29a130,130,0,0,1,48.51-28c.7-.22,3.38-.79.58-.2,1.2-.25,2.4-.49,3.61-.69s7.05-.72,3.33-.51c2-.11,4.11-.17,6.16-.15.83,0,1.65,0,2.48.07s1.65.08,2.48.14c-1.92-.15-2-.14-.26,0,4.17.57,8.28,1.19,12.4,2.06s-1.65-.45.73.18l3.06.82c2.44.69,4.86,1.45,7.26,2.26,4,1.34,7.89,2.84,11.76,4.46.11.05,3.85,1.7,1.51.64l2.24,1c2.19,1,4.36,2.07,6.52,3.15,6.91,3.47,13.66,7.27,20.24,11.32,7.72,4.75,14.87,10.59,22.69,15.14,12.35,7.19,27-.6,38.14-6.34,11.59-6,22.88-12.56,34.72-18l1.86-.85c-3.46,1.59-.65.28.15,0,1.18-.46,2.35-.94,3.55-1.35,2.32-.78,3.85-1,.3-.24a13.84,13.84,0,0,1,1.41-.24,16,16,0,0,1-6-.05c-1.93-.29-7.19-2.4-8.18-4.54-1.64-3.55,0,.21-.41.07s.87-2.36,0-.37a19.38,19.38,0,0,0-.67,1.85q-.84,2.35-1.66,4.71c-6.53,18.61-13.37,39.37-26.53,54.46-8.32,9.55,10.61,13.8,16.94,12.51,12.31-2.49,24.64-4.91,37-6.83,4.3-.67,8.61-1.27,12.94-1.73l2.61-.25c3-.3-1.64,0-.81.06,1.59,0,3.19-.17,4.79-.17.92,0,5,.2,1.61,0-3-.2-1.06-.11-.36,0,2.37.47-1.11-.3-1.8-.51,2.71.81-1-.54-1-.53a4.68,4.68,0,0,1-2.35-2.39c.93,1.75-.37-1.75-.09-.81.51,1.72-1.1,1,.3-.39-.75.74-1.32,2.86-1.9,3.83-.22.36-.5.69-.71,1.05-.9,1.52.86-1.06.43-.57-.71.83-1.35,1.73-2.06,2.57-1.58,1.89-3.24,3.72-4.9,5.54-4.2,4.57-8.52,9.05-12.73,13.62-10.28,11.15-20.14,22.88-28,35.86-3.86,6.33-9.1,14.43-10.1,21.92-.79,5.86-.6,12-1.09,17.88q-.7,8.6-1.79,17.16a403.58,403.58,0,0,1-14,66.52C687.23,546.35,667.1,588,640,624.48c-26.69,35.92-60.07,66.6-98.64,88.42a267.64,267.64,0,0,1-61.48,25.64c-2.68.75-5.36,1.47-8.06,2.15-.59.15-3.9.93-1.84.46-1.59.37-3.19.73-4.79,1.07q-8.64,1.86-17.39,3.2c-6.24,1-12.79,1.11-18.92,2.54-2.53.6-5,1.6-7.51,2.34-2.24.66.72-.42,1.49-.34a8,8,0,0,0-1.91.4c-1.23.22-2.47.44-3.71.62s-2.42.31-3.63.45c-4.32.5,3.14-.11-.78.08a175.91,175.91,0,0,1-17.64,0c-1-.05-5.71-.39-3-.17s-.1,0-.73-.07l-2.77-.26q-5.07-.51-10.13-1.19c-7.26-1-14.49-2.22-21.67-3.64q-5.47-1.08-10.93-2.31l-5.28-1.22c-.85-.2,2.84.7.06,0l-3.08-.77q-11-2.79-21.91-6.09a428,428,0,0,1-41.23-14.67c-1.47-.62-2.94-1.27-4.42-1.88-.76-.31,2.49,1.12.16.06l-2.47-1.11q-4.21-1.93-8.38-4c-4.95-2.49-9.82-5.14-14.51-8.1-1-.63-2-1.27-3-1.94-1.15-.78-3.74-2.89-1.06-.68-1.62-1.34-3.32-2.55-4.88-4-1.41-1.27-2.63-2.66-3.93-4-1.66-1.73,1,1.92-.09-.08-.36-.65-.8-1.25-1.14-1.92s-.45-1.2-.75-1.75c-.91-1.72-.18,1.67,0,.15a6.52,6.52,0,0,0-.06-1.65c-.31-1.81-.64.9-.15.26a6.3,6.3,0,0,0,.69-1.54c.55-1.91-1.57,1.3-.17.18a15.15,15.15,0,0,0,1.48-1.41c1.59-1.7-2.52,1.39,0,0,.78-.42,1.54-.86,2.31-1.28,3-1.62-2.62.89.41-.17,2.37-.82,4.74-1.51,7.14-2.24,2.13-.65-3.72.79-.57.14.71-.15,1.42-.32,2.14-.46,1.66-.34,3.33-.64,5-.92,3.69-.61,7.4-1.09,11.12-1.48,2-.21,4-.36,6-.56,1.71-.17-1.33.09-1.33.09l1.63-.11,3.36-.22c5.1-.3,10.21-.48,15.32-.61,4.93-.12,15-1.81,15-8.52,0-6.53-10.27-8.63-15-8.52-19.07.47-38.33,1.58-56.89,6.22-9.17,2.29-21.68,6.4-26.14,15.68-8.41,17.5,20.48,32.83,32.05,39,26.64,14.23,55.89,24.14,85,31.78,29.58,7.74,60.84,14.29,91.6,13.13a121.19,121.19,0,0,0,19.57-2,85.65,85.65,0,0,0,9.73-2.49c.55-.19,1.1-.37,1.63-.58,1.85-.74-2.34,0-.3.2,3.16.26,6.88-.77,10-1.19a309.29,309.29,0,0,0,72.78-19,327.24,327.24,0,0,0,118.59-81.94c32.76-35.42,58.38-77.36,76-122.22A431.62,431.62,0,0,0,739,469.11q3.7-17.91,5.84-36.11,1-8.91,1.69-17.85c.38-5.16-.16-10.78,1.7-15.32A118.77,118.77,0,0,1,759.48,379q1.65-2.46,3.38-4.86c.3-.42,1.6-2.16.63-.88q1.08-1.44,2.19-2.85c2.35-3,4.78-6,7.27-8.85,8.39-9.75,17.75-18.65,26-28.52,5.88-7,13-17.26,2-23.72-13.11-7.72-32.33-3.78-46.4-1.65-12.8,1.95-25.52,4.45-38.21,7l16.94,12.51c13.59-15.6,21.36-35.48,28.21-54.74,1.62-4.56,5.18-11,4.84-16-.6-8.77-12.09-10.92-19.05-10.78-14.15.29-27.83,8.59-40,15-6.3,3.33-12.56,6.77-18.9,10-2.54,1.32-5.1,2.57-7.67,3.81-3.15,1.53,2.51-.89-.49.22-1.07.4-2.33.7-3.35,1.2a14.14,14.14,0,0,1,5.18-.74c17.28-.06,12.45,4.36,9.34,1.9-1.09-.86-2.31-1.59-3.44-2.39-4.56-3.2-9.16-6.34-13.85-9.34a256.93,256.93,0,0,0-47.27-24.18c-20.37-7.74-42.5-11.89-64.27-9.1-22,2.84-43.35,14.15-61,27.22-19.29,14.28-35.68,33.37-45,55.64-9.78,23.35-10.83,48.37-3.92,72.62l10.48-10.47c-1.95.3-3.89.57-5.85.8-1.18.14-7.66,1.06-2.82.33a75.59,75.59,0,0,1-11.66.35c-1.94,0-3.87-.07-5.81-.15-1.21-.06-7.66-.08-2.77-.14-3.78,0-7.79-.79-11.52-1.35s-7.64-1.27-11.43-2.07c-1-.22-7.14-1.67-3-.64-1.88-.47-3.76-.94-5.63-1.45-7.48-2-14.86-4.42-22.14-7.09q-5.43-2-10.8-4.18l-4.44-1.85-2.64-1.14q-2-.85.4.18l-1.75-.78q-10.32-4.67-20.43-9.78c-12.65-6.41-25-13.31-37.4-20.26-19.48-11-39.7-24.18-61.85-28.87-9.62-2-21-1.85-29.64,3.45-7.77,4.78-10.77,12.78-11.77,21.5-1.63,14.24,1.26,29.15,4,43.06,5.16,25.88,12.4,51.35,20,76.61l25.07-8.28c-13.62-7.5-32.57-15.31-47.58-6.74-9.47,5.41-9.5,15.79-7.37,25.24,3,13.5,8.82,26.23,15,38.55A464.34,464.34,0,0,0,232.45,533c7.48,11.79,15.29,23.77,24.56,34.25l25.91-8.6c-13-9.62-28.42-20.75-45.58-18.05-5.86.92-12.57,3.73-14.62,9.79-1.58,4.7-.36,9.55,1,14.13,3.73,12.27,11.44,23.37,19.05,33.52,8.88,11.84,19.09,22.82,31,31.71,15.49,11.6,32.77,18.81,52.42,17l-18.46-5.95c1.37,3.59,1.63,7.46.38,10.24a14.22,14.22,0,0,1-2.3,3.75c-.71.76-1.46,1.46-2.24,2.15-2.39,2.11,1.66-.94-1.09.83-.93.59-1.88,1.15-2.86,1.67-.51.28-3.52,1.6-1.06.59a64.2,64.2,0,0,1-6.53,2.2c3.17-.93-2.56.4-3.61.57-3.41.56.81.16-.32.09s-2.39.06-3.57,0c-4.94-.1-15,2-15,8.52S279.8,679.79,284.54,679.89Z"/></svg>