<?xml version="1.0" encoding="UTF-8" standalone="no"?>
<!-- Created with Inkscape (http://www.inkscape.org/) -->

<svg
   xmlns:dc="http://purl.org/dc/elements/1.1/"
   xmlns:cc="http://creativecommons.org/ns#"
   xmlns:rdf="http://www.w3.org/1999/02/22-rdf-syntax-ns#"
   xmlns:svg="http://www.w3.org/2000/svg"
   xmlns="http://www.w3.org/2000/svg"
   xmlns:sodipodi="http://sodipodi.sourceforge.net/DTD/sodipodi-0.dtd"
   xmlns:inkscape="http://www.inkscape.org/namespaces/inkscape"
   width="744.09448819"
   height="1052.3622047"
   id="svg2"
   version="1.1"
   inkscape:version="0.48.5 r10040"
   inkscape:export-filename="/Users/matteocancellieri/Documents/workspace/matteocancellieri.com/img/bg.png"
   inkscape:export-xdpi="200"
   inkscape:export-ydpi="200"
   sodipodi:docname="bg.svg">
  <defs
     id="defs4" />
  <sodipodi:namedview
     id="base"
     pagecolor="#ffffff"
     bordercolor="#666666"
     borderopacity="1.0"
     inkscape:pageopacity="0.0"
     inkscape:pageshadow="2"
     inkscape:zoom="0.19345703"
     inkscape:cx="1364.2332"
     inkscape:cy="-540.21243"
     inkscape:document-units="px"
     inkscape:current-layer="layer2"
     showgrid="false" />
  <metadata
     id="metadata7">
    <rdf:RDF>
      <cc:Work
         rdf:about="">
        <dc:format>image/svg+xml</dc:format>
        <dc:type
           rdf:resource="http://purl.org/dc/dcmitype/StillImage" />
        <dc:title></dc:title>
      </cc:Work>
    </rdf:RDF>
  </metadata>
  <g
     inkscape:label="Layer 1"
     inkscape:groupmode="layer"
     id="layer1">
    <rect
       inkscape:export-ydpi="200.02802"
       inkscape:export-xdpi="200.02802"
       inkscape:export-filename="/Users/matteocancellieri/Documents/workspace/matteocancellieri.com/img/bg.png"
       ry="17.730574"
       y="253.73524"
       x="1287.6324"
       height="2394.5886"
       width="1046.7439"
       id="rect3951"
       style="opacity:0.7;fill:#fafafa;fill-opacity:1;stroke:none" />
    <rect
       style="opacity:0.69999999999999996;fill:#fafafa;fill-opacity:1;stroke:none"
       id="rect2985"
       width="1181.1409"
       height="2425.6033"
       x="-139.56587"
       y="238.22792"
       ry="17.960218"
       inkscape:export-filename="/Users/matteocancellieri/Documents/workspace/matteocancellieri.com/img/bg.png"
       inkscape:export-xdpi="200.02802"
       inkscape:export-ydpi="200.02802" />
  </g>
  <g
     inkscape:groupmode="layer"
     id="layer2"
     inkscape:label="forme"
     style="opacity:0.6">
    <flowRoot
       xml:space="preserve"
       id="flowRoot3763"
       style="fill:black;stroke:none;stroke-opacity:1;stroke-width:1px;stroke-linejoin:miter;stroke-linecap:butt;fill-opacity:1;font-family:London Tube;font-style:normal;font-weight:normal;font-size:28px;line-height:125%;letter-spacing:0px;word-spacing:0px;-inkscape-font-specification:London Tube;font-stretch:normal;font-variant:normal"><flowRegion
         id="flowRegion3765"><rect
           id="rect3767"
           width="475.5578"
           height="429.03583"
           x="144.73499"
           y="1067.8695" /></flowRegion><flowPara
         id="flowPara3769"></flowPara></flowRoot>    <rect
       style="fill:#ffaaaa;fill-opacity:1;stroke:none"
       id="rect3756"
       width="413.52853"
       height="335.99191"
       x="-350.95184"
       y="428.41187"
       ry="9.578145"
       transform="matrix(0.90150768,-0.43276311,0.43276311,0.90150768,0,0)" />
    <rect
       style="fill:#ff0000;fill-opacity:1;stroke:none"
       id="rect3759"
       width="482.15009"
       height="424.21552"
       x="-728.51379"
       y="797.25824"
       ry="8.362278"
       transform="matrix(0.90975891,-0.415137,0.62494715,0.78066706,0,0)" />
    <rect
       style="fill:#c83737;fill-opacity:1;stroke:none"
       id="rect3761"
       width="279.13174"
       height="310.14639"
       x="-792.43842"
       y="769.01123"
       ry="9.578145"
       transform="matrix(0.77526458,-0.63163663,0.63163663,0.77526458,0,0)" />
    <rect
       style="fill:#0000ff;fill-opacity:1;stroke:none"
       id="rect3771"
       width="511.74155"
       height="403.19031"
       x="-695.91522"
       y="409.40158"
       ry="9.578145"
       transform="matrix(0.63017349,-0.77645436,0.77645436,0.63017349,0,0)" />
    <rect
       style="fill:#008080;fill-opacity:1;stroke:none"
       id="rect3773"
       width="465.21957"
       height="253.28622"
       x="651.57361"
       y="-133.27388"
       ry="9.578145"
       transform="matrix(0.88280349,0.46974248,-0.46974248,0.88280349,0,0)" />
    <rect
       style="fill:#00ffff;fill-opacity:1;stroke:none"
       id="rect3775"
       width="330.82281"
       height="361.83746"
       x="133.57639"
       y="1032.973"
       ry="9.578145"
       transform="matrix(0.89843653,-0.43910341,0.43910341,0.89843653,0,0)" />
    <rect
       style="fill:#ac9393;fill-opacity:1;stroke:none"
       id="rect3777"
       width="475.5578"
       height="325.65372"
       x="-712.8786"
       y="1029.6724"
       ry="9.578145"
       transform="matrix(0.74940343,-0.66211367,0.66211367,0.74940343,0,0)" />
    <rect
       style="fill:#bc5fd3;fill-opacity:1;stroke:none"
       id="rect3779"
       width="847.73346"
       height="315.31549"
       x="22.484335"
       y="546.94666"
       ry="9.578145"
       transform="matrix(0.98476363,-0.17389822,0.17389822,0.98476363,0,0)" />
    <rect
       style="fill:#ff00ff;fill-opacity:1;stroke:none"
       id="rect3781"
       width="501.40332"
       height="253.28622"
       x="236.36211"
       y="1147.347"
       ry="9.578145"
       transform="matrix(0.96736639,0.25338166,-0.25338166,0.96736639,0,0)" />
    <rect
       style="fill:#ff00ff;fill-opacity:1;stroke:none"
       id="rect3783"
       width="330.82281"
       height="677.15295"
       x="-5.1790619"
       y="336.63992"
       ry="9.578145"
       transform="matrix(0.93277283,-0.36046477,0.36046477,0.93277283,0,0)" />
    <rect
       style="fill:#ff6600;fill-opacity:1;stroke:none"
       id="rect3785"
       width="728.84399"
       height="589.27814"
       x="-549.35101"
       y="526.73114"
       ry="9.578145"
       transform="matrix(0.59420667,-0.8043124,0.8043124,0.59420667,0,0)" />
    <rect
       style="fill:#37c871;fill-opacity:1;stroke:none"
       id="rect3787"
       width="362.10556"
       height="498.97333"
       x="-494.08926"
       y="164.05434"
       ry="6.2896419"
       transform="matrix(0.56014152,-0.82839693,0.77966181,0.62620082,0,0)" />
    <rect
       style="fill:#0055d4;fill-opacity:1;stroke:none"
       id="rect3789"
       width="322.56015"
       height="372.54736"
       x="-1212.6987"
       y="970.6864"
       ry="5.9001298"
       transform="matrix(0.71204741,-0.70213139,0.84958461,0.52745236,0,0)" />
    <rect
       style="fill:#00aad4;fill-opacity:1;stroke:none"
       id="rect3791"
       width="444.83679"
       height="369.60861"
       x="447.59879"
       y="-308.01254"
       ry="5.3926754"
       transform="matrix(0.6038298,0.79711328,-0.69648195,0.71757432,0,0)" />
    <rect
       transform="matrix(-0.52048486,-0.8538709,0.8538709,-0.52048486,0,0)"
       ry="9.578145"
       y="-44.747585"
       x="-1621.8484"
       height="325.65372"
       width="475.5578"
       id="rect3812"
       style="fill:#2affd5;fill-opacity:1;stroke:none" />
    <rect
       style="fill:#00aad4;fill-opacity:1;stroke:none"
       id="rect3814"
       width="475.5578"
       height="325.65372"
       x="-1743.4998"
       y="-306.28333"
       ry="9.578145"
       transform="matrix(-0.52048486,-0.8538709,0.8538709,-0.52048486,0,0)" />
    <rect
       transform="matrix(-0.52048486,-0.8538709,0.8538709,-0.52048486,0,0)"
       ry="9.578145"
       y="-356.69937"
       x="-1595.6548"
       height="325.65372"
       width="475.5578"
       id="rect3816"
       style="fill:#00aa88;fill-opacity:1;stroke:none" />
    <rect
       style="fill:#cc00ff;fill-opacity:1;stroke:none"
       id="rect3818"
       width="475.5578"
       height="325.65372"
       x="-1354.2412"
       y="-700.32501"
       ry="9.578145"
       transform="matrix(-0.88773142,-0.46036173,0.46036173,-0.88773142,0,0)" />
    <rect
       transform="matrix(-0.93921686,0.34332448,-0.34332448,-0.93921686,0,0)"
       ry="9.578145"
       y="-1198.8201"
       x="-34.474777"
       height="325.65372"
       width="475.5578"
       id="rect3820"
       style="fill:#ff0066;fill-opacity:1;stroke:none" />
    <rect
       transform="matrix(-0.8559852,0.51700033,-0.51700033,-0.8559852,0,0)"
       ry="9.578145"
       y="-1258.7422"
       x="-444.65891"
       height="325.65372"
       width="475.5578"
       id="rect3822"
       style="fill:#ffcc00;fill-opacity:1;stroke:none" />
    <rect
       transform="matrix(-0.95622801,-0.2926226,0.2926226,-0.95622801,0,0)"
       ry="9.578145"
       y="-1171.8135"
       x="-1384.4338"
       height="325.65372"
       width="475.5578"
       id="rect3824"
       style="fill:#ccff00;fill-opacity:1;stroke:none" />
    <rect
       style="fill:#ff7f2a;fill-opacity:1;stroke:none"
       id="rect3826"
       width="475.5578"
       height="325.65372"
       x="-1606.9026"
       y="-71.317184"
       ry="9.578145"
       transform="matrix(-0.28511713,-0.95849268,0.95849268,-0.28511713,0,0)" />
    <rect
       transform="matrix(0.90975891,-0.415137,0.62494715,0.78066706,0,0)"
       ry="8.362278"
       y="1341.4296"
       x="-1102.3257"
       height="424.21552"
       width="482.15009"
       id="rect3828"
       style="fill:#ff0000;fill-opacity:1;stroke:none" />
    <rect
       transform="matrix(0.77526458,-0.63163663,0.63163663,0.77526458,0,0)"
       ry="9.578145"
       y="1218.6644"
       x="-1158.7875"
       height="310.14639"
       width="279.13174"
       id="rect3830"
       style="fill:#c83737;fill-opacity:1;stroke:none" />
    <rect
       transform="matrix(0.89843653,-0.43910341,0.43910341,0.89843653,0,0)"
       ry="9.578145"
       y="1554.0668"
       x="-121.10355"
       height="361.83746"
       width="330.82281"
       id="rect3832"
       style="fill:#00ffff;fill-opacity:1;stroke:none" />
    <rect
       transform="matrix(0.74940343,-0.66211367,0.66211367,0.74940343,0,0)"
       ry="9.578145"
       y="1464.3254"
       x="-1096.9042"
       height="325.65372"
       width="475.5578"
       id="rect3834"
       style="fill:#ac9393;fill-opacity:1;stroke:none" />
    <rect
       transform="matrix(0.96736639,0.25338166,-0.25338166,0.96736639,0,0)"
       ry="9.578145"
       y="1708.4185"
       x="383.3233"
       height="253.28622"
       width="501.40332"
       id="rect3836"
       style="fill:#ff00ff;fill-opacity:1;stroke:none" />
    <rect
       transform="matrix(0.71204741,-0.70213139,0.84958461,0.52745236,0,0)"
       ry="5.9001298"
       y="1395.53"
       x="-1719.604"
       height="372.54736"
       width="322.56015"
       id="rect3838"
       style="fill:#0055d4;fill-opacity:1;stroke:none" />
    <rect
       style="fill:#2affd5;fill-opacity:1;stroke:none"
       id="rect3840"
       width="475.5578"
       height="325.65372"
       x="-2117.0928"
       y="-346.62881"
       ry="9.578145"
       transform="matrix(-0.52048486,-0.8538709,0.8538709,-0.52048486,0,0)" />
    <rect
       transform="matrix(-0.52048486,-0.8538709,0.8538709,-0.52048486,0,0)"
       ry="9.578145"
       y="-608.16431"
       x="-2238.7441"
       height="325.65372"
       width="475.5578"
       id="rect3842"
       style="fill:#00aad4;fill-opacity:1;stroke:none" />
    <rect
       style="fill:#00aa88;fill-opacity:1;stroke:none"
       id="rect3844"
       width="475.5578"
       height="325.65372"
       x="-2090.8992"
       y="-658.5802"
       ry="9.578145"
       transform="matrix(-0.52048486,-0.8538709,0.8538709,-0.52048486,0,0)" />
    <rect
       transform="matrix(-0.88773142,-0.46036173,0.46036173,-0.88773142,0,0)"
       ry="9.578145"
       y="-1215.2095"
       x="-1621.2522"
       height="325.65372"
       width="475.5578"
       id="rect3846"
       style="fill:#cc00ff;fill-opacity:1;stroke:none" />
    <rect
       style="fill:#ff0066;fill-opacity:1;stroke:none"
       id="rect3848"
       width="475.5578"
       height="325.65372"
       x="164.65343"
       y="-1743.5648"
       ry="9.578145"
       transform="matrix(-0.93921686,0.34332448,-0.34332448,-0.93921686,0,0)" />
    <rect
       style="fill:#ffcc00;fill-opacity:1;stroke:none"
       id="rect3850"
       width="475.5578"
       height="325.65372"
       x="-144.79884"
       y="-1755.215"
       ry="9.578145"
       transform="matrix(-0.8559852,0.51700033,-0.51700033,-0.8559852,0,0)" />
    <rect
       style="fill:#ccff00;fill-opacity:1;stroke:none"
       id="rect3852"
       width="475.5578"
       height="325.65372"
       x="-1554.1539"
       y="-1726.4243"
       ry="9.578145"
       transform="matrix(-0.95622801,-0.2926226,0.2926226,-0.95622801,0,0)" />
    <rect
       transform="matrix(-0.28511713,-0.95849268,0.95849268,-0.28511713,0,0)"
       ry="9.578145"
       y="-236.68515"
       x="-2162.8274"
       height="325.65372"
       width="475.5578"
       id="rect3854"
       style="fill:#ff7f2a;fill-opacity:1;stroke:none" />
    <rect
       style="fill:#ff0000;fill-opacity:1;stroke:none"
       id="rect3856"
       width="482.15009"
       height="424.21552"
       x="-1437.4661"
       y="1829.3073"
       ry="8.362278"
       transform="matrix(0.90975891,-0.415137,0.62494715,0.78066706,0,0)" />
    <rect
       style="fill:#c83737;fill-opacity:1;stroke:none"
       id="rect3858"
       width="279.13174"
       height="310.14639"
       x="-1487.2374"
       y="1621.8009"
       ry="9.578145"
       transform="matrix(0.77526458,-0.63163663,0.63163663,0.77526458,0,0)" />
    <rect
       style="fill:#00ffff;fill-opacity:1;stroke:none"
       id="rect3860"
       width="330.82281"
       height="361.83746"
       x="-349.43747"
       y="2021.2542"
       ry="9.578145"
       transform="matrix(0.89843653,-0.43910341,0.43910341,0.89843653,0,0)" />
    <rect
       style="fill:#ac9393;fill-opacity:1;stroke:none"
       id="rect3862"
       width="475.5578"
       height="325.65372"
       x="-1441.2042"
       y="1854.0144"
       ry="9.578145"
       transform="matrix(0.74940343,-0.66211367,0.66211367,0.74940343,0,0)" />
    <rect
       style="fill:#ff00ff;fill-opacity:1;stroke:none"
       id="rect3864"
       width="501.40332"
       height="253.28622"
       x="515.0816"
       y="2211.449"
       ry="9.578145"
       transform="matrix(0.96736639,0.25338166,-0.25338166,0.96736639,0,0)" />
    <rect
       style="fill:#0055d4;fill-opacity:1;stroke:none"
       id="rect3866"
       width="322.56015"
       height="372.54736"
       x="-2206.9907"
       y="1709.8512"
       ry="5.9001298"
       transform="matrix(0.71204741,-0.70213139,0.84958461,0.52745236,0,0)" />
    <rect
       transform="matrix(-0.52048486,-0.8538709,0.8538709,-0.52048486,0,0)"
       ry="9.578145"
       y="-617.28064"
       x="-2561.105"
       height="325.65372"
       width="475.5578"
       id="rect3868"
       style="fill:#2affd5;fill-opacity:1;stroke:none" />
    <rect
       style="fill:#00aad4;fill-opacity:1;stroke:none"
       id="rect3870"
       width="475.5578"
       height="325.65372"
       x="-2682.7563"
       y="-878.81567"
       ry="9.578145"
       transform="matrix(-0.52048486,-0.8538709,0.8538709,-0.52048486,0,0)" />
    <rect
       transform="matrix(-0.52048486,-0.8538709,0.8538709,-0.52048486,0,0)"
       ry="9.578145"
       y="-929.23157"
       x="-2534.9114"
       height="325.65372"
       width="475.5578"
       id="rect3872"
       style="fill:#00aa88;fill-opacity:1;stroke:none" />
    <rect
       style="fill:#cc00ff;fill-opacity:1;stroke:none"
       id="rect3874"
       width="475.5578"
       height="325.65372"
       x="-1860.6414"
       y="-1676.8301"
       ry="9.578145"
       transform="matrix(-0.88773142,-0.46036173,0.46036173,-0.88773142,0,0)" />
    <rect
       transform="matrix(-0.93921686,0.34332448,-0.34332448,-0.93921686,0,0)"
       ry="9.578145"
       y="-2231.9578"
       x="343.18207"
       height="325.65372"
       width="475.5578"
       id="rect3876"
       style="fill:#ff0066;fill-opacity:1;stroke:none" />
    <rect
       transform="matrix(-0.8559852,0.51700033,-0.51700033,-0.8559852,0,0)"
       ry="9.578145"
       y="-2200.3274"
       x="124.04133"
       height="325.65372"
       width="475.5578"
       id="rect3878"
       style="fill:#ffcc00;fill-opacity:1;stroke:none" />
    <rect
       transform="matrix(-0.95622801,-0.2926226,0.2926226,-0.95622801,0,0)"
       ry="9.578145"
       y="-2223.6616"
       x="-1706.3168"
       height="325.65372"
       width="475.5578"
       id="rect3880"
       style="fill:#ccff00;fill-opacity:1;stroke:none" />
    <rect
       style="fill:#ff7f2a;fill-opacity:1;stroke:none"
       id="rect3882"
       width="475.5578"
       height="325.65372"
       x="-2661.2454"
       y="-384.94583"
       ry="9.578145"
       transform="matrix(-0.28511713,-0.95849268,0.95849268,-0.28511713,0,0)" />
    <rect
       transform="matrix(0.88280349,-0.46974248,-0.46974248,-0.88280349,0,0)"
       ry="9.578145"
       y="-1000.0472"
       x="190.36079"
       height="253.28622"
       width="465.21957"
       id="rect3886"
       style="fill:#008080;fill-opacity:1;stroke:none" />
    <rect
       transform="matrix(0.90150768,-0.43276311,0.43276311,0.90150768,0,0)"
       ry="9.578145"
       y="1016.9697"
       x="875.09857"
       height="335.99191"
       width="413.52853"
       id="rect3953"
       style="fill:#ffaaaa;fill-opacity:1;stroke:none" />
    <rect
       transform="matrix(0.90975891,-0.415137,0.62494715,0.78066706,0,0)"
       ry="8.362278"
       y="1379.5116"
       x="366.41632"
       height="424.21552"
       width="482.15009"
       id="rect3955"
       style="fill:#ff0000;fill-opacity:1;stroke:none" />
    <rect
       transform="matrix(0.77526458,-0.63163663,0.63163663,0.77526458,0,0)"
       ry="9.578145"
       y="1628.037"
       x="261.92142"
       height="310.14639"
       width="279.13174"
       id="rect3957"
       style="fill:#c83737;fill-opacity:1;stroke:none" />
    <rect
       transform="matrix(0.63017349,-0.77645436,0.77645436,0.63017349,0,0)"
       ry="9.578145"
       y="1465.3795"
       x="161.12073"
       height="403.19031"
       width="511.74155"
       id="rect3959"
       style="fill:#0000ff;fill-opacity:1;stroke:none" />
    <rect
       transform="matrix(0.88280349,0.46974248,-0.46974248,0.88280349,0,0)"
       ry="9.578145"
       y="-772.12366"
       x="1852.1864"
       height="253.28622"
       width="465.21957"
       id="rect3961"
       style="fill:#008080;fill-opacity:1;stroke:none" />
    <rect
       transform="matrix(0.89843653,-0.43910341,0.43910341,0.89843653,0,0)"
       ry="9.578145"
       y="1630.1537"
       x="1355.4501"
       height="361.83746"
       width="330.82281"
       id="rect3963"
       style="fill:#00ffff;fill-opacity:1;stroke:none" />
    <rect
       transform="matrix(0.74940343,-0.66211367,0.66211367,0.74940343,0,0)"
       ry="9.578145"
       y="1930.147"
       x="306.31006"
       height="325.65372"
       width="475.5578"
       id="rect3965"
       style="fill:#ac9393;fill-opacity:1;stroke:none" />
    <rect
       transform="matrix(0.98476363,-0.17389822,0.17389822,0.98476363,0,0)"
       ry="9.578145"
       y="783.44824"
       x="1361.7628"
       height="315.31549"
       width="847.73346"
       id="rect3967"
       style="fill:#bc5fd3;fill-opacity:1;stroke:none" />
    <rect
       transform="matrix(0.96736639,0.25338166,-0.25338166,0.96736639,0,0)"
       ry="9.578145"
       y="802.74799"
       x="1551.9803"
       height="253.28622"
       width="501.40332"
       id="rect3969"
       style="fill:#ff00ff;fill-opacity:1;stroke:none" />
    <rect
       transform="matrix(0.93277283,-0.36046477,0.36046477,0.93277283,0,0)"
       ry="9.578145"
       y="826.87201"
       x="1263.392"
       height="677.15295"
       width="330.82281"
       id="rect3971"
       style="fill:#ff00ff;fill-opacity:1;stroke:none" />
    <rect
       transform="matrix(0.59420667,-0.8043124,0.8043124,0.59420667,0,0)"
       ry="9.578145"
       y="1620.5959"
       x="258.77005"
       height="589.27814"
       width="728.84399"
       id="rect3973"
       style="fill:#ff6600;fill-opacity:1;stroke:none" />
    <rect
       transform="matrix(0.56014152,-0.82839693,0.77966181,0.62620082,0,0)"
       ry="6.2896419"
       y="1294.4832"
       x="360.4231"
       height="498.97333"
       width="362.10556"
       id="rect3975"
       style="fill:#37c871;fill-opacity:1;stroke:none" />
    <rect
       transform="matrix(0.71204741,-0.70213139,0.84958461,0.52745236,0,0)"
       ry="5.9001298"
       y="1953.0004"
       x="-474.76871"
       height="372.54736"
       width="322.56015"
       id="rect3977"
       style="fill:#0055d4;fill-opacity:1;stroke:none" />
    <rect
       transform="matrix(0.6038298,0.79711328,-0.69648195,0.71757432,0,0)"
       ry="5.3926754"
       y="-1404.7343"
       x="1434.8855"
       height="369.60861"
       width="444.83679"
       id="rect3979"
       style="fill:#00aad4;fill-opacity:1;stroke:none" />
    <rect
       style="fill:#2affd5;fill-opacity:1;stroke:none"
       id="rect3981"
       width="475.5578"
       height="325.65372"
       x="-2329.7078"
       y="1116.5168"
       ry="9.578145"
       transform="matrix(-0.52048486,-0.8538709,0.8538709,-0.52048486,0,0)" />
    <rect
       transform="matrix(-0.52048486,-0.8538709,0.8538709,-0.52048486,0,0)"
       ry="9.578145"
       y="854.98108"
       x="-2451.3591"
       height="325.65372"
       width="475.5578"
       id="rect3983"
       style="fill:#00aad4;fill-opacity:1;stroke:none" />
    <rect
       style="fill:#00aa88;fill-opacity:1;stroke:none"
       id="rect3985"
       width="475.5578"
       height="325.65372"
       x="-2303.5142"
       y="804.56506"
       ry="9.578145"
       transform="matrix(-0.52048486,-0.8538709,0.8538709,-0.52048486,0,0)" />
    <rect
       transform="matrix(-0.88773142,-0.46036173,0.46036173,-0.88773142,0,0)"
       ry="9.578145"
       y="-74.233055"
       x="-2561.5559"
       height="325.65372"
       width="475.5578"
       id="rect3987"
       style="fill:#cc00ff;fill-opacity:1;stroke:none" />
    <rect
       style="fill:#ff0066;fill-opacity:1;stroke:none"
       id="rect3989"
       width="475.5578"
       height="325.65372"
       x="-1311.8097"
       y="-1665.7413"
       ry="9.578145"
       transform="matrix(-0.93921686,0.34332448,-0.34332448,-0.93921686,0,0)" />
    <rect
       style="fill:#ffcc00;fill-opacity:1;stroke:none"
       id="rect3991"
       width="475.5578"
       height="325.65372"
       x="-1608.7988"
       y="-1961.8627"
       ry="9.578145"
       transform="matrix(-0.8559852,0.51700033,-0.51700033,-0.8559852,0,0)" />
    <rect
       style="fill:#ccff00;fill-opacity:1;stroke:none"
       id="rect3993"
       width="475.5578"
       height="325.65372"
       x="-2684.9041"
       y="-773.84674"
       ry="9.578145"
       transform="matrix(-0.95622801,-0.2926226,0.2926226,-0.95622801,0,0)" />
    <rect
       transform="matrix(-0.28511713,-0.95849268,0.95849268,-0.28511713,0,0)"
       ry="9.578145"
       y="1232.2329"
       x="-1994.6619"
       height="325.65372"
       width="475.5578"
       id="rect3995"
       style="fill:#ff7f2a;fill-opacity:1;stroke:none" />
    <rect
       style="fill:#ff0000;fill-opacity:1;stroke:none"
       id="rect3997"
       width="482.15009"
       height="424.21552"
       x="-7.3955631"
       y="1923.6829"
       ry="8.362278"
       transform="matrix(0.90975891,-0.415137,0.62494715,0.78066706,0,0)" />
    <rect
       style="fill:#c83737;fill-opacity:1;stroke:none"
       id="rect3999"
       width="279.13174"
       height="310.14639"
       x="-104.42765"
       y="2077.6902"
       ry="9.578145"
       transform="matrix(0.77526458,-0.63163663,0.63163663,0.77526458,0,0)" />
    <rect
       style="fill:#00ffff;fill-opacity:1;stroke:none"
       id="rect4001"
       width="330.82281"
       height="361.83746"
       x="1100.7701"
       y="2151.2473"
       ry="9.578145"
       transform="matrix(0.89843653,-0.43910341,0.43910341,0.89843653,0,0)" />
    <rect
       style="fill:#ac9393;fill-opacity:1;stroke:none"
       id="rect4003"
       width="475.5578"
       height="325.65372"
       x="-77.715523"
       y="2364.8"
       ry="9.578145"
       transform="matrix(0.74940343,-0.66211367,0.66211367,0.74940343,0,0)" />
    <rect
       style="fill:#ff00ff;fill-opacity:1;stroke:none"
       id="rect4005"
       width="501.40332"
       height="253.28622"
       x="1698.9417"
       y="1363.8195"
       ry="9.578145"
       transform="matrix(0.96736639,0.25338166,-0.25338166,0.96736639,0,0)" />
    <rect
       style="fill:#0055d4;fill-opacity:1;stroke:none"
       id="rect4007"
       width="322.56015"
       height="372.54736"
       x="-981.67401"
       y="2377.844"
       ry="5.9001298"
       transform="matrix(0.71204741,-0.70213139,0.84958461,0.52745236,0,0)" />
    <rect
       transform="matrix(-0.52048486,-0.8538709,0.8538709,-0.52048486,0,0)"
       ry="9.578145"
       y="814.63562"
       x="-2824.9521"
       height="325.65372"
       width="475.5578"
       id="rect4009"
       style="fill:#2affd5;fill-opacity:1;stroke:none" />
    <rect
       style="fill:#00aad4;fill-opacity:1;stroke:none"
       id="rect4011"
       width="475.5578"
       height="325.65372"
       x="-2946.6035"
       y="553.1001"
       ry="9.578145"
       transform="matrix(-0.52048486,-0.8538709,0.8538709,-0.52048486,0,0)" />
    <rect
       transform="matrix(-0.52048486,-0.8538709,0.8538709,-0.52048486,0,0)"
       ry="9.578145"
       y="502.68423"
       x="-2798.7585"
       height="325.65372"
       width="475.5578"
       id="rect4013"
       style="fill:#00aa88;fill-opacity:1;stroke:none" />
    <rect
       style="fill:#cc00ff;fill-opacity:1;stroke:none"
       id="rect4015"
       width="475.5578"
       height="325.65372"
       x="-2828.5669"
       y="-589.11749"
       ry="9.578145"
       transform="matrix(-0.88773142,-0.46036173,0.46036173,-0.88773142,0,0)" />
    <rect
       transform="matrix(-0.93921686,0.34332448,-0.34332448,-0.93921686,0,0)"
       ry="9.578145"
       y="-2210.4861"
       x="-1112.6815"
       height="325.65372"
       width="475.5578"
       id="rect4017"
       style="fill:#ff0066;fill-opacity:1;stroke:none" />
    <rect
       transform="matrix(-0.8559852,0.51700033,-0.51700033,-0.8559852,0,0)"
       ry="9.578145"
       y="-2458.3354"
       x="-1308.9387"
       height="325.65372"
       width="475.5578"
       id="rect4019"
       style="fill:#ffcc00;fill-opacity:1;stroke:none" />
    <rect
       transform="matrix(-0.95622801,-0.2926226,0.2926226,-0.95622801,0,0)"
       ry="9.578145"
       y="-1328.4575"
       x="-2854.624"
       height="325.65372"
       width="475.5578"
       id="rect4021"
       style="fill:#ccff00;fill-opacity:1;stroke:none" />
    <rect
       style="fill:#ff7f2a;fill-opacity:1;stroke:none"
       id="rect4023"
       width="475.5578"
       height="325.65372"
       x="-2550.5867"
       y="1066.8649"
       ry="9.578145"
       transform="matrix(-0.28511713,-0.95849268,0.95849268,-0.28511713,0,0)" />
    <rect
       transform="matrix(0.90975891,-0.415137,0.62494715,0.78066706,0,0)"
       ry="8.362278"
       y="2411.5605"
       x="-342.53595"
       height="424.21552"
       width="482.15009"
       id="rect4025"
       style="fill:#ff0000;fill-opacity:1;stroke:none" />
    <rect
       transform="matrix(0.77526458,-0.63163663,0.63163663,0.77526458,0,0)"
       ry="9.578145"
       y="2480.8267"
       x="-432.87759"
       height="310.14639"
       width="279.13174"
       id="rect4027"
       style="fill:#c83737;fill-opacity:1;stroke:none" />
    <rect
       transform="matrix(0.89843653,-0.43910341,0.43910341,0.89843653,0,0)"
       ry="9.578145"
       y="2618.4348"
       x="872.43622"
       height="361.83746"
       width="330.82281"
       id="rect4029"
       style="fill:#00ffff;fill-opacity:1;stroke:none" />
    <rect
       transform="matrix(0.74940343,-0.66211367,0.66211367,0.74940343,0,0)"
       ry="9.578145"
       y="2754.489"
       x="-422.01556"
       height="325.65372"
       width="475.5578"
       id="rect4031"
       style="fill:#ac9393;fill-opacity:1;stroke:none" />
    <rect
       transform="matrix(0.96736639,0.25338166,-0.25338166,0.96736639,0,0)"
       ry="9.578145"
       y="1866.85"
       x="1830.7"
       height="253.28622"
       width="501.40332"
       id="rect4033"
       style="fill:#ff00ff;fill-opacity:1;stroke:none" />
    <rect
       transform="matrix(0.71204741,-0.70213139,0.84958461,0.52745236,0,0)"
       ry="5.9001298"
       y="2692.1653"
       x="-1469.0607"
       height="372.54736"
       width="322.56015"
       id="rect4035"
       style="fill:#0055d4;fill-opacity:1;stroke:none" />
    <rect
       style="fill:#2affd5;fill-opacity:1;stroke:none"
       id="rect4037"
       width="475.5578"
       height="325.65372"
       x="-3268.9644"
       y="543.98376"
       ry="9.578145"
       transform="matrix(-0.52048486,-0.8538709,0.8538709,-0.52048486,0,0)" />
    <rect
       transform="matrix(-0.52048486,-0.8538709,0.8538709,-0.52048486,0,0)"
       ry="9.578145"
       y="282.44876"
       x="-3390.6157"
       height="325.65372"
       width="475.5578"
       id="rect4039"
       style="fill:#00aad4;fill-opacity:1;stroke:none" />
    <rect
       style="fill:#00aa88;fill-opacity:1;stroke:none"
       id="rect4041"
       width="475.5578"
       height="325.65372"
       x="-3242.7708"
       y="232.03285"
       ry="9.578145"
       transform="matrix(-0.52048486,-0.8538709,0.8538709,-0.52048486,0,0)" />
    <rect
       transform="matrix(-0.88773142,-0.46036173,0.46036173,-0.88773142,0,0)"
       ry="9.578145"
       y="-1050.7382"
       x="-3067.9561"
       height="325.65372"
       width="475.5578"
       id="rect4043"
       style="fill:#cc00ff;fill-opacity:1;stroke:none" />
    <rect
       style="fill:#ff0066;fill-opacity:1;stroke:none"
       id="rect4045"
       width="475.5578"
       height="325.65372"
       x="-934.15283"
       y="-2698.8792"
       ry="9.578145"
       transform="matrix(-0.93921686,0.34332448,-0.34332448,-0.93921686,0,0)" />
    <rect
       style="fill:#ffcc00;fill-opacity:1;stroke:none"
       id="rect4047"
       width="475.5578"
       height="325.65372"
       x="-1040.0985"
       y="-2903.4478"
       ry="9.578145"
       transform="matrix(-0.8559852,0.51700033,-0.51700033,-0.8559852,0,0)" />
    <rect
       style="fill:#ccff00;fill-opacity:1;stroke:none"
       id="rect4049"
       width="475.5578"
       height="325.65372"
       x="-3006.7869"
       y="-1825.6948"
       ry="9.578145"
       transform="matrix(-0.95622801,-0.2926226,0.2926226,-0.95622801,0,0)" />
    <rect
       transform="matrix(-0.28511713,-0.95849268,0.95849268,-0.28511713,0,0)"
       ry="9.578145"
       y="918.60419"
       x="-3049.0046"
       height="325.65372"
       width="475.5578"
       id="rect4051"
       style="fill:#ff7f2a;fill-opacity:1;stroke:none" />
    <rect
       style="fill:#008080;fill-opacity:1;stroke:none"
       id="rect4053"
       width="465.21957"
       height="253.28622"
       x="1390.9735"
       y="-1638.897"
       ry="9.578145"
       transform="matrix(0.88280349,-0.46974248,-0.46974248,-0.88280349,0,0)" />
  </g>
</svg>
