<?xml version="1.0" encoding="UTF-8" standalone="no"?>
<!-- Created with Inkscape (http://www.inkscape.org/) -->

<svg
   xmlns:dc="http://purl.org/dc/elements/1.1/"
   xmlns:cc="http://creativecommons.org/ns#"
   xmlns:rdf="http://www.w3.org/1999/02/22-rdf-syntax-ns#"
   xmlns:svg="http://www.w3.org/2000/svg"
   xmlns="http://www.w3.org/2000/svg"
   xmlns:sodipodi="http://sodipodi.sourceforge.net/DTD/sodipodi-0.dtd"
   xmlns:inkscape="http://www.inkscape.org/namespaces/inkscape"
   width="744.09448819"
   height="1052.3622047"
   id="svg5072"
   version="1.1"
   inkscape:version="0.48.5 r10040"
   sodipodi:docname="icons.svg">
  <defs
     id="defs5074" />
  <sodipodi:namedview
     id="base"
     pagecolor="#ffffff"
     bordercolor="#666666"
     borderopacity="1.0"
     inkscape:pageopacity="0.0"
     inkscape:pageshadow="2"
     inkscape:zoom="0.73098362"
     inkscape:cx="222.12393"
     inkscape:cy="8.9274882"
     inkscape:document-units="px"
     inkscape:current-layer="layer2"
     showgrid="false"
     showguides="true"
     inkscape:guide-bbox="true" />
  <metadata
     id="metadata5077">
    <rdf:RDF>
      <cc:Work
         rdf:about="">
        <dc:format>image/svg+xml</dc:format>
        <dc:type
           rdf:resource="http://purl.org/dc/dcmitype/StillImage" />
        <dc:title></dc:title>
      </cc:Work>
    </rdf:RDF>
  </metadata>
  <g
     inkscape:groupmode="layer"
     id="layer3"
     inkscape:label="bg"
     style="display:inline">
    <rect
       style="fill:#008080;fill-opacity:1;stroke:none"
       id="rect4232"
       width="808.49963"
       height="533.52771"
       x="-73.873062"
       y="862.20746" />
  </g>
  <g
     inkscape:groupmode="layer"
     id="layer2"
     inkscape:label="frames"
     style="display:inline">
    <rect
       style="fill:#bc5fd3;fill-opacity:1;stroke:none"
       id="rect3956"
       width="271"
       height="250"
       x="457.08191"
       y="1150.6531"
       inkscape:export-filename="/Users/matteocancellieri/Documents/workspace/matteocancellieri.com/img/projects.png"
       inkscape:export-xdpi="200"
       inkscape:export-ydpi="200" />
    <rect
       y="890.65295"
       x="457.08191"
       height="250"
       width="271"
       id="rect3874"
       style="fill:#bc5fd3;fill-opacity:1;stroke:none"
       inkscape:export-filename="/Users/matteocancellieri/Documents/workspace/matteocancellieri.com/img/creativity.png"
       inkscape:export-xdpi="200"
       inkscape:export-ydpi="200" />
    <path
       style="fill:#bc5fd3;fill-opacity:1;stroke:none"
       d="m 89.681198,890.653 c 90.333332,0 180.666672,0 271.000002,0 0,83.33324 0,166.6666 0,250 -90.33333,0 -180.66667,0 -271.000002,0 0,-83.3334 0,-166.66676 0,-250 z"
       id="rect3060"
       inkscape:connector-curvature="0"
       inkscape:export-filename="/Users/matteocancellieri/Documents/workspace/matteocancellieri.com/img/personal.png"
       inkscape:export-xdpi="200"
       inkscape:export-ydpi="200" />
    <rect
       y="1150.6531"
       x="89.081909"
       height="250"
       width="271"
       id="rect4152"
       style="fill:#bc5fd3;fill-opacity:1;stroke:none"
       inkscape:export-filename="/Users/matteocancellieri/Documents/workspace/matteocancellieri.com/img/skills.png"
       inkscape:export-xdpi="200"
       inkscape:export-ydpi="200" />
  </g>
  <g
     inkscape:label="Layer 1"
     inkscape:groupmode="layer"
     id="layer1">
    <rect
       inkscape:export-ydpi="240"
       inkscape:export-xdpi="240"
       inkscape:export-filename="/Users/matteocancellieri/Documents/workspace/matteocancellieri.com/img/personal.png"
       y="634.57629"
       x="50.173401"
       height="250"
       width="271.789"
       id="rect5808"
       style="fill:#ffffff;fill-opacity:1;stroke:none" />
    <rect
       style="fill:#ffffff;fill-opacity:1;stroke:none"
       id="rect5785"
       width="271.789"
       height="250"
       x="410.1734"
       y="574.57629"
       inkscape:export-filename="/Users/matteocancellieri/Documents/workspace/matteocancellieri.com/img/creativity.png"
       inkscape:export-xdpi="240"
       inkscape:export-ydpi="240" />
    <rect
       inkscape:export-ydpi="240"
       inkscape:export-xdpi="240"
       inkscape:export-filename="/Users/matteocancellieri/Documents/workspace/matteocancellieri.com/img/projects.png"
       y="366.31793"
       x="461.29169"
       height="250"
       width="271.789"
       id="rect5756"
       style="fill:#ffffff;fill-opacity:1;stroke:none" />
    <rect
       style="fill:#ffffff;fill-opacity:1;stroke:none;stroke-opacity:1"
       id="rect5749"
       width="271.789"
       height="250"
       x="133.68365"
       y="323.0574"
       inkscape:export-filename="/Users/matteocancellieri/Documents/workspace/matteocancellieri.com/img/skills.png"
       inkscape:export-xdpi="240"
       inkscape:export-ydpi="240" />
    <g
       id="g5751"
       transform="matrix(0.48417058,0,0,0.48417058,143.8433,258.43954)"
       inkscape:export-filename="/Users/matteocancellieri/Documents/workspace/matteocancellieri.com/img/skills.png"
       inkscape:export-xdpi="240"
       inkscape:export-ydpi="240">
      <rect
         inkscape:export-ydpi="240"
         inkscape:export-xdpi="240"
         inkscape:export-filename="/Users/matteocancellieri/Documents/workspace/matteocancellieri.com/img/skills.png"
         y="327.39499"
         x="58.152447"
         height="197.71832"
         width="299.80817"
         id="rect5080"
         style="fill:#008080;fill-opacity:1;stroke:#444444;stroke-width:10;stroke-linecap:round;stroke-linejoin:round;stroke-miterlimit:4;stroke-opacity:1;stroke-dasharray:none;stroke-dashoffset:0" />
      <text
         inkscape:export-ydpi="240"
         inkscape:export-xdpi="240"
         inkscape:export-filename="/Users/matteocancellieri/Documents/workspace/matteocancellieri.com/img/skills.png"
         sodipodi:linespacing="125%"
         id="text5082"
         y="451.44888"
         x="75.336464"
         style="font-size:36.55845261px;font-style:normal;font-variant:normal;font-weight:normal;font-stretch:normal;line-height:125%;letter-spacing:0px;word-spacing:0px;fill:#444444;fill-opacity:1;stroke:none;font-family:London Tube;-inkscape-font-specification:London Tube"
         xml:space="preserve"><tspan
           style="font-size:83.56218719px;font-style:normal;font-variant:normal;font-weight:normal;font-stretch:normal;fill:#444444;fill-opacity:1;font-family:Chalkduster;-inkscape-font-specification:Chalkduster"
           y="451.44888"
           x="75.336464"
           id="tspan5084"
           sodipodi:role="line">2+2=5</tspan></text>
    </g>
    <path
       style="fill:#aa4400;stroke:none"
       d="m 134.48722,768.00318 21.87023,66.57204 c 8.98189,-0.62404 17.1809,0.031 25.88379,0 l 21.87024,-66.57204 z"
       id="path5617"
       inkscape:connector-curvature="0"
       sodipodi:nodetypes="ccccc"
       inkscape:export-filename="/Users/matteocancellieri/Documents/workspace/matteocancellieri.com/img/personal.png"
       inkscape:export-xdpi="240"
       inkscape:export-ydpi="240" />
    <path
       style="fill:none;stroke:#00a500;stroke-width:3.84531641;stroke-linecap:butt;stroke-linejoin:miter;stroke-miterlimit:4;stroke-opacity:1;stroke-dasharray:none"
       d="m 169.69217,755.05662 c 0,0 0,-25.83991 20.8707,-32.79681 20.87069,-6.95689 20.87069,-6.95689 20.87069,-6.95689"
       id="path5625"
       inkscape:connector-curvature="0"
       inkscape:export-filename="/Users/matteocancellieri/Documents/workspace/matteocancellieri.com/img/personal.png"
       inkscape:export-xdpi="240"
       inkscape:export-ydpi="240" />
    <path
       style="fill:#d45500;stroke:none"
       d="m 126.53492,769.08662 2.98153,-16.89532 79.5074,1.98769 0,16.89532 z"
       id="path5623"
       inkscape:connector-curvature="0"
       sodipodi:nodetypes="ccccc"
       inkscape:export-filename="/Users/matteocancellieri/Documents/workspace/matteocancellieri.com/img/personal.png"
       inkscape:export-xdpi="240"
       inkscape:export-ydpi="240" />
    <path
       style="fill:#e5d5ff;stroke:none"
       d="m 213.81936,713.60924 c -13.62804,29.89745 -27.81028,9.98674 -27.81028,9.98674 0,0 1.94451,-24.84947 27.81028,-9.98674 z"
       id="path5629"
       inkscape:connector-curvature="0"
       inkscape:export-filename="/Users/matteocancellieri/Documents/workspace/matteocancellieri.com/img/personal.png"
       inkscape:export-xdpi="240"
       inkscape:export-ydpi="240" />
    <path
       inkscape:connector-curvature="0"
       id="path5631"
       d="m 218.00152,713.29071 c 18.05964,27.44869 -6.34489,28.85982 -6.34489,28.85982 0,0 -20.00355,-14.87063 6.34489,-28.85982 z"
       style="fill:#e5d5ff;stroke:none"
       inkscape:transform-center-x="19.843263"
       inkscape:transform-center-y="7.6121816"
       inkscape:export-filename="/Users/matteocancellieri/Documents/workspace/matteocancellieri.com/img/personal.png"
       inkscape:export-xdpi="240"
       inkscape:export-ydpi="240" />
    <path
       style="fill:#e5d5ff;stroke:none"
       d="m 218.87997,712.947 c -23.77327,-22.68068 -0.31223,-29.54742 -0.31223,-29.54742 0,0 22.83685,9.98777 0.31223,29.54742 z"
       id="path5633"
       inkscape:connector-curvature="0"
       inkscape:transform-center-x="13.878672"
       inkscape:export-filename="/Users/matteocancellieri/Documents/workspace/matteocancellieri.com/img/personal.png"
       inkscape:export-xdpi="240"
       inkscape:export-ydpi="240" />
    <path
       inkscape:connector-curvature="0"
       id="path5635"
       d="m 218.4084,711.87694 c 14.61317,-29.4285 28.12652,-9.0579 28.12652,-9.0579 0,0 -2.76849,24.77122 -28.12652,9.0579 z"
       style="fill:#e5d5ff;stroke:none"
       inkscape:transform-center-x="17.42889"
       inkscape:transform-center-y="16.015983"
       inkscape:export-filename="/Users/matteocancellieri/Documents/workspace/matteocancellieri.com/img/personal.png"
       inkscape:export-xdpi="240"
       inkscape:export-ydpi="240" />
    <path
       style="fill:#e5d5ff;stroke:none"
       d="m 239.64352,732.57456 c -32.79681,1.98768 -21.86453,-19.87685 -21.86453,-19.87685 0,0 22.85837,-9.93843 21.86453,19.87685 z"
       id="path5637"
       inkscape:connector-curvature="0"
       inkscape:export-filename="/Users/matteocancellieri/Documents/workspace/matteocancellieri.com/img/personal.png"
       inkscape:export-xdpi="240"
       inkscape:export-ydpi="240" />
    <path
       inkscape:connector-curvature="0"
       id="path5639"
       d="m 212.10011,710.44992 c -32.79681,1.98768 -21.86453,-19.87685 -21.86453,-19.87685 0,0 22.85837,-9.93843 21.86453,19.87685 z"
       style="fill:#e5d5ff;stroke:none"
       inkscape:export-filename="/Users/matteocancellieri/Documents/workspace/matteocancellieri.com/img/personal.png"
       inkscape:export-xdpi="240"
       inkscape:export-ydpi="240" />
    <path
       sodipodi:type="arc"
       style="fill:#ffff00;fill-opacity:1;stroke:none"
       id="path5627"
       sodipodi:cx="188.67239"
       sodipodi:cy="681.47882"
       sodipodi:rx="11.630489"
       sodipodi:ry="10.338213"
       d="m 200.30288,681.47882 a 11.630489,10.338213 0 1 1 -23.26098,0 11.630489,10.338213 0 1 1 23.26098,0 z"
       transform="matrix(0.76906329,0,0,0.76906329,69.8859,187.793)"
       inkscape:export-filename="/Users/matteocancellieri/Documents/workspace/matteocancellieri.com/img/personal.png"
       inkscape:export-xdpi="240"
       inkscape:export-ydpi="240" />
    <g
       id="g5787"
       transform="matrix(1.6028326,0,0,1.6028326,54.295716,-592.42841)"
       inkscape:export-filename="/Users/matteocancellieri/Documents/workspace/matteocancellieri.com/img/creativity.png"
       inkscape:export-xdpi="240"
       inkscape:export-ydpi="240">
      <rect
         inkscape:export-ydpi="240"
         inkscape:export-xdpi="240"
         inkscape:export-filename="/Users/matteocancellieri/Documents/workspace/matteocancellieri.com/img/creativity.png"
         ry="2.3692234"
         y="785.23224"
         x="262.39151"
         height="58.638279"
         width="88.253571"
         id="rect5663"
         style="fill:#5f8dd3;fill-opacity:1;stroke:none" />
      <path
         inkscape:export-ydpi="240"
         inkscape:export-xdpi="240"
         inkscape:export-filename="/Users/matteocancellieri/Documents/workspace/matteocancellieri.com/img/creativity.png"
         transform="matrix(1.2876994,0,0,1.2253912,-91.235969,-184.31046)"
         d="m 326.36053,818.40137 c 0,10.14076 -7.82293,18.36148 -17.47302,18.36148 -9.65008,0 -17.47302,-8.22072 -17.47302,-18.36148 0,-10.14077 7.82294,-18.36149 17.47302,-18.36149 9.65009,0 17.47302,8.22072 17.47302,18.36149 z"
         sodipodi:ry="18.361483"
         sodipodi:rx="17.473022"
         sodipodi:cy="818.40137"
         sodipodi:cx="308.88751"
         id="path5665"
         style="fill:#3771c8;fill-opacity:1;stroke:none"
         sodipodi:type="arc" />
      <path
         inkscape:export-ydpi="240"
         inkscape:export-xdpi="240"
         inkscape:export-filename="/Users/matteocancellieri/Documents/workspace/matteocancellieri.com/img/creativity.png"
         sodipodi:nodetypes="ccccccc"
         inkscape:connector-curvature="0"
         id="path5673"
         d="m 298,768.28125 c -5.50682,3.35411 -8.875,17.1875 -8.875,17.1875 l 16,0 2.9375,0 16,0 c 0,0 -3.36818,-13.83339 -8.875,-17.1875 z"
         style="fill:#5f8dd3;stroke:none" />
      <rect
         inkscape:export-ydpi="240"
         inkscape:export-xdpi="240"
         inkscape:export-filename="/Users/matteocancellieri/Documents/workspace/matteocancellieri.com/img/creativity.png"
         ry="0.8493942"
         y="781.08612"
         x="266.76071"
         height="4.1461411"
         width="8.8845882"
         id="rect5681"
         style="fill:#214478;fill-opacity:1;stroke:none" />
      <rect
         inkscape:export-ydpi="240"
         inkscape:export-xdpi="240"
         inkscape:export-filename="/Users/matteocancellieri/Documents/workspace/matteocancellieri.com/img/creativity.png"
         ry="2.3692234"
         y="784.27075"
         x="260.02228"
         height="8.2922821"
         width="93.58432"
         id="rect5667"
         style="fill:#afc6e9;fill-opacity:1;stroke:none" />
      <path
         inkscape:export-ydpi="240"
         inkscape:export-xdpi="240"
         inkscape:export-filename="/Users/matteocancellieri/Documents/workspace/matteocancellieri.com/img/creativity.png"
         transform="matrix(2.6379953,0,0,2.3448846,-491.91927,-1101.8942)"
         d="m 307.40675,818.99365 c 0,2.9441 -2.12147,5.33076 -4.73845,5.33076 -2.61697,0 -4.73844,-2.38666 -4.73844,-5.33076 0,-2.94409 2.12147,-5.33075 4.73844,-5.33075 2.61698,0 4.73845,2.38666 4.73845,5.33075 z"
         sodipodi:ry="5.3307528"
         sodipodi:rx="4.7384467"
         sodipodi:cy="818.99365"
         sodipodi:cx="302.6683"
         id="path5669"
         style="fill:#214478;fill-opacity:1;stroke:none"
         sodipodi:type="arc" />
      <rect
         inkscape:export-ydpi="240"
         inkscape:export-xdpi="240"
         inkscape:export-filename="/Users/matteocancellieri/Documents/workspace/matteocancellieri.com/img/creativity.png"
         ry="1.1536822"
         y="771.01691"
         x="298.52216"
         height="8.2922821"
         width="16.584564"
         id="rect5679"
         style="fill:#afc6e9;fill-opacity:1;stroke:none" />
    </g>
    <g
       id="g5758"
       transform="matrix(0.81199034,0,0,0.81199034,149.17538,-118.33844)"
       inkscape:export-filename="/Users/matteocancellieri/Documents/workspace/matteocancellieri.com/img/projects.png"
       inkscape:export-xdpi="240"
       inkscape:export-ydpi="240">
      <rect
         inkscape:export-ydpi="240"
         inkscape:export-xdpi="240"
         inkscape:export-filename="/Users/matteocancellieri/Documents/workspace/matteocancellieri.com/img/projects.png"
         ry="2.3692234"
         y="817.07953"
         x="491.23059"
         height="28.258331"
         width="78.253845"
         id="rect5747"
         style="fill:#afe9c6;fill-opacity:1;stroke:none" />
      <rect
         inkscape:export-ydpi="240"
         inkscape:export-xdpi="240"
         inkscape:export-filename="/Users/matteocancellieri/Documents/workspace/matteocancellieri.com/img/projects.png"
         ry="2.4097977"
         y="691.83826"
         x="437.99188"
         height="129.10197"
         width="184.73126"
         id="rect5683"
         style="fill:#37c871;fill-opacity:1;stroke:none" />
      <rect
         inkscape:export-ydpi="240"
         inkscape:export-xdpi="240"
         inkscape:export-filename="/Users/matteocancellieri/Documents/workspace/matteocancellieri.com/img/projects.png"
         style="fill:#002b11;fill-opacity:1;stroke:none"
         id="rect5685"
         width="172.81311"
         height="95.345177"
         x="443.95093"
         y="703.16052"
         ry="1.7796983" />
      <path
         inkscape:export-ydpi="240"
         inkscape:export-xdpi="240"
         inkscape:export-filename="/Users/matteocancellieri/Documents/workspace/matteocancellieri.com/img/projects.png"
         inkscape:connector-curvature="0"
         id="path5687"
         d="m 451.10184,709.71548 144.44482,0.5959 0,0"
         style="fill:#aaffcc;stroke:#afe9c6;stroke-width:3;stroke-linecap:round;stroke-linejoin:round;stroke-miterlimit:4;stroke-opacity:1;stroke-dasharray:none" />
      <path
         inkscape:export-ydpi="240"
         inkscape:export-xdpi="240"
         inkscape:export-filename="/Users/matteocancellieri/Documents/workspace/matteocancellieri.com/img/projects.png"
         inkscape:connector-curvature="0"
         id="path5695"
         d="m 451.10184,715.71548 121.89065,0.5959 0,0"
         style="fill:#aaffcc;stroke:#afe9c6;stroke-width:3;stroke-linecap:round;stroke-linejoin:round;stroke-miterlimit:4;stroke-opacity:1;stroke-dasharray:none" />
      <path
         inkscape:export-ydpi="240"
         inkscape:export-xdpi="240"
         inkscape:export-filename="/Users/matteocancellieri/Documents/workspace/matteocancellieri.com/img/projects.png"
         inkscape:connector-curvature="0"
         id="path5699"
         d="m 451.10184,721.71548 133.43903,0.5959 0,0"
         style="fill:#aaffcc;stroke:#afe9c6;stroke-width:3;stroke-linecap:round;stroke-linejoin:round;stroke-miterlimit:4;stroke-opacity:1;stroke-dasharray:none" />
      <path
         inkscape:export-ydpi="240"
         inkscape:export-xdpi="240"
         inkscape:export-filename="/Users/matteocancellieri/Documents/workspace/matteocancellieri.com/img/projects.png"
         style="fill:#aaffcc;stroke:#afe9c6;stroke-width:3;stroke-linecap:round;stroke-linejoin:round;stroke-miterlimit:4;stroke-opacity:1;stroke-dasharray:none"
         d="m 451.10184,727.71548 153.68127,0.5959 0,0"
         id="path5701"
         inkscape:connector-curvature="0" />
      <path
         inkscape:export-ydpi="240"
         inkscape:export-xdpi="240"
         inkscape:export-filename="/Users/matteocancellieri/Documents/workspace/matteocancellieri.com/img/projects.png"
         style="fill:#aaffcc;stroke:#afe9c6;stroke-width:3;stroke-linecap:round;stroke-linejoin:round;stroke-miterlimit:4;stroke-opacity:1;stroke-dasharray:none"
         d="m 451.10184,733.71548 128.96341,0.5959 0,0"
         id="path5705"
         inkscape:connector-curvature="0" />
      <path
         inkscape:export-ydpi="240"
         inkscape:export-xdpi="240"
         inkscape:export-filename="/Users/matteocancellieri/Documents/workspace/matteocancellieri.com/img/projects.png"
         style="fill:#aaffcc;stroke:#afe9c6;stroke-width:3;stroke-linecap:round;stroke-linejoin:round;stroke-miterlimit:4;stroke-opacity:1;stroke-dasharray:none"
         d="m 451.10184,739.71548 146.90445,0.5959 0,0"
         id="path5707"
         inkscape:connector-curvature="0" />
      <path
         inkscape:export-ydpi="240"
         inkscape:export-xdpi="240"
         inkscape:export-filename="/Users/matteocancellieri/Documents/workspace/matteocancellieri.com/img/projects.png"
         style="fill:#aaffcc;stroke:#afe9c6;stroke-width:3;stroke-linecap:round;stroke-linejoin:round;stroke-miterlimit:4;stroke-opacity:1;stroke-dasharray:none"
         d="m 451.10184,745.71548 28.00764,0.5959 0,0"
         id="path5709"
         inkscape:connector-curvature="0" />
      <path
         inkscape:export-ydpi="240"
         inkscape:export-xdpi="240"
         inkscape:export-filename="/Users/matteocancellieri/Documents/workspace/matteocancellieri.com/img/projects.png"
         sodipodi:nodetypes="cc"
         inkscape:connector-curvature="0"
         id="path5711"
         d="m 451.10184,751.71548 9.53104,0.0525"
         style="fill:#aaffcc;stroke:#afe9c6;stroke-width:3;stroke-linecap:round;stroke-linejoin:round;stroke-miterlimit:4;stroke-opacity:1;stroke-dasharray:none" />
      <path
         inkscape:export-ydpi="240"
         inkscape:export-xdpi="240"
         inkscape:export-filename="/Users/matteocancellieri/Documents/workspace/matteocancellieri.com/img/projects.png"
         inkscape:connector-curvature="0"
         id="path5717"
         d="m 485.10184,746.21528 120.29441,0.5959 0,0"
         style="fill:#aaffcc;stroke:#afe9c6;stroke-width:3;stroke-linecap:round;stroke-linejoin:round;stroke-miterlimit:4;stroke-opacity:1;stroke-dasharray:none" />
      <path
         inkscape:export-ydpi="240"
         inkscape:export-xdpi="240"
         inkscape:export-filename="/Users/matteocancellieri/Documents/workspace/matteocancellieri.com/img/projects.png"
         style="fill:#aaffcc;stroke:#afe9c6;stroke-width:3;stroke-linecap:round;stroke-linejoin:round;stroke-miterlimit:4;stroke-opacity:1;stroke-dasharray:none"
         d="m 579.10184,715.71548 9.53104,0.0525"
         id="path5721"
         inkscape:connector-curvature="0"
         sodipodi:nodetypes="cc" />
      <path
         inkscape:export-ydpi="240"
         inkscape:export-xdpi="240"
         inkscape:export-filename="/Users/matteocancellieri/Documents/workspace/matteocancellieri.com/img/projects.png"
         sodipodi:nodetypes="cc"
         inkscape:connector-curvature="0"
         id="path5723"
         d="m 587.10184,734.11568 9.53104,0.0525"
         style="fill:#aaffcc;stroke:#afe9c6;stroke-width:3;stroke-linecap:round;stroke-linejoin:round;stroke-miterlimit:4;stroke-opacity:1;stroke-dasharray:none" />
      <path
         inkscape:export-ydpi="240"
         inkscape:export-xdpi="240"
         inkscape:export-filename="/Users/matteocancellieri/Documents/workspace/matteocancellieri.com/img/projects.png"
         style="fill:#aaffcc;stroke:#afe9c6;stroke-width:3;stroke-linecap:round;stroke-linejoin:round;stroke-miterlimit:4;stroke-opacity:1;stroke-dasharray:none"
         d="m 451.10184,751.71548 144.44482,0.5959 0,0"
         id="path5725"
         inkscape:connector-curvature="0" />
      <path
         inkscape:export-ydpi="240"
         inkscape:export-xdpi="240"
         inkscape:export-filename="/Users/matteocancellieri/Documents/workspace/matteocancellieri.com/img/projects.png"
         style="fill:#aaffcc;stroke:#afe9c6;stroke-width:3;stroke-linecap:round;stroke-linejoin:round;stroke-miterlimit:4;stroke-opacity:1;stroke-dasharray:none"
         d="m 451.10184,757.71548 121.89065,0.5959 0,0"
         id="path5727"
         inkscape:connector-curvature="0" />
      <path
         inkscape:export-ydpi="240"
         inkscape:export-xdpi="240"
         inkscape:export-filename="/Users/matteocancellieri/Documents/workspace/matteocancellieri.com/img/projects.png"
         style="fill:#aaffcc;stroke:#afe9c6;stroke-width:3;stroke-linecap:round;stroke-linejoin:round;stroke-miterlimit:4;stroke-opacity:1;stroke-dasharray:none"
         d="m 451.10184,763.71548 133.43903,0.5959 0,0"
         id="path5729"
         inkscape:connector-curvature="0" />
      <path
         inkscape:export-ydpi="240"
         inkscape:export-xdpi="240"
         inkscape:export-filename="/Users/matteocancellieri/Documents/workspace/matteocancellieri.com/img/projects.png"
         inkscape:connector-curvature="0"
         id="path5731"
         d="m 451.10184,769.71548 153.68127,0.5959 0,0"
         style="fill:#aaffcc;stroke:#afe9c6;stroke-width:3;stroke-linecap:round;stroke-linejoin:round;stroke-miterlimit:4;stroke-opacity:1;stroke-dasharray:none" />
      <path
         inkscape:export-ydpi="240"
         inkscape:export-xdpi="240"
         inkscape:export-filename="/Users/matteocancellieri/Documents/workspace/matteocancellieri.com/img/projects.png"
         inkscape:connector-curvature="0"
         id="path5733"
         d="m 451.10184,775.71548 128.96341,0.5959 0,0"
         style="fill:#aaffcc;stroke:#afe9c6;stroke-width:3;stroke-linecap:round;stroke-linejoin:round;stroke-miterlimit:4;stroke-opacity:1;stroke-dasharray:none" />
      <path
         inkscape:export-ydpi="240"
         inkscape:export-xdpi="240"
         inkscape:export-filename="/Users/matteocancellieri/Documents/workspace/matteocancellieri.com/img/projects.png"
         inkscape:connector-curvature="0"
         id="path5735"
         d="m 451.10184,781.71548 146.90445,0.5959 0,0"
         style="fill:#aaffcc;stroke:#afe9c6;stroke-width:3;stroke-linecap:round;stroke-linejoin:round;stroke-miterlimit:4;stroke-opacity:1;stroke-dasharray:none" />
      <path
         inkscape:export-ydpi="240"
         inkscape:export-xdpi="240"
         inkscape:export-filename="/Users/matteocancellieri/Documents/workspace/matteocancellieri.com/img/projects.png"
         inkscape:connector-curvature="0"
         id="path5737"
         d="m 451.10184,787.71548 28.00764,0.5959 0,0"
         style="fill:#aaffcc;stroke:#afe9c6;stroke-width:3;stroke-linecap:round;stroke-linejoin:round;stroke-miterlimit:4;stroke-opacity:1;stroke-dasharray:none" />
      <path
         inkscape:export-ydpi="240"
         inkscape:export-xdpi="240"
         inkscape:export-filename="/Users/matteocancellieri/Documents/workspace/matteocancellieri.com/img/projects.png"
         style="fill:#aaffcc;stroke:#afe9c6;stroke-width:3;stroke-linecap:round;stroke-linejoin:round;stroke-miterlimit:4;stroke-opacity:1;stroke-dasharray:none"
         d="m 451.10184,793.71548 9.53104,0.0525"
         id="path5739"
         inkscape:connector-curvature="0"
         sodipodi:nodetypes="cc" />
      <path
         inkscape:export-ydpi="240"
         inkscape:export-xdpi="240"
         inkscape:export-filename="/Users/matteocancellieri/Documents/workspace/matteocancellieri.com/img/projects.png"
         style="fill:#aaffcc;stroke:#afe9c6;stroke-width:3;stroke-linecap:round;stroke-linejoin:round;stroke-miterlimit:4;stroke-opacity:1;stroke-dasharray:none"
         d="m 485.10184,788.21528 120.29441,0.5959 0,0"
         id="path5741"
         inkscape:connector-curvature="0" />
      <path
         inkscape:export-ydpi="240"
         inkscape:export-xdpi="240"
         inkscape:export-filename="/Users/matteocancellieri/Documents/workspace/matteocancellieri.com/img/projects.png"
         sodipodi:nodetypes="cc"
         inkscape:connector-curvature="0"
         id="path5743"
         d="m 579.10184,757.71548 9.53104,0.0525"
         style="fill:#aaffcc;stroke:#afe9c6;stroke-width:3;stroke-linecap:round;stroke-linejoin:round;stroke-miterlimit:4;stroke-opacity:1;stroke-dasharray:none" />
      <path
         inkscape:export-ydpi="240"
         inkscape:export-xdpi="240"
         inkscape:export-filename="/Users/matteocancellieri/Documents/workspace/matteocancellieri.com/img/projects.png"
         style="fill:#aaffcc;stroke:#afe9c6;stroke-width:3;stroke-linecap:round;stroke-linejoin:round;stroke-miterlimit:4;stroke-opacity:1;stroke-dasharray:none"
         d="m 587.10184,776.11568 9.53104,0.0525"
         id="path5745"
         inkscape:connector-curvature="0"
         sodipodi:nodetypes="cc" />
    </g>
    <g
       id="g4243"
       transform="translate(39.437034,-38.088972)"
       inkscape:export-filename="/Users/matteocancellieri/Documents/workspace/matteocancellieri.com/img/personal.png"
       inkscape:export-xdpi="200"
       inkscape:export-ydpi="200">
      <path
         style="fill:#ffffff;stroke:none"
         d="m 133.09681,1066.0741 21.87024,66.572 c 8.98189,-0.624 17.18089,0.031 25.88378,0 l 21.87024,-66.572 z"
         id="path3037"
         inkscape:connector-curvature="0"
         sodipodi:nodetypes="ccccc"
         inkscape:export-filename="/Users/matteocancellieri/Documents/workspace/matteocancellieri.com/img/personal.png"
         inkscape:export-xdpi="240"
         inkscape:export-ydpi="240" />
      <path
         style="fill:none;stroke:#ffffff;stroke-width:3.84531641;stroke-linecap:butt;stroke-linejoin:miter;stroke-miterlimit:4;stroke-opacity:1;stroke-dasharray:none"
         d="m 168.30176,1045.1275 c 0,0 0,-25.8399 20.8707,-32.7968 20.87069,-6.9569 20.87069,-6.9569 20.87069,-6.9569"
         id="path3039"
         inkscape:connector-curvature="0"
         inkscape:export-filename="/Users/matteocancellieri/Documents/workspace/matteocancellieri.com/img/personal.png"
         inkscape:export-xdpi="240"
         inkscape:export-ydpi="240" />
      <path
         style="fill:#ffffff;stroke:none"
         d="m 125.14452,1063.1575 2.98152,-16.8953 79.50741,1.9877 0,16.8953 z"
         id="path3041"
         inkscape:connector-curvature="0"
         sodipodi:nodetypes="ccccc"
         inkscape:export-filename="/Users/matteocancellieri/Documents/workspace/matteocancellieri.com/img/personal.png"
         inkscape:export-xdpi="240"
         inkscape:export-ydpi="240" />
      <path
         inkscape:connector-curvature="0"
         id="path3043"
         d="m 196.57342,1003.5169 c -12.15055,-0.4269 -13.26441,13.9143 -13.26441,13.9143 0,10e-5 11.64924,16.3476 23.66323,-4.3131 -2.79423,-1.2268 -4.72674,-3.778 -4.72674,-6.7356 0,-0.5724 0.1,-1.1186 0.23634,-1.6544 -2.20394,-0.7424 -4.17957,-1.1504 -5.90842,-1.2112 z"
         style="fill:#ffffff;stroke:none" />
      <path
         inkscape:connector-curvature="0"
         id="path3045"
         d="m 206.76852,1014.1562 c -13.13234,15.4893 5.09375,24.0938 5.09375,24.0938 0,0 19.60508,-5.1291 5.59375,-23.7188 -1.43908,0.8792 -3.18432,1.3751 -5.0625,1.375 -2.12901,0 -4.08915,-0.646 -5.625,-1.75 z"
         style="fill:#ffffff;stroke:none" />
      <path
         inkscape:connector-curvature="0"
         id="path3047"
         d="m 219.18217,974.83677 c 0,0 -16.7219,4.92835 -5.17579,20.42338 0.6274,-0.14035 1.28201,-0.2518 1.9584,-0.2518 2.79401,0 5.25383,1.28939 6.68656,3.21743 14.56038,-15.48457 -3.46917,-23.38901 -3.46917,-23.38901 z"
         style="fill:#ffffff;stroke:none" />
      <path
         inkscape:connector-curvature="0"
         id="path3049"
         d="m 235.38388,990.71457 c -3.67039,0.17217 -7.98074,2.61984 -12.50894,9.79083 1.42466,1.3334 2.30889,3.1306 2.30889,5.1147 0,0.882 -0.17982,1.7285 -0.49685,2.5134 19.38562,9.0105 21.65683,-11.01833 21.65683,-11.01833 0,0 -4.47907,-6.70463 -10.95993,-6.4006 z"
         style="fill:#ffffff;stroke:none" />
      <path
         inkscape:connector-curvature="0"
         id="path3051"
         d="m 227.89766,1008.436 c -1.24651,0.055 -2.39053,0.2733 -3.37135,0.4974 -0.50769,2.3662 -2.13993,4.3757 -4.36616,5.5544 -0.82857,5.6 1.04504,14.1255 20.72547,12.9327 0.54928,-16.4783 -7.14332,-19.242 -12.98796,-18.9845 z"
         style="fill:#ffffff;stroke:none" />
      <path
         inkscape:connector-curvature="0"
         id="path3053"
         d="m 198.26437,984.00329 c -3.6137,0.1592 -6.54961,1.45231 -6.54961,1.45231 0,0 -7.6973,15.3969 10.76415,17.8832 -0.005,-0.095 0,-0.1887 0,-0.2846 0,-4.00143 3.64275,-7.26161 8.14429,-7.26161 0.19378,0 0.37914,0.0167 0.56954,0.0284 -1.74223,-10.12867 -7.9732,-12.03606 -12.92837,-11.81777 z"
         style="fill:#ffffff;stroke:none" />
      <path
         sodipodi:type="arc"
         style="fill:#ffffff;fill-opacity:1;stroke:none"
         id="path3055"
         sodipodi:cx="188.67239"
         sodipodi:cy="681.47882"
         sodipodi:rx="11.630489"
         sodipodi:ry="10.338213"
         d="m 200.30288,681.47882 c 0,5.70964 -5.20714,10.33821 -11.63049,10.33821 -6.42334,0 -11.63049,-4.62857 -11.63049,-10.33821 0,-5.70964 5.20715,-10.33821 11.63049,-10.33821 6.42335,0 11.63049,4.62857 11.63049,10.33821 z"
         transform="matrix(0.88861167,0,0,0.90355522,45.940012,390.21052)"
         inkscape:export-filename="/Users/matteocancellieri/Documents/workspace/matteocancellieri.com/img/personal.png"
         inkscape:export-xdpi="240"
         inkscape:export-ydpi="240" />
    </g>
    <g
       id="g4255"
       transform="translate(46.514008,-43.334996)">
      <path
         inkscape:connector-curvature="0"
         id="rect3860"
         d="m 474.875,1039.0865 0,76.1864 c 0,2.0432 1.67745,3.703 3.78125,3.703 l 133.875,0 c 2.1038,0 3.78125,-1.6596 3.78125,-3.703 l 0,-76.1864 -141.4375,0 z m 70.71875,5.4332 c 19.91745,0 36.0625,15.6818 36.0625,35.0276 0,19.3457 -16.14505,35.0275 -36.0625,35.0275 -19.91745,0 -36.0625,-15.6818 -36.0625,-35.0275 0,-19.3458 16.14505,-35.0276 36.0625,-35.0276 z m 0,15.5711 c -11.06525,0 -20.03125,8.7087 -20.03125,19.4565 0,10.7477 8.966,19.4564 20.03125,19.4564 11.06525,-4e-4 20.03125,-8.7087 20.03125,-19.4564 0,-10.7478 -8.966,-19.4565 -20.03125,-19.4565 z m 0,4.0067 c 9.16204,0 16.59375,6.9076 16.59375,15.4498 0,8.5422 -7.43171,15.4801 -16.59375,15.4801 -9.16204,0 -16.59375,-6.9379 -16.59375,-15.4801 0,-8.5422 7.43171,-15.4498 16.59375,-15.4498 z"
         style="fill:#ffffff;fill-opacity:1;stroke:none" />
      <path
         inkscape:connector-curvature="0"
         id="path3862"
         d="m 545.59375,1046.2808 c -19.14952,0 -34.67209,14.9001 -34.67209,33.2817 0,18.3816 15.52257,33.2817 34.67209,33.2817 19.14952,0 34.67209,-14.9001 34.67209,-33.2817 0,-18.3816 -15.52257,-33.2817 -34.67209,-33.2817 z m 0,14.795 c 10.63862,0 19.25894,8.2747 19.25894,18.4867 0,10.212 -8.62032,18.4866 -19.25894,18.4867 -10.63862,0 -19.25894,-8.2747 -19.25894,-18.4867 0,-10.212 8.62032,-18.4867 19.25894,-18.4867 z"
         style="fill:#ffffff;fill-opacity:1;stroke:none" />
      <path
         inkscape:connector-curvature="0"
         id="path3864"
         d="m 531.9375,999 c -6.50902,3.9646 -11.13642,17.0249 -13.125,23.625 l 53.8125,0 C 570.63642,1016.0249 566.00902,1002.9646 559.5,999 l -27.5625,0 z m 2.6875,4.375 22.875,0 c 1.02443,0 1.84375,0.8193 1.84375,1.8438 l 0,9.5937 c 0,1.0244 -0.81932,1.875 -1.84375,1.875 l -22.875,0 c -1.02443,0 -1.84375,-0.8506 -1.84375,-1.875 l 0,-9.5937 c 0,-1.0245 0.81932,-1.8438 1.84375,-1.8438 z"
         style="fill:#ffffff;stroke:none" />
      <path
         inkscape:connector-curvature="0"
         id="rect3866"
         d="m 483.21875,1019.5312 c -0.75424,10e-5 -1.34375,0.5896 -1.34375,1.3438 l 0,1.75 14.21875,0 0,-1.75 c 0,-0.7542 -0.58951,-1.3438 -1.34375,-1.3438 l -11.53125,0 z"
         style="fill:#ffffff;fill-opacity:1;stroke:none" />
      <rect
         style="fill:#ffffff;fill-opacity:1;stroke:none"
         id="rect3868"
         width="150"
         height="13.291141"
         x="471.0679"
         y="1024.6262"
         ry="3.7974684"
         inkscape:export-filename="/Users/matteocancellieri/Documents/workspace/matteocancellieri.com/img/creativity.png"
         inkscape:export-xdpi="240"
         inkscape:export-ydpi="240" />
      <path
         sodipodi:type="arc"
         style="fill:#ffffff;fill-opacity:1;stroke:none"
         id="path3870"
         sodipodi:cx="302.6683"
         sodipodi:cy="818.99365"
         sodipodi:rx="4.7384467"
         sodipodi:ry="5.3307528"
         d="m 307.40675,818.99365 c 0,2.9441 -2.12147,5.33076 -4.73845,5.33076 -2.61697,0 -4.73844,-2.38666 -4.73844,-5.33076 0,-2.94409 2.12147,-5.33075 4.73844,-5.33075 2.61698,0 4.73845,2.38666 4.73845,5.33075 z"
         transform="matrix(3.2255002,0,0,2.7263826,-430.66343,-1153.3183)"
         inkscape:export-filename="/Users/matteocancellieri/Documents/workspace/matteocancellieri.com/img/creativity.png"
         inkscape:export-xdpi="240"
         inkscape:export-ydpi="240" />
      <rect
         style="fill:#ffffff;fill-opacity:1;stroke:none"
         id="rect3872"
         width="24.221743"
         height="11.520737"
         x="533.95703"
         y="1004.2678"
         ry="1.6028481"
         inkscape:export-filename="/Users/matteocancellieri/Documents/workspace/matteocancellieri.com/img/creativity.png"
         inkscape:export-xdpi="240"
         inkscape:export-ydpi="240" />
    </g>
    <g
       id="g4268"
       transform="translate(46.519409,48.903076)">
      <path
         inkscape:connector-curvature="0"
         id="rect3906"
         d="m 514.3125,1270.25 0,17.9062 c 0,1.0658 0.84047,1.9063 1.90625,1.9063 l 59.6875,0 c 1.06578,0 1.9375,-0.8405 1.9375,-1.9063 l 0,-17.9062 -63.53125,0 z"
         style="fill:#ffffff;fill-opacity:1;stroke:none" />
      <path
         id="rect3908"
         d="m 473.03125,1163.4375 c -1.08403,0 -1.96875,0.8535 -1.96875,1.9375 l 0,100.9375 c 0,1.084 0.88472,1.9375 1.96875,1.9375 l 146.09375,0 c 1.08403,0 1.9375,-0.8535 1.9375,-1.9375 l 0,-100.9375 c 0,-1.084 -0.85347,-1.9375 -1.9375,-1.9375 l -146.09375,0 z m 4.3125,9.1875 137.4375,0 c 0.80058,0 1.4375,0.6369 1.4375,1.4375 l 0,74.5313 c 0,0.8001 -0.63692,1.4374 -1.4375,1.4374 l -137.4375,0 c -0.80058,0 -1.4375,-0.6376 -1.4375,-1.4374 l 0,-74.5313 c 0,-0.8006 0.63692,-1.4375 1.4375,-1.4375 z"
         style="fill:#ffffff;fill-opacity:1;stroke:none"
         inkscape:connector-curvature="0" />
      <path
         inkscape:connector-curvature="0"
         id="rect3910"
         d="m 478.71819,1174.4959 c -0.78457,0 -1.40875,0.6061 -1.40875,1.368 l 0,70.9285 c 0,0.7611 0.62418,1.3679 1.40875,1.3679 l 134.68862,0 c 0.78457,0 1.40875,-0.6064 1.40875,-1.3679 l 0,-70.9285 c 0,-0.7619 -0.62418,-1.368 -1.40875,-1.368 l -134.68862,0 z m 3.55249,3.8959 a 1.2409257,1.2050409 0 0 1 0.0612,0 1.2329643,1.1973097 0 0 1 0.0612,0 1.2257165,1.1902716 0 0 1 0.0613,0 1.2191951,1.1839387 0 0 1 0.0612,0 1.2134119,1.1783228 0 0 1 0.0613,0 1.2083774,1.1734338 0 0 1 0.0612,0 1.204101,1.1692811 0 0 1 0.0613,0 1.2005907,1.1658723 0 0 1 0.0612,0 1.1958945,1.1613119 0 0 1 0.1225,0 1.193744,1.1592237 0 0 1 0.1225,0 l 114.93552,0.4759 a 1.1943249,1.1597877 0 0 1 0,2.3195 l -114.93552,-0.4758 a 1.2495993,1.2134637 0 0 1 -0.735,-2.3196 z m 0,4.6394 a 1.2409257,1.2050409 0 0 1 0.0612,0 1.2329643,1.1973097 0 0 1 0.0612,0 1.2257165,1.1902716 0 0 1 0.0613,0 1.2191951,1.1839387 0 0 1 0.0612,0 1.2134119,1.1783228 0 0 1 0.0613,0 1.2083774,1.1734338 0 0 1 0.0612,0 1.204101,1.1692811 0 0 1 0.0613,0 1.2005907,1.1658723 0 0 1 0.0612,0 1.1958945,1.1613119 0 0 1 0.1225,0 1.193744,1.1592237 0 0 1 0.1225,0 l 96.98929,0.4758 a 1.1943376,1.1598 0 0 1 0,2.3196 l -96.98929,-0.4759 a 1.2495871,1.2134519 0 0 1 -0.735,-2.3195 z m 101.85866,0 a 1.2409257,1.2050409 0 0 1 0.0613,0 1.2329643,1.1973097 0 0 1 0.0612,0 1.2257165,1.1902716 0 0 1 0.0612,0 1.2191951,1.1839387 0 0 1 0.0612,0 1.2134119,1.1783228 0 0 1 0.0613,0 1.2083774,1.1734338 0 0 1 0.0612,0 1.204101,1.1692811 0 0 1 0.0612,0 1.2005907,1.1658723 0 0 1 0.0612,0 1.1958945,1.1613119 0 0 1 0.1225,0 1.193744,1.1592237 0 0 1 0.1225,0 l 7.59499,0.059 a 1.193744,1.1592237 0 1 1 -0.0306,2.29 l -7.56437,-0.03 a 1.2495871,1.2134519 0 0 1 -0.735,-2.3195 z m -101.85866,4.6393 a 1.2409257,1.2050409 0 0 1 0.0612,0 1.2329643,1.1973097 0 0 1 0.0612,0 1.2257165,1.1902716 0 0 1 0.0613,0 1.2191951,1.1839387 0 0 1 0.0612,0 1.2134119,1.1783228 0 0 1 0.0613,0 1.2083774,1.1734338 0 0 1 0.0612,0 1.204101,1.1692811 0 0 1 0.0613,0 1.2005907,1.1658723 0 0 1 0.0612,0 1.1958945,1.1613119 0 0 1 0.1225,0 1.193744,1.1592237 0 0 1 0.1225,0 l 106.17678,0.4758 a 1.193744,1.1592237 0 1 1 0,2.2899 l -106.17678,-0.4461 a 1.2495993,1.2134637 0 0 1 -0.735,-2.3196 z m 0,4.6393 a 1.2409257,1.2050409 0 0 1 0.0612,0 1.2329643,1.1973097 0 0 1 0.0612,0 1.2257165,1.1902716 0 0 1 0.0613,0 1.2191951,1.1839387 0 0 1 0.0612,0 1.2134119,1.1783228 0 0 1 0.0613,0 1.2083774,1.1734338 0 0 1 0.0612,0 1.204101,1.1692811 0 0 1 0.0613,0 1.2005907,1.1658723 0 0 1 0.0612,0 1.1958945,1.1613119 0 0 1 0.1225,0 1.193744,1.1592237 0 0 1 0.1225,0 l 122.28551,0.4461 a 1.194389,1.15985 0 0 1 0,2.3197 l -122.28551,-0.4462 a 1.2495993,1.2134637 0 0 1 -0.735,-2.3196 z m 0,4.6394 a 1.2409257,1.2050409 0 0 1 0.0612,0 1.2329643,1.1973097 0 0 1 0.0612,0 1.2257165,1.1902716 0 0 1 0.0613,0 1.2191951,1.1839387 0 0 1 0.0612,0 1.2134119,1.1783228 0 0 1 0.0613,0 1.2083774,1.1734338 0 0 1 0.0612,0 1.204101,1.1692811 0 0 1 0.0613,0 1.2005907,1.1658723 0 0 1 0.0612,0 1.193744,1.1592237 0 0 1 0.245,0 l 102.62428,0.446 a 1.194389,1.15985 0 0 1 0,2.3197 l -102.62428,-0.4461 a 1.2495993,1.2134637 0 0 1 -0.735,-2.3196 z m 108.22865,0.2973 a 1.2369512,1.2011814 0 0 1 0.0612,0 1.2293456,1.1937956 0 0 1 0.0613,0 1.22246,1.1871092 0 0 1 0.0612,0 1.2163069,1.181134 0 0 1 0.0612,0 1.2108972,1.1758807 0 0 1 0.0612,0 1.2062409,1.1713591 0 0 1 0.0613,0 1.202347,1.1675778 0 0 1 0.0612,0 1.1992227,1.1645439 0 0 1 0.0612,0 1.195306,1.1607404 0 0 1 0.1225,0 1.193744,1.1592237 0 0 1 0.1225,0 l 7.56437,0.06 a 1.1943249,1.1597877 0 0 1 0,2.3195 l -7.59499,-0.059 a 1.2452815,1.2092708 0 0 1 -0.70438,-2.3198 z m -108.22865,4.342 a 1.2409257,1.2050409 0 0 1 0.0612,0 1.2329643,1.1973097 0 0 1 0.0612,0 1.2257165,1.1902716 0 0 1 0.0613,0 1.2191951,1.1839387 0 0 1 0.0612,0 1.2134119,1.1783228 0 0 1 0.0613,0 1.2083774,1.1734338 0 0 1 0.0612,0 1.204101,1.1692811 0 0 1 0.0613,0 1.2005907,1.1658723 0 0 1 0.0612,0 1.193744,1.1592237 0 0 1 0.245,0 l 116.89552,0.4461 a 1.1943739,1.1598353 0 0 1 0,2.3196 l -116.89552,-0.4461 a 1.2495993,1.2134637 0 0 1 -0.735,-2.3196 z m -0.0306,4.6394 a 1.2409257,1.2050409 0 0 1 0.0612,0 1.2329643,1.1973097 0 0 1 0.0612,0 1.2257165,1.1902716 0 0 1 0.0613,0 1.2191951,1.1839387 0 0 1 0.0612,0 1.2134119,1.1783228 0 0 1 0.0613,0 1.2083774,1.1734338 0 0 1 0.0612,0 1.204101,1.1692811 0 0 1 0.0613,0 1.1978535,1.1632143 0 0 1 0.1225,0 1.193744,1.1592237 0 0 1 0.245,0 l 22.26435,0.446 a 1.1944871,1.1599452 0 1 1 -0.0306,2.3197 l -22.29498,-0.4462 a 1.2495871,1.2134519 0 0 1 -0.735,-2.3195 z m 27.1031,0.3865 a 1.2369039,1.2011354 0 0 1 0.0612,0 1.2292979,1.1937494 0 0 1 0.0613,0 1.2224122,1.1870628 0 0 1 0.0612,0 1.2162587,1.1810873 0 0 1 0.0613,0 1.2108488,1.1758337 0 0 1 0.0612,0 1.2061924,1.171312 0 0 1 0.0613,0 1.2022984,1.1675306 0 0 1 0.0612,0 1.1991739,1.1644965 0 0 1 0.0613,0 1.193744,1.1592237 0 0 1 0.21437,0 l 95.73366,0.4462 a 1.1943249,1.1597877 0 0 1 0,2.3195 l -95.73366,-0.446 a 1.2452307,1.2092214 0 0 1 -0.70437,-2.3197 z m -26.58248,4.2528 a 1.193744,1.1592237 0 0 1 0.245,0 l 7.595,0.03 0.18375,0 107.15677,0.4164 a 1.1943739,1.1598353 0 0 1 0,2.3196 l -107.12615,-0.4461 a 1.1944721,1.1599306 0 0 1 -0.245,0.03 l -7.56437,-0.06 a 1.193744,1.1592237 0 0 1 -0.33687,-0.059 1.193744,1.1592237 0 0 1 -0.0306,0 1.193744,1.1592237 0 0 1 -0.64312,-0.4758 1.193744,1.1592237 0 0 1 0,-0.03 1.193744,1.1592237 0 0 1 -0.0919,-0.1783 1.193744,1.1592237 0 0 1 0,-0.03 1.193744,1.1592237 0 0 1 -0.0306,-0.6543 1.193744,1.1592237 0 0 1 0,-0.03 1.193744,1.1592237 0 0 1 0.18375,-0.3866 1.193744,1.1592237 0 0 1 0.0306,-0.03 1.193744,1.1592237 0 0 1 0.0613,-0.059 1.193744,1.1592237 0 0 1 0,-0.03 1.193744,1.1592237 0 0 1 0.3675,-0.2379 1.193744,1.1592237 0 0 1 0.0306,-0.03 1.193744,1.1592237 0 0 1 0.21437,-0.059 z m -0.30625,4.6096 a 1.2192431,1.1839854 0 0 1 0.0612,0 1.2134602,1.1783696 0 0 1 0.0613,0 1.2084258,1.1734809 0 0 1 0.0612,0 1.2041496,1.1693283 0 0 1 0.0613,0 1.2006395,1.1659197 0 0 1 0.0612,0 1.1979024,1.1632617 0 0 1 0.0613,0 1.1959434,1.1613594 0 0 1 0.0612,0 1.1943739,1.1598353 0 0 1 0.1225,0 l 96.98929,0.4758 a 1.194389,1.15985 0 0 1 0,2.3197 l -96.98929,-0.4759 a 1.2257642,1.1903179 0 1 1 -0.55125,-2.3196 z m 101.79741,0 a 1.2257642,1.1903179 0 0 1 0.0612,0 1.2192431,1.1839854 0 0 1 0.0612,0 1.2134602,1.1783696 0 0 1 0.0613,0 1.2084258,1.1734809 0 0 1 0.0612,0 1.2041496,1.1693283 0 0 1 0.0612,0 1.2006395,1.1659197 0 0 1 0.0612,0 1.1979024,1.1632617 0 0 1 0.0613,0 1.1959434,1.1613594 0 0 1 0.0612,0 1.1943739,1.1598353 0 0 1 0.1225,0 l 7.59499,0.059 a 1.1944871,1.1599452 0 1 1 -0.0306,2.3197 l -7.56437,-0.06 a 1.2330117,1.1973558 0 1 1 -0.6125,-2.3196 z m -101.98116,4.6393 a 1.2409728,1.2050867 0 0 1 0.0612,0 1.2330117,1.1973558 0 0 1 0.0612,0 1.2257642,1.1903179 0 0 1 0.0613,0 1.2192431,1.1839854 0 0 1 0.0612,0 1.2134602,1.1783696 0 0 1 0.0613,0 1.2084258,1.1734809 0 0 1 0.0612,0 1.2041496,1.1693283 0 0 1 0.0613,0 1.2006395,1.1659197 0 0 1 0.0612,0 1.1959434,1.1613594 0 0 1 0.1225,0 1.193744,1.1592237 0 0 1 0.1225,0 l 106.17678,0.4758 a 1.194389,1.15985 0 0 1 0,2.3197 l -106.17678,-0.4758 a 1.2496485,1.2135115 0 0 1 -0.735,-2.3197 z m 0.18375,4.6393 a 1.2192431,1.1839854 0 0 1 0.0612,0 1.2134602,1.1783696 0 0 1 0.0613,0 1.2084258,1.1734809 0 0 1 0.0612,0 1.2041496,1.1693283 0 0 1 0.0613,0 1.2006395,1.1659197 0 0 1 0.0612,0 1.1959434,1.1613594 0 0 1 0.1225,0 1.193744,1.1592237 0 0 1 0.1225,0 l 122.28551,0.4759 a 1.1943739,1.1598353 0 0 1 0,2.3196 l -122.28551,-0.4758 a 1.225779,1.1903323 0 0 1 -0.55125,-2.3197 z m 0.1225,4.6394 a 1.2084258,1.1734809 0 0 1 0.0612,0 1.2041496,1.1693283 0 0 1 0.0613,0 1.2006395,1.1659197 0 0 1 0.0612,0 1.1959434,1.1613594 0 0 1 0.1225,0 1.193744,1.1592237 0 0 1 0.1225,0 l 102.62428,0.4758 a 1.194389,1.15985 0 0 1 0,2.3197 l -102.62428,-0.4758 a 1.2134752,1.1783841 0 1 1 -0.42875,-2.3197 z m 108.4124,0.3271 a 1.193744,1.1592237 0 0 1 0.245,0 l 7.56437,0.03 a 1.1943739,1.1598353 0 0 1 0,2.3196 l -7.59499,-0.059 a 1.193744,1.1592237 0 0 1 -0.21438,-2.29 z m -108.47365,4.3122 a 1.2134602,1.1783696 0 0 1 0.0613,0 1.2084258,1.1734809 0 0 1 0.0612,0 1.2041496,1.1693283 0 0 1 0.0613,0 1.2006395,1.1659197 0 0 1 0.0612,0 1.1959434,1.1613594 0 0 1 0.1225,0 1.193744,1.1592237 0 0 1 0.1225,0 l 116.89552,0.4759 a 1.193744,1.1592237 0 1 1 0,2.2899 l -116.89552,-0.4461 a 1.2192581,1.1839998 0 0 1 -0.49,-2.3197 z m 0.0919,4.6394 a 1.2041496,1.1693283 0 0 1 0.0613,0 1.1979024,1.1632617 0 0 1 0.1225,0 1.193744,1.1592237 0 0 1 0.245,0 l 22.26435,0.446 a 1.1945386,1.1599952 0 1 1 -0.0306,2.3198 l -22.29498,-0.4462 a 1.2084258,1.1734809 0 0 1 -0.3675,-2.3196 z m 27.1031,0.3866 a 1.2022497,1.1674833 0 0 1 0.0612,0 1.1991251,1.1644491 0 0 1 0.0613,0 1.195208,1.1606452 0 0 1 0.1225,0 1.193744,1.1592237 0 0 1 0.0919,0 l 95.73366,0.4461 a 1.1943739,1.1598353 0 0 1 0,2.3196 l -95.73366,-0.4461 a 1.2061561,1.1712768 0 1 1 -0.33687,-2.3196 z m -26.94998,4.2527 a 1.193744,1.1592237 0 0 1 0.245,0 l 7.595,0.03 a 1.1944355,1.1598952 0 1 1 -0.0306,2.3196 l -7.56437,-0.03 a 1.2006546,1.1659344 0 1 1 -0.245,-2.3197 z"
         style="fill:#ffffff;fill-opacity:1;stroke:none" />
    </g>
    <g
       id="g4264"
       transform="translate(46.519409,40.496826)">
      <path
         id="rect4167"
         d="m 100.59375,1184.0625 0,102.1875 154.9375,0 0,-102.1875 -154.9375,0 z m 4.90625,5.0937 145.15625,0 0,91.9688 -145.15625,0 0,-91.9688 z"
         style="fill:#ffffff;fill-opacity:1;stroke:none"
         inkscape:connector-curvature="0" />
      <path
         id="rect4156"
         d="m 107.875,1190.6562 0,88.9688 140.40625,0 0,-88.9688 -140.40625,0 z m 12.375,28.5626 c 0.28574,-0.02 0.54066,0 0.8125,0 2.86663,0 5.16982,0.6914 6.875,2.125 1.70514,1.4329 2.56248,3.3528 2.5625,5.75 -2e-5,1.1363 -0.2238,2.2242 -0.65625,3.25 -0.42013,1.0128 -1.18811,2.2099 -2.3125,3.5937 -0.30893,0.3584 -1.31303,1.4075 -2.96875,3.125 -1.65575,1.7052 -3.98508,4.0793 -7,7.1563 l 13.0625,0 0,3.1562 -17.5625,0 0,-3.1562 c 1.42097,-1.4708 3.36596,-3.4351 5.8125,-5.9063 2.45888,-2.4836 3.99482,-4.0959 4.625,-4.8125 1.19854,-1.3469 2.03045,-2.4796 2.5,-3.4062 0.48188,-0.9395 0.71873,-1.8482 0.71875,-2.75 -2e-5,-1.4708 -0.52459,-2.667 -1.5625,-3.5938 -1.02558,-0.9266 -2.34428,-1.4064 -4,-1.4062 -1.17386,0 -2.409,0.217 -3.71875,0.625 -1.29741,0.4076 -2.70476,1.0159 -4.1875,1.8437 l 0,-3.7813 c 1.50745,-0.6049 2.90898,-1.0661 4.21875,-1.375 0.98232,-0.2312 1.92403,-0.3796 2.78125,-0.4374 z m 55.96875,0 c 0.28574,-0.02 0.57191,0 0.84375,0 2.86663,0 5.13857,0.6914 6.84375,2.125 1.70514,1.4331 2.56248,3.3528 2.5625,5.75 -2e-5,1.1365 -0.2238,2.2242 -0.65625,3.25 -0.42013,1.013 -1.1881,2.2099 -2.3125,3.5937 -0.30893,0.3584 -1.28178,1.4075 -2.9375,3.125 -1.65575,1.7052 -4.01633,4.0793 -7.03125,7.1563 l 13.09375,0 0,3.1562 -17.59375,0 0,-3.1562 c 1.42097,-1.4706 3.36596,-3.4351 5.8125,-5.9063 2.45888,-2.4836 3.99482,-4.0959 4.625,-4.8125 1.19854,-1.3469 2.03045,-2.4796 2.5,-3.4062 0.48188,-0.9393 0.71873,-1.8482 0.71875,-2.75 -2e-5,-1.4706 -0.49334,-2.667 -1.53125,-3.5938 -1.02558,-0.9266 -2.37553,-1.4064 -4.03125,-1.4062 -1.17386,0 -2.409,0.2171 -3.71875,0.625 -1.29741,0.4076 -2.70476,1.0159 -4.1875,1.8437 l 0,-3.7813 c 1.50745,-0.6051 2.90898,-1.0661 4.21875,-1.375 0.98232,-0.2314 1.92403,-0.3796 2.78125,-0.4374 z m 50.125,0.5 14.6875,0 0,3.125 -11.28125,0 0,6.7812 c 0.54367,-0.1854 1.11257,-0.3198 1.65625,-0.4062 0.54367,-0.099 1.08131,-0.1249 1.625,-0.125 3.08904,0 5.53972,0.8385 7.34375,2.5312 1.80399,1.6929 2.68748,3.9836 2.6875,6.875 -2e-5,2.9779 -0.92784,5.2817 -2.78125,6.9375 -1.85345,1.6434 -4.47051,2.4688 -7.84375,2.4687 -1.16149,0 -2.3516,-0.084 -3.5625,-0.2812 -1.19856,-0.1977 -2.43371,-0.5109 -3.71875,-0.9062 l 0,-3.75 c 1.11206,0.6053 2.28255,1.0471 3.46875,1.3437 1.18619,0.2965 2.42787,0.4375 3.75,0.4375 2.13761,0 3.81451,-0.5631 5.0625,-1.6875 1.24796,-1.1244 1.87498,-2.6349 1.875,-4.5625 -2e-5,-1.9276 -0.62704,-3.4693 -1.875,-4.5938 -1.24799,-1.1243 -2.92489,-1.6562 -5.0625,-1.6562 -1.00087,0 -1.99915,0.09 -3,0.3125 -0.98851,0.2224 -1.99333,0.5617 -3.03125,1.0313 l 0,-13.875 z m -77.53125,3.875 3.09375,0 0,10.3124 10.34375,0 0,3.1563 -10.34375,0 0,10.3125 -3.09375,0 0,-10.3125 -10.34375,0 0,-3.1563 10.34375,0 0,-10.3124 z m 45.625,6.5312 23.78125,0 0,3.125 -23.78125,0 0,-3.125 z m 0,7.5625 23.78125,0 0,3.1563 -23.78125,0 0,-3.1563 z"
         style="fill:#ffffff;fill-opacity:1;stroke:none"
         inkscape:connector-curvature="0" />
    </g>
  </g>
</svg>
